<mxfile host="app.diagrams.net" modified="2023-11-20T17:32:17.237Z" agent="Mozilla/5.0 (Windows NT 10.0; Win64; x64) AppleWebKit/537.36 (KHTML, like Gecko) Chrome/118.0.0.0 Safari/537.36 OPR/104.0.0.0" etag="smH2p_UBwR8X5TbwxqYA" version="22.1.3" type="github">
  <diagram name="Page-1" id="2c0d36ab-eaac-3732-788b-9136903baeff">
    <mxGraphModel dx="4550" dy="2600" grid="1" gridSize="10" guides="1" tooltips="1" connect="1" arrows="1" fold="1" page="1" pageScale="1.5" pageWidth="2336" pageHeight="1654" background="none" math="0" shadow="0">
      <root>
        <mxCell id="0" />
        <mxCell id="1" parent="0" />
        <mxCell id="123" value="" style="fillColor=#AE4132;strokeColor=none;opacity=30;" parent="1" vertex="1">
          <mxGeometry x="2457" y="175.50000000000003" width="210" height="99.99999999999994" as="geometry" />
        </mxCell>
        <mxCell id="qrLLP5ViFst0h06Zl4Ro-234" style="edgeStyle=orthogonalEdgeStyle;rounded=0;orthogonalLoop=1;jettySize=auto;html=1;exitX=0.5;exitY=1;exitDx=0;exitDy=0;entryX=0.5;entryY=0;entryDx=0;entryDy=0;strokeWidth=2;" parent="1" source="2" target="qrLLP5ViFst0h06Zl4Ro-162" edge="1">
          <mxGeometry relative="1" as="geometry">
            <Array as="points">
              <mxPoint x="2562" y="300" />
              <mxPoint x="1524" y="300" />
            </Array>
          </mxGeometry>
        </mxCell>
        <mxCell id="qrLLP5ViFst0h06Zl4Ro-236" style="edgeStyle=orthogonalEdgeStyle;rounded=0;orthogonalLoop=1;jettySize=auto;html=1;exitX=0.5;exitY=1;exitDx=0;exitDy=0;entryX=0.5;entryY=0;entryDx=0;entryDy=0;strokeWidth=2;" parent="1" source="2" target="qrLLP5ViFst0h06Zl4Ro-181" edge="1">
          <mxGeometry relative="1" as="geometry">
            <Array as="points">
              <mxPoint x="2562" y="300" />
              <mxPoint x="1186" y="300" />
            </Array>
          </mxGeometry>
        </mxCell>
        <mxCell id="qrLLP5ViFst0h06Zl4Ro-237" style="edgeStyle=orthogonalEdgeStyle;rounded=0;orthogonalLoop=1;jettySize=auto;html=1;exitX=0.5;exitY=1;exitDx=0;exitDy=0;entryX=0;entryY=0.5;entryDx=0;entryDy=0;strokeWidth=6;" parent="1" target="qrLLP5ViFst0h06Zl4Ro-127" edge="1" source="2">
          <mxGeometry relative="1" as="geometry">
            <mxPoint x="2562" y="165.75" as="sourcePoint" />
            <mxPoint x="3600.5" y="903.25" as="targetPoint" />
            <Array as="points">
              <mxPoint x="2562" y="791" />
            </Array>
          </mxGeometry>
        </mxCell>
        <mxCell id="qrLLP5ViFst0h06Zl4Ro-238" style="edgeStyle=orthogonalEdgeStyle;rounded=0;orthogonalLoop=1;jettySize=auto;html=1;exitX=0.5;exitY=1;exitDx=0;exitDy=0;entryX=0.5;entryY=0;entryDx=0;entryDy=0;strokeWidth=2;" parent="1" source="2" target="qrLLP5ViFst0h06Zl4Ro-202" edge="1">
          <mxGeometry relative="1" as="geometry">
            <Array as="points">
              <mxPoint x="2562" y="300" />
              <mxPoint x="3395" y="300" />
            </Array>
          </mxGeometry>
        </mxCell>
        <mxCell id="qrLLP5ViFst0h06Zl4Ro-286" style="edgeStyle=orthogonalEdgeStyle;rounded=0;orthogonalLoop=1;jettySize=auto;html=1;exitX=0.5;exitY=1;exitDx=0;exitDy=0;entryX=0.5;entryY=0;entryDx=0;entryDy=0;strokeWidth=2;" parent="1" source="2" target="qrLLP5ViFst0h06Zl4Ro-279" edge="1">
          <mxGeometry relative="1" as="geometry">
            <Array as="points">
              <mxPoint x="2562" y="300" />
              <mxPoint x="1840" y="300" />
            </Array>
          </mxGeometry>
        </mxCell>
        <mxCell id="qrLLP5ViFst0h06Zl4Ro-792" style="edgeStyle=orthogonalEdgeStyle;rounded=0;orthogonalLoop=1;jettySize=auto;html=1;exitX=0.5;exitY=1;exitDx=0;exitDy=0;entryX=1;entryY=0.5;entryDx=0;entryDy=0;strokeWidth=6;" parent="1" target="13" edge="1">
          <mxGeometry relative="1" as="geometry">
            <Array as="points">
              <mxPoint x="2562" y="791" />
            </Array>
            <mxPoint x="2562" y="266.5" as="sourcePoint" />
            <mxPoint x="1031" y="842.5" as="targetPoint" />
          </mxGeometry>
        </mxCell>
        <mxCell id="qrLLP5ViFst0h06Zl4Ro-801" style="edgeStyle=orthogonalEdgeStyle;rounded=0;orthogonalLoop=1;jettySize=auto;html=1;exitX=0.5;exitY=1;exitDx=0;exitDy=0;entryX=0.5;entryY=0;entryDx=0;entryDy=0;strokeWidth=6;" parent="1" source="2" target="10" edge="1">
          <mxGeometry relative="1" as="geometry" />
        </mxCell>
        <mxCell id="2" value="الإدارة العامّة" style="rounded=1;fillColor=#23445D;gradientColor=none;strokeColor=none;fontColor=#FFFFFF;fontStyle=1;fontFamily=Tahoma;fontSize=14" parent="1" vertex="1">
          <mxGeometry x="2467" y="186.5" width="190" height="80" as="geometry" />
        </mxCell>
        <mxCell id="qrLLP5ViFst0h06Zl4Ro-809" style="edgeStyle=orthogonalEdgeStyle;rounded=0;orthogonalLoop=1;jettySize=auto;html=1;exitX=0.5;exitY=1;exitDx=0;exitDy=0;entryX=0.5;entryY=0;entryDx=0;entryDy=0;endArrow=none;endFill=0;" parent="1" source="4" target="49" edge="1">
          <mxGeometry relative="1" as="geometry" />
        </mxCell>
        <mxCell id="4" value="وحدة التّدقيق الدّاخلي&#xa; (إدارة)" style="rounded=1;fillColor=#23445D;gradientColor=none;strokeColor=none;fontColor=#FFFFFF;fontStyle=1;fontFamily=Tahoma;fontSize=13;" parent="1" vertex="1">
          <mxGeometry x="2742" y="452.75" width="189" height="80" as="geometry" />
        </mxCell>
        <mxCell id="9" value="" style="edgeStyle=elbowEdgeStyle;elbow=vertical;strokeWidth=2;rounded=0" parent="1" source="2" target="4" edge="1">
          <mxGeometry x="337" y="215.5" width="100" height="100" as="geometry">
            <mxPoint x="2207" y="315.5" as="sourcePoint" />
            <mxPoint x="2307" y="215.5" as="targetPoint" />
            <Array as="points">
              <mxPoint x="2710" y="300" />
            </Array>
          </mxGeometry>
        </mxCell>
        <mxCell id="qrLLP5ViFst0h06Zl4Ro-555" style="edgeStyle=orthogonalEdgeStyle;rounded=0;orthogonalLoop=1;jettySize=auto;html=1;exitX=0.5;exitY=1;exitDx=0;exitDy=0;entryX=0.5;entryY=0;entryDx=0;entryDy=0;strokeWidth=2;" parent="1" target="qrLLP5ViFst0h06Zl4Ro-541" edge="1">
          <mxGeometry relative="1" as="geometry">
            <mxPoint x="2561" y="1558" as="sourcePoint" />
          </mxGeometry>
        </mxCell>
        <mxCell id="qrLLP5ViFst0h06Zl4Ro-556" style="edgeStyle=orthogonalEdgeStyle;rounded=0;orthogonalLoop=1;jettySize=auto;html=1;exitX=0.5;exitY=1;exitDx=0;exitDy=0;entryX=0.5;entryY=0;entryDx=0;entryDy=0;strokeWidth=2;" parent="1" target="qrLLP5ViFst0h06Zl4Ro-502" edge="1">
          <mxGeometry relative="1" as="geometry">
            <mxPoint x="2561" y="1558" as="sourcePoint" />
          </mxGeometry>
        </mxCell>
        <mxCell id="qrLLP5ViFst0h06Zl4Ro-557" style="edgeStyle=orthogonalEdgeStyle;rounded=0;orthogonalLoop=1;jettySize=auto;html=1;entryX=0.5;entryY=0;entryDx=0;entryDy=0;strokeWidth=2;" parent="1" target="qrLLP5ViFst0h06Zl4Ro-485" edge="1">
          <mxGeometry relative="1" as="geometry">
            <mxPoint x="2561" y="1558" as="sourcePoint" />
          </mxGeometry>
        </mxCell>
        <mxCell id="qrLLP5ViFst0h06Zl4Ro-711" style="edgeStyle=orthogonalEdgeStyle;rounded=0;orthogonalLoop=1;jettySize=auto;html=1;exitX=0.5;exitY=1;exitDx=0;exitDy=0;entryX=0.5;entryY=0;entryDx=0;entryDy=0;strokeWidth=2;" parent="1" target="qrLLP5ViFst0h06Zl4Ro-707" edge="1">
          <mxGeometry relative="1" as="geometry">
            <mxPoint x="2561" y="1558" as="sourcePoint" />
          </mxGeometry>
        </mxCell>
        <mxCell id="qrLLP5ViFst0h06Zl4Ro-816" style="edgeStyle=orthogonalEdgeStyle;rounded=0;orthogonalLoop=1;jettySize=auto;html=1;exitX=0.5;exitY=1;exitDx=0;exitDy=0;entryX=0.5;entryY=0;entryDx=0;entryDy=0;strokeWidth=2;" parent="1" source="10" target="qrLLP5ViFst0h06Zl4Ro-519" edge="1">
          <mxGeometry relative="1" as="geometry" />
        </mxCell>
        <mxCell id="10" value="القسم الإداري والمالي&#xa; (إدارة عامّة)" style="rounded=1;fillColor=#23445D;gradientColor=none;strokeColor=none;fontColor=#FFFFFF;fontStyle=1;fontFamily=Tahoma;fontSize=12;" parent="1" vertex="1">
          <mxGeometry x="2466.5" y="1460" width="189" height="78" as="geometry" />
        </mxCell>
        <mxCell id="12" value="الكتابة القارّة للجان الصّفقات&#xa; (إدارة)" style="rounded=1;fillColor=#23445D;gradientColor=none;strokeColor=none;fontColor=#FFFFFF;fontStyle=1;fontFamily=Tahoma;fontSize=11;" parent="1" vertex="1">
          <mxGeometry x="2179" y="452.75" width="189" height="80" as="geometry" />
        </mxCell>
        <mxCell id="qrLLP5ViFst0h06Zl4Ro-474" style="edgeStyle=orthogonalEdgeStyle;rounded=0;orthogonalLoop=1;jettySize=auto;html=1;exitX=0.5;exitY=1;exitDx=0;exitDy=0;entryX=0.5;entryY=0;entryDx=0;entryDy=0;strokeWidth=2;" parent="1" source="13" target="qrLLP5ViFst0h06Zl4Ro-422" edge="1">
          <mxGeometry relative="1" as="geometry" />
        </mxCell>
        <mxCell id="qrLLP5ViFst0h06Zl4Ro-475" style="edgeStyle=orthogonalEdgeStyle;rounded=0;orthogonalLoop=1;jettySize=auto;html=1;exitX=0.5;exitY=1;exitDx=0;exitDy=0;entryX=0.5;entryY=0;entryDx=0;entryDy=0;strokeWidth=2;" parent="1" source="13" target="qrLLP5ViFst0h06Zl4Ro-405" edge="1">
          <mxGeometry relative="1" as="geometry" />
        </mxCell>
        <mxCell id="qrLLP5ViFst0h06Zl4Ro-476" style="edgeStyle=orthogonalEdgeStyle;rounded=0;orthogonalLoop=1;jettySize=auto;html=1;exitX=0.5;exitY=1;exitDx=0;exitDy=0;entryX=0.5;entryY=0;entryDx=0;entryDy=0;strokeWidth=2;" parent="1" source="13" target="qrLLP5ViFst0h06Zl4Ro-439" edge="1">
          <mxGeometry relative="1" as="geometry" />
        </mxCell>
        <mxCell id="qrLLP5ViFst0h06Zl4Ro-477" style="edgeStyle=orthogonalEdgeStyle;rounded=0;orthogonalLoop=1;jettySize=auto;html=1;exitX=0.5;exitY=1;exitDx=0;exitDy=0;entryX=0.5;entryY=0;entryDx=0;entryDy=0;strokeWidth=2;" parent="1" source="13" target="qrLLP5ViFst0h06Zl4Ro-461" edge="1">
          <mxGeometry relative="1" as="geometry" />
        </mxCell>
        <mxCell id="qrLLP5ViFst0h06Zl4Ro-755" style="edgeStyle=orthogonalEdgeStyle;rounded=0;orthogonalLoop=1;jettySize=auto;html=1;exitX=0.5;exitY=1;exitDx=0;exitDy=0;entryX=0.5;entryY=0;entryDx=0;entryDy=0;strokeWidth=2;" parent="1" source="13" target="qrLLP5ViFst0h06Zl4Ro-732" edge="1">
          <mxGeometry relative="1" as="geometry" />
        </mxCell>
        <mxCell id="13" value="القسم التّقني&#xa; (إدارة عامّة)" style="rounded=1;fillColor=#23445D;gradientColor=none;strokeColor=none;fontColor=#FFFFFF;fontStyle=1;fontFamily=Tahoma;fontSize=14" parent="1" vertex="1">
          <mxGeometry x="852" y="753" width="189" height="77" as="geometry" />
        </mxCell>
        <mxCell id="25" value="الإدارة الفرعيّة&#xa; لملفّات االلّجنة الدّاخلية&#xa; للصّفقات" style="rounded=1;fillColor=#23445D;gradientColor=none;strokeColor=none;fontColor=#FFFFFF;fontStyle=1;fontFamily=Tahoma;fontSize=11;" parent="1" vertex="1">
          <mxGeometry x="2034" y="563" width="129" height="60" as="geometry" />
        </mxCell>
        <mxCell id="26" value="مصلحة الختوم النهائيّة" style="rounded=1;fillColor=#23445D;gradientColor=none;strokeColor=none;fontColor=#FFFFFF;fontStyle=1;fontFamily=Tahoma;fontSize=12;" parent="1" vertex="1">
          <mxGeometry x="2034" y="662.5" width="129" height="60" as="geometry" />
        </mxCell>
        <mxCell id="qrLLP5ViFst0h06Zl4Ro-807" style="edgeStyle=orthogonalEdgeStyle;rounded=0;orthogonalLoop=1;jettySize=auto;html=1;exitX=1;exitY=0.5;exitDx=0;exitDy=0;endArrow=none;endFill=0;" parent="1" source="30" target="34" edge="1">
          <mxGeometry relative="1" as="geometry" />
        </mxCell>
        <mxCell id="qrLLP5ViFst0h06Zl4Ro-808" style="edgeStyle=orthogonalEdgeStyle;rounded=0;orthogonalLoop=1;jettySize=auto;html=1;exitX=0;exitY=0.5;exitDx=0;exitDy=0;entryX=1;entryY=0.5;entryDx=0;entryDy=0;endArrow=none;endFill=0;" parent="1" source="30" target="26" edge="1">
          <mxGeometry relative="1" as="geometry" />
        </mxCell>
        <mxCell id="30" value="مصلحة تقارير التّقييم" style="rounded=1;fillColor=#23445D;gradientColor=none;strokeColor=none;fontColor=#FFFFFF;fontStyle=1;fontFamily=Tahoma;fontSize=12;" parent="1" vertex="1">
          <mxGeometry x="2209" y="662.5" width="129" height="60" as="geometry" />
        </mxCell>
        <mxCell id="33" value="الإدارة الفرعيّة &#xa;لملفّات الهيئة العليا &#xa;للطّلب العمومي" style="rounded=1;fillColor=#23445D;gradientColor=none;strokeColor=none;fontColor=#FFFFFF;fontStyle=1;fontFamily=Tahoma;fontSize=12;" parent="1" vertex="1">
          <mxGeometry x="2384" y="563" width="129" height="60" as="geometry" />
        </mxCell>
        <mxCell id="34" value="مصلحة إعداد طلبات&#xa; العروض" style="rounded=1;fillColor=#23445D;gradientColor=none;strokeColor=none;fontColor=#FFFFFF;fontStyle=1;fontFamily=Tahoma;fontSize=12;" parent="1" vertex="1">
          <mxGeometry x="2384" y="662.5" width="129" height="60" as="geometry" />
        </mxCell>
        <mxCell id="qrLLP5ViFst0h06Zl4Ro-804" style="edgeStyle=orthogonalEdgeStyle;rounded=0;orthogonalLoop=1;jettySize=auto;html=1;exitX=0.5;exitY=1;exitDx=0;exitDy=0;" parent="1" source="44" target="45" edge="1">
          <mxGeometry relative="1" as="geometry" />
        </mxCell>
        <mxCell id="44" value="الإدارة الفرعيّة &#xa;للتّدقيق التّقني" style="rounded=1;fillColor=#23445D;gradientColor=none;strokeColor=none;fontColor=#FFFFFF;fontStyle=1;fontFamily=Tahoma;fontSize=12;" parent="1" vertex="1">
          <mxGeometry x="2597" y="563" width="129" height="60" as="geometry" />
        </mxCell>
        <mxCell id="45" value="كتابة اللّجنة &#xa;الدّائمة للتّدقيق" style="rounded=1;fillColor=#23445D;gradientColor=none;strokeColor=none;fontColor=#FFFFFF;fontStyle=1;fontFamily=Tahoma;fontSize=12;" parent="1" vertex="1">
          <mxGeometry x="2597" y="662.5" width="129" height="60" as="geometry" />
        </mxCell>
        <mxCell id="qrLLP5ViFst0h06Zl4Ro-805" style="rounded=0;orthogonalLoop=1;jettySize=auto;html=1;exitX=0;exitY=0.5;exitDx=0;exitDy=0;entryX=1;entryY=0.5;entryDx=0;entryDy=0;endArrow=none;endFill=0;" parent="1" source="49" target="45" edge="1">
          <mxGeometry relative="1" as="geometry" />
        </mxCell>
        <mxCell id="qrLLP5ViFst0h06Zl4Ro-806" style="rounded=0;orthogonalLoop=1;jettySize=auto;html=1;exitX=1;exitY=0.5;exitDx=0;exitDy=0;entryX=0;entryY=0.5;entryDx=0;entryDy=0;strokeColor=default;endArrow=none;endFill=0;" parent="1" source="49" target="53" edge="1">
          <mxGeometry relative="1" as="geometry" />
        </mxCell>
        <mxCell id="49" value="مصلحة متابعة &#xa;تقارير الرّقابة الداخليّة" style="rounded=1;fillColor=#23445D;gradientColor=none;strokeColor=none;fontColor=#FFFFFF;fontStyle=1;fontFamily=Tahoma;fontSize=12;" parent="1" vertex="1">
          <mxGeometry x="2772" y="662.5" width="129" height="60" as="geometry" />
        </mxCell>
        <mxCell id="52" value="الإدارة الفرعيّة &#xa;للتّدقيق المالي والإداري" style="rounded=1;fillColor=#23445D;gradientColor=none;strokeColor=none;fontColor=#FFFFFF;fontStyle=1;fontFamily=Tahoma;fontSize=11;" parent="1" vertex="1">
          <mxGeometry x="2947" y="563" width="129" height="60" as="geometry" />
        </mxCell>
        <mxCell id="53" value="مصلحة متابعة&#xa; تقارير الرّقابة الخارجيّة" style="rounded=1;fillColor=#23445D;gradientColor=none;strokeColor=none;fontColor=#FFFFFF;fontStyle=1;fontFamily=Tahoma;fontSize=12;" parent="1" vertex="1">
          <mxGeometry x="2947" y="662.5" width="129" height="60" as="geometry" />
        </mxCell>
        <mxCell id="59" value="" style="edgeStyle=elbowEdgeStyle;elbow=vertical;strokeWidth=2;rounded=0" parent="1" source="2" target="12" edge="1">
          <mxGeometry x="347" y="225.5" width="100" height="100" as="geometry">
            <mxPoint x="2732" y="275.5" as="sourcePoint" />
            <mxPoint x="3337" y="345.5" as="targetPoint" />
            <Array as="points">
              <mxPoint x="2420" y="300" />
            </Array>
          </mxGeometry>
        </mxCell>
        <mxCell id="70" value="" style="edgeStyle=elbowEdgeStyle;elbow=horizontal;strokeWidth=2;rounded=0" parent="1" source="25" target="26" edge="1">
          <mxGeometry x="-23" y="135.5" width="100" height="100" as="geometry">
            <mxPoint x="1594" y="335.5" as="sourcePoint" />
            <mxPoint x="1694" y="235.5" as="targetPoint" />
            <Array as="points" />
          </mxGeometry>
        </mxCell>
        <mxCell id="76" value="" style="edgeStyle=elbowEdgeStyle;elbow=horizontal;strokeWidth=2;rounded=0" parent="1" source="33" target="34" edge="1">
          <mxGeometry x="-23" y="135.5" width="100" height="100" as="geometry">
            <mxPoint x="1594" y="335.5" as="sourcePoint" />
            <mxPoint x="1694" y="235.5" as="targetPoint" />
            <Array as="points" />
          </mxGeometry>
        </mxCell>
        <mxCell id="90" value="" style="edgeStyle=elbowEdgeStyle;elbow=horizontal;strokeWidth=2;rounded=0" parent="1" source="52" target="53" edge="1">
          <mxGeometry x="-23" y="135.5" width="100" height="100" as="geometry">
            <mxPoint x="1357" y="335.5" as="sourcePoint" />
            <mxPoint x="1457" y="235.5" as="targetPoint" />
            <Array as="points">
              <mxPoint x="3012" y="650" />
            </Array>
          </mxGeometry>
        </mxCell>
        <mxCell id="100" value="" style="edgeStyle=elbowEdgeStyle;elbow=vertical;strokeWidth=2;rounded=0" parent="1" source="12" target="25" edge="1">
          <mxGeometry x="-23" y="135.5" width="100" height="100" as="geometry">
            <mxPoint x="1594" y="355.5" as="sourcePoint" />
            <mxPoint x="1694" y="255.5" as="targetPoint" />
          </mxGeometry>
        </mxCell>
        <mxCell id="101" value="" style="edgeStyle=elbowEdgeStyle;elbow=vertical;strokeWidth=2;rounded=0;entryX=0.5;entryY=0;entryDx=0;entryDy=0;fillColor=#cce5ff;strokeColor=#36393d;" parent="1" source="12" target="30" edge="1">
          <mxGeometry x="-23" y="135.5" width="100" height="100" as="geometry">
            <mxPoint x="1594" y="355.5" as="sourcePoint" />
            <mxPoint x="1694" y="255.5" as="targetPoint" />
          </mxGeometry>
        </mxCell>
        <mxCell id="102" value="" style="edgeStyle=elbowEdgeStyle;elbow=vertical;strokeWidth=2;rounded=0" parent="1" source="12" target="33" edge="1">
          <mxGeometry x="-23" y="135.5" width="100" height="100" as="geometry">
            <mxPoint x="1594" y="355.5" as="sourcePoint" />
            <mxPoint x="1694" y="255.5" as="targetPoint" />
          </mxGeometry>
        </mxCell>
        <mxCell id="105" value="" style="edgeStyle=elbowEdgeStyle;elbow=vertical;strokeWidth=2;rounded=0" parent="1" source="4" target="44" edge="1">
          <mxGeometry x="-23" y="135.5" width="100" height="100" as="geometry">
            <mxPoint x="1357" y="355.5" as="sourcePoint" />
            <mxPoint x="1457" y="255.5" as="targetPoint" />
          </mxGeometry>
        </mxCell>
        <mxCell id="106" value="" style="edgeStyle=elbowEdgeStyle;elbow=vertical;strokeWidth=2;rounded=0" parent="1" source="4" target="52" edge="1">
          <mxGeometry x="-23" y="135.5" width="100" height="100" as="geometry">
            <mxPoint x="1357" y="355.5" as="sourcePoint" />
            <mxPoint x="1457" y="255.5" as="targetPoint" />
          </mxGeometry>
        </mxCell>
        <mxCell id="qrLLP5ViFst0h06Zl4Ro-300" style="edgeStyle=orthogonalEdgeStyle;rounded=0;orthogonalLoop=1;jettySize=auto;html=1;exitX=0.5;exitY=1;exitDx=0;exitDy=0;entryX=0.5;entryY=0;entryDx=0;entryDy=0;strokeWidth=2;" parent="1" source="qrLLP5ViFst0h06Zl4Ro-127" target="qrLLP5ViFst0h06Zl4Ro-288" edge="1">
          <mxGeometry relative="1" as="geometry" />
        </mxCell>
        <mxCell id="qrLLP5ViFst0h06Zl4Ro-387" style="edgeStyle=orthogonalEdgeStyle;rounded=0;orthogonalLoop=1;jettySize=auto;html=1;exitX=0.5;exitY=1;exitDx=0;exitDy=0;entryX=0.5;entryY=0;entryDx=0;entryDy=0;strokeWidth=2;" parent="1" source="qrLLP5ViFst0h06Zl4Ro-127" target="qrLLP5ViFst0h06Zl4Ro-370" edge="1">
          <mxGeometry relative="1" as="geometry" />
        </mxCell>
        <mxCell id="E77z-SEpHuwMJ6D2Hbxo-125" style="edgeStyle=orthogonalEdgeStyle;rounded=0;orthogonalLoop=1;jettySize=auto;html=1;exitX=0.5;exitY=1;exitDx=0;exitDy=0;entryX=0.5;entryY=0;entryDx=0;entryDy=0;strokeWidth=2;" edge="1" parent="1" source="qrLLP5ViFst0h06Zl4Ro-127" target="qrLLP5ViFst0h06Zl4Ro-327">
          <mxGeometry relative="1" as="geometry" />
        </mxCell>
        <mxCell id="qrLLP5ViFst0h06Zl4Ro-127" value="قسم الحوكمة &#xa; واليقظة الاستراتيجيّة &#xa;(إدارة عامّة)" style="rounded=1;fillColor=#23445D;gradientColor=none;strokeColor=none;fontColor=#FFFFFF;fontStyle=1;fontFamily=Tahoma;fontSize=12;" parent="1" vertex="1">
          <mxGeometry x="3655.5" y="753" width="190" height="77" as="geometry" />
        </mxCell>
        <mxCell id="qrLLP5ViFst0h06Zl4Ro-156" value="" style="edgeStyle=elbowEdgeStyle;elbow=vertical;strokeWidth=2;rounded=0;entryX=0.5;entryY=0;entryDx=0;entryDy=0;" parent="1" source="qrLLP5ViFst0h06Zl4Ro-127" target="qrLLP5ViFst0h06Zl4Ro-347" edge="1">
          <mxGeometry x="-23" y="135.5" width="100" height="100" as="geometry">
            <mxPoint x="2120.5" y="802.75" as="sourcePoint" />
            <mxPoint x="3425.5" y="1022.75" as="targetPoint" />
          </mxGeometry>
        </mxCell>
        <mxCell id="qrLLP5ViFst0h06Zl4Ro-789" style="edgeStyle=orthogonalEdgeStyle;rounded=0;orthogonalLoop=1;jettySize=auto;html=1;exitX=0.5;exitY=1;exitDx=0;exitDy=0;entryX=0.5;entryY=0;entryDx=0;entryDy=0;strokeWidth=2;" parent="1" source="qrLLP5ViFst0h06Zl4Ro-162" target="qrLLP5ViFst0h06Zl4Ro-259" edge="1">
          <mxGeometry relative="1" as="geometry" />
        </mxCell>
        <mxCell id="qrLLP5ViFst0h06Zl4Ro-790" style="edgeStyle=orthogonalEdgeStyle;rounded=0;orthogonalLoop=1;jettySize=auto;html=1;exitX=0.5;exitY=1;exitDx=0;exitDy=0;entryX=0.5;entryY=0;entryDx=0;entryDy=0;strokeWidth=2;" parent="1" source="qrLLP5ViFst0h06Zl4Ro-162" target="qrLLP5ViFst0h06Zl4Ro-258" edge="1">
          <mxGeometry relative="1" as="geometry" />
        </mxCell>
        <mxCell id="qrLLP5ViFst0h06Zl4Ro-162" value="خليّة التّفقد&#xa; (إدارة فرعيّة)" style="rounded=1;fillColor=#23445D;gradientColor=none;strokeColor=none;fontColor=#FFFFFF;fontStyle=1;fontFamily=Tahoma;fontSize=14" parent="1" vertex="1">
          <mxGeometry x="1430" y="550" width="189" height="70" as="geometry" />
        </mxCell>
        <mxCell id="qrLLP5ViFst0h06Zl4Ro-277" style="edgeStyle=orthogonalEdgeStyle;rounded=0;orthogonalLoop=1;jettySize=auto;html=1;exitX=0.5;exitY=1;exitDx=0;exitDy=0;entryX=0.5;entryY=0;entryDx=0;entryDy=0;strokeWidth=2;" parent="1" source="qrLLP5ViFst0h06Zl4Ro-181" target="qrLLP5ViFst0h06Zl4Ro-268" edge="1">
          <mxGeometry relative="1" as="geometry" />
        </mxCell>
        <mxCell id="qrLLP5ViFst0h06Zl4Ro-791" style="edgeStyle=orthogonalEdgeStyle;rounded=0;orthogonalLoop=1;jettySize=auto;html=1;exitX=0.5;exitY=1;exitDx=0;exitDy=0;entryX=0.5;entryY=0;entryDx=0;entryDy=0;strokeWidth=2;" parent="1" source="qrLLP5ViFst0h06Zl4Ro-181" target="qrLLP5ViFst0h06Zl4Ro-269" edge="1">
          <mxGeometry relative="1" as="geometry" />
        </mxCell>
        <mxCell id="qrLLP5ViFst0h06Zl4Ro-181" value="خلية الإتّصال&#xa; والعلاقات العامّة&#xa; (إدارة فرعيّة)" style="rounded=1;fillColor=#23445D;gradientColor=none;strokeColor=none;fontColor=#FFFFFF;fontStyle=1;fontFamily=Tahoma;fontSize=14" parent="1" vertex="1">
          <mxGeometry x="1091" y="550" width="189" height="70" as="geometry" />
        </mxCell>
        <mxCell id="qrLLP5ViFst0h06Zl4Ro-674" style="edgeStyle=orthogonalEdgeStyle;rounded=0;orthogonalLoop=1;jettySize=auto;html=1;exitX=0.5;exitY=1;exitDx=0;exitDy=0;entryX=0.5;entryY=0;entryDx=0;entryDy=0;strokeWidth=2;" parent="1" source="qrLLP5ViFst0h06Zl4Ro-202" target="qrLLP5ViFst0h06Zl4Ro-208" edge="1">
          <mxGeometry relative="1" as="geometry" />
        </mxCell>
        <mxCell id="qrLLP5ViFst0h06Zl4Ro-675" style="edgeStyle=orthogonalEdgeStyle;rounded=0;orthogonalLoop=1;jettySize=auto;html=1;exitX=0.5;exitY=1;exitDx=0;exitDy=0;entryX=0.5;entryY=0;entryDx=0;entryDy=0;strokeWidth=2;" parent="1" source="qrLLP5ViFst0h06Zl4Ro-202" target="qrLLP5ViFst0h06Zl4Ro-207" edge="1">
          <mxGeometry relative="1" as="geometry" />
        </mxCell>
        <mxCell id="qrLLP5ViFst0h06Zl4Ro-677" style="edgeStyle=orthogonalEdgeStyle;rounded=0;orthogonalLoop=1;jettySize=auto;html=1;exitX=0.5;exitY=1;exitDx=0;exitDy=0;entryX=0.5;entryY=0;entryDx=0;entryDy=0;strokeWidth=2;" parent="1" source="qrLLP5ViFst0h06Zl4Ro-202" target="qrLLP5ViFst0h06Zl4Ro-209" edge="1">
          <mxGeometry relative="1" as="geometry" />
        </mxCell>
        <mxCell id="qrLLP5ViFst0h06Zl4Ro-202" value="وحدة الحراسة والسّلامة &#xa;(إدارة فرعيّة)" style="rounded=1;fillColor=#23445D;gradientColor=none;strokeColor=none;fontColor=#FFFFFF;fontStyle=1;fontFamily=Tahoma;fontSize=13;" parent="1" vertex="1">
          <mxGeometry x="3300" y="563" width="190" height="57" as="geometry" />
        </mxCell>
        <mxCell id="qrLLP5ViFst0h06Zl4Ro-207" value="مصلحة&#xa; المراقبة بالفيديو" style="rounded=1;fillColor=#23445D;gradientColor=none;strokeColor=none;fontColor=#FFFFFF;fontStyle=1;fontFamily=Tahoma;fontSize=12;" parent="1" vertex="1">
          <mxGeometry x="3520" y="663.75" width="130" height="60" as="geometry" />
        </mxCell>
        <mxCell id="qrLLP5ViFst0h06Zl4Ro-208" value="مصلحة&#xa; الحراسة" style="rounded=1;fillColor=#23445D;gradientColor=none;strokeColor=none;fontColor=#FFFFFF;fontStyle=1;fontFamily=Tahoma;fontSize=12;" parent="1" vertex="1">
          <mxGeometry x="3330" y="663.75" width="130" height="60" as="geometry" />
        </mxCell>
        <mxCell id="qrLLP5ViFst0h06Zl4Ro-209" value="مصلحة&#xa; الوقاية والحماية" style="rounded=1;fillColor=#23445D;gradientColor=none;strokeColor=none;fontColor=#FFFFFF;fontStyle=1;fontFamily=Tahoma;fontSize=12;" parent="1" vertex="1">
          <mxGeometry x="3140" y="663.75" width="130" height="60" as="geometry" />
        </mxCell>
        <mxCell id="qrLLP5ViFst0h06Zl4Ro-242" style="edgeStyle=orthogonalEdgeStyle;rounded=0;orthogonalLoop=1;jettySize=auto;html=1;exitX=0;exitY=0.5;exitDx=0;exitDy=0;entryX=0;entryY=0.5;entryDx=0;entryDy=0;strokeWidth=2;" parent="1" edge="1">
          <mxGeometry relative="1" as="geometry">
            <mxPoint x="3337" y="755.5" as="sourcePoint" />
          </mxGeometry>
        </mxCell>
        <mxCell id="qrLLP5ViFst0h06Zl4Ro-258" value="مصلحة التّفقد&#xa; الإداري والمالي" style="rounded=1;fillColor=#23445D;gradientColor=none;strokeColor=none;fontColor=#FFFFFF;fontStyle=1;fontFamily=Tahoma;fontSize=12;" parent="1" vertex="1">
          <mxGeometry x="1540" y="664.75" width="129" height="60" as="geometry" />
        </mxCell>
        <mxCell id="qrLLP5ViFst0h06Zl4Ro-259" value="مصلحة التّفقد&#xa; التّقني" style="rounded=1;fillColor=#23445D;gradientColor=none;strokeColor=none;fontColor=#FFFFFF;fontStyle=1;fontFamily=Tahoma;fontSize=13;" parent="1" vertex="1">
          <mxGeometry x="1380" y="664.75" width="129" height="60" as="geometry" />
        </mxCell>
        <mxCell id="qrLLP5ViFst0h06Zl4Ro-268" value="مصلحة&#xa; الإتّصال والإعلام" style="rounded=1;fillColor=#23445D;gradientColor=none;strokeColor=none;fontColor=#FFFFFF;fontStyle=1;fontFamily=Tahoma;fontSize=12;" parent="1" vertex="1">
          <mxGeometry x="1219.5" y="664.75" width="129" height="60" as="geometry" />
        </mxCell>
        <mxCell id="qrLLP5ViFst0h06Zl4Ro-269" value="مكتب العلاقة&#xa; مع المواطن (مصلحة)" style="rounded=1;fillColor=#23445D;gradientColor=none;strokeColor=none;fontColor=#FFFFFF;fontStyle=1;fontFamily=Tahoma;fontSize=12;" parent="1" vertex="1">
          <mxGeometry x="1031" y="664.75" width="129" height="60" as="geometry" />
        </mxCell>
        <mxCell id="qrLLP5ViFst0h06Zl4Ro-672" style="edgeStyle=orthogonalEdgeStyle;rounded=0;orthogonalLoop=1;jettySize=auto;html=1;exitX=0.5;exitY=1;exitDx=0;exitDy=0;entryX=0.5;entryY=0;entryDx=0;entryDy=0;strokeWidth=2;" parent="1" source="qrLLP5ViFst0h06Zl4Ro-279" target="qrLLP5ViFst0h06Zl4Ro-281" edge="1">
          <mxGeometry relative="1" as="geometry" />
        </mxCell>
        <mxCell id="qrLLP5ViFst0h06Zl4Ro-673" style="edgeStyle=orthogonalEdgeStyle;rounded=0;orthogonalLoop=1;jettySize=auto;html=1;exitX=0.5;exitY=1;exitDx=0;exitDy=0;entryX=0.5;entryY=0;entryDx=0;entryDy=0;strokeWidth=2;" parent="1" source="qrLLP5ViFst0h06Zl4Ro-279" target="qrLLP5ViFst0h06Zl4Ro-280" edge="1">
          <mxGeometry relative="1" as="geometry" />
        </mxCell>
        <mxCell id="qrLLP5ViFst0h06Zl4Ro-279" value="الإدارة الفرعيّة&#xa; للتّوثيق والتصرّف&#xa; في الأرشيف" style="rounded=1;fillColor=#23445D;gradientColor=none;strokeColor=none;fontColor=#FFFFFF;fontStyle=1;fontFamily=Tahoma;fontSize=13;" parent="1" vertex="1">
          <mxGeometry x="1745" y="560" width="190" height="60" as="geometry" />
        </mxCell>
        <mxCell id="qrLLP5ViFst0h06Zl4Ro-280" value="مصلحة&#xa; المراقبة بالفيديو" style="rounded=1;fillColor=#23445D;gradientColor=none;strokeColor=none;fontColor=#FFFFFF;fontStyle=1;fontFamily=Tahoma;fontSize=12;" parent="1" vertex="1">
          <mxGeometry x="1680" y="660.25" width="130" height="60" as="geometry" />
        </mxCell>
        <mxCell id="qrLLP5ViFst0h06Zl4Ro-281" value="مصلحة&#xa; الحراسة" style="rounded=1;fillColor=#23445D;gradientColor=none;strokeColor=none;fontColor=#FFFFFF;fontStyle=1;fontFamily=Tahoma;fontSize=12;" parent="1" vertex="1">
          <mxGeometry x="1870" y="660.25" width="130" height="60" as="geometry" />
        </mxCell>
        <mxCell id="qrLLP5ViFst0h06Zl4Ro-313" style="edgeStyle=orthogonalEdgeStyle;rounded=0;orthogonalLoop=1;jettySize=auto;html=1;exitX=0.5;exitY=1;exitDx=0;exitDy=0;entryX=0.5;entryY=0;entryDx=0;entryDy=0;strokeWidth=2;" parent="1" source="qrLLP5ViFst0h06Zl4Ro-288" target="qrLLP5ViFst0h06Zl4Ro-289" edge="1">
          <mxGeometry relative="1" as="geometry" />
        </mxCell>
        <mxCell id="qrLLP5ViFst0h06Zl4Ro-314" style="edgeStyle=orthogonalEdgeStyle;rounded=0;orthogonalLoop=1;jettySize=auto;html=1;exitX=0.5;exitY=1;exitDx=0;exitDy=0;entryX=0.5;entryY=0;entryDx=0;entryDy=0;strokeWidth=2;" parent="1" source="qrLLP5ViFst0h06Zl4Ro-288" target="qrLLP5ViFst0h06Zl4Ro-312" edge="1">
          <mxGeometry relative="1" as="geometry" />
        </mxCell>
        <mxCell id="qrLLP5ViFst0h06Zl4Ro-288" value="إدارة&#xa; البحوث والدّراسات" style="rounded=1;fillColor=#23445D;gradientColor=none;strokeColor=none;fontColor=#FFFFFF;fontStyle=1;fontFamily=Tahoma;fontSize=12;" parent="1" vertex="1">
          <mxGeometry x="3953.5" y="900.25" width="130" height="60" as="geometry" />
        </mxCell>
        <mxCell id="qrLLP5ViFst0h06Zl4Ro-317" style="edgeStyle=orthogonalEdgeStyle;rounded=0;orthogonalLoop=1;jettySize=auto;html=1;exitX=1;exitY=0.5;exitDx=0;exitDy=0;entryX=1;entryY=0.5;entryDx=0;entryDy=0;strokeWidth=2;" parent="1" source="qrLLP5ViFst0h06Zl4Ro-289" target="qrLLP5ViFst0h06Zl4Ro-304" edge="1">
          <mxGeometry relative="1" as="geometry" />
        </mxCell>
        <mxCell id="qrLLP5ViFst0h06Zl4Ro-318" style="edgeStyle=orthogonalEdgeStyle;rounded=0;orthogonalLoop=1;jettySize=auto;html=1;exitX=1;exitY=0.5;exitDx=0;exitDy=0;entryX=1;entryY=0.5;entryDx=0;entryDy=0;strokeWidth=2;" parent="1" source="qrLLP5ViFst0h06Zl4Ro-289" target="qrLLP5ViFst0h06Zl4Ro-305" edge="1">
          <mxGeometry relative="1" as="geometry" />
        </mxCell>
        <mxCell id="qrLLP5ViFst0h06Zl4Ro-319" style="edgeStyle=orthogonalEdgeStyle;rounded=0;orthogonalLoop=1;jettySize=auto;html=1;exitX=1;exitY=0.5;exitDx=0;exitDy=0;entryX=1;entryY=0.5;entryDx=0;entryDy=0;strokeWidth=2;" parent="1" source="qrLLP5ViFst0h06Zl4Ro-289" target="qrLLP5ViFst0h06Zl4Ro-306" edge="1">
          <mxGeometry relative="1" as="geometry" />
        </mxCell>
        <mxCell id="qrLLP5ViFst0h06Zl4Ro-289" value="الإدارة الفرعيّة &#xa;لتنمية المنتوجات" style="rounded=1;fillColor=#23445D;gradientColor=none;strokeColor=none;fontColor=#FFFFFF;fontStyle=1;fontFamily=Tahoma;fontSize=12;" parent="1" vertex="1">
          <mxGeometry x="3831.5" y="1000.25" width="130" height="60" as="geometry" />
        </mxCell>
        <mxCell id="qrLLP5ViFst0h06Zl4Ro-302" value="مصلحة &#xa;التّطوير التّكنولوجي" style="rounded=1;fillColor=#23445D;gradientColor=none;strokeColor=none;fontColor=#FFFFFF;fontStyle=1;fontFamily=Tahoma;fontSize=12;" parent="1" vertex="1">
          <mxGeometry x="4051.5" y="1094.75" width="130" height="60" as="geometry" />
        </mxCell>
        <mxCell id="qrLLP5ViFst0h06Zl4Ro-303" value="مصلحة &#xa;برمجة الإستثمار" style="rounded=1;fillColor=#23445D;gradientColor=none;strokeColor=none;fontColor=#FFFFFF;fontStyle=1;fontFamily=Tahoma;fontSize=12;" parent="1" vertex="1">
          <mxGeometry x="4051.5" y="1184.75" width="130" height="60" as="geometry" />
        </mxCell>
        <mxCell id="qrLLP5ViFst0h06Zl4Ro-304" value="مصلحة&#xa; تأهيل المنتوجات" style="rounded=1;fillColor=#23445D;gradientColor=none;strokeColor=none;fontColor=#FFFFFF;fontStyle=1;fontFamily=Tahoma;fontSize=12;" parent="1" vertex="1">
          <mxGeometry x="3831.5" y="1095.25" width="130" height="60" as="geometry" />
        </mxCell>
        <mxCell id="qrLLP5ViFst0h06Zl4Ro-305" value="مصلحة &#xa;المعايير الفنيّة &#xa;للمواد والبضائع" style="rounded=1;fillColor=#23445D;gradientColor=none;strokeColor=none;fontColor=#FFFFFF;fontStyle=1;fontFamily=Tahoma;fontSize=12;" parent="1" vertex="1">
          <mxGeometry x="3831.5" y="1185.25" width="130" height="60" as="geometry" />
        </mxCell>
        <mxCell id="qrLLP5ViFst0h06Zl4Ro-306" value="مصلحة&#xa; اعداد المعايير الفنيّة&#xa; لمعدات الصناعية" style="rounded=1;fillColor=#23445D;gradientColor=none;strokeColor=none;fontColor=#FFFFFF;fontStyle=1;fontFamily=Tahoma;fontSize=12;" parent="1" vertex="1">
          <mxGeometry x="3831.5" y="1267.25" width="130" height="60" as="geometry" />
        </mxCell>
        <mxCell id="qrLLP5ViFst0h06Zl4Ro-321" style="edgeStyle=orthogonalEdgeStyle;rounded=0;orthogonalLoop=1;jettySize=auto;html=1;exitX=0;exitY=0.5;exitDx=0;exitDy=0;entryX=0;entryY=0.5;entryDx=0;entryDy=0;strokeWidth=2;" parent="1" source="qrLLP5ViFst0h06Zl4Ro-312" target="qrLLP5ViFst0h06Zl4Ro-320" edge="1">
          <mxGeometry relative="1" as="geometry" />
        </mxCell>
        <mxCell id="qrLLP5ViFst0h06Zl4Ro-322" style="edgeStyle=orthogonalEdgeStyle;rounded=0;orthogonalLoop=1;jettySize=auto;html=1;exitX=0;exitY=0.5;exitDx=0;exitDy=0;entryX=0;entryY=0.5;entryDx=0;entryDy=0;strokeWidth=2;" parent="1" source="qrLLP5ViFst0h06Zl4Ro-312" target="qrLLP5ViFst0h06Zl4Ro-302" edge="1">
          <mxGeometry relative="1" as="geometry" />
        </mxCell>
        <mxCell id="E77z-SEpHuwMJ6D2Hbxo-124" style="edgeStyle=orthogonalEdgeStyle;rounded=0;orthogonalLoop=1;jettySize=auto;html=1;exitX=0;exitY=0.5;exitDx=0;exitDy=0;entryX=0;entryY=0.5;entryDx=0;entryDy=0;" edge="1" parent="1" source="qrLLP5ViFst0h06Zl4Ro-312" target="qrLLP5ViFst0h06Zl4Ro-303">
          <mxGeometry relative="1" as="geometry" />
        </mxCell>
        <mxCell id="qrLLP5ViFst0h06Zl4Ro-312" value="الإدارة الفرعيّة &#xa;للتجديد وتعصير&#xa; مناهج الصنع" style="rounded=1;fillColor=#23445D;gradientColor=none;strokeColor=none;fontColor=#FFFFFF;fontStyle=1;fontFamily=Tahoma;fontSize=12;" parent="1" vertex="1">
          <mxGeometry x="4051.5" y="1000.25" width="130" height="60" as="geometry" />
        </mxCell>
        <mxCell id="qrLLP5ViFst0h06Zl4Ro-320" value="مصلحة &#xa;الرقي بالإنتاجيّة " style="rounded=1;fillColor=#23445D;gradientColor=none;strokeColor=none;fontColor=#FFFFFF;fontStyle=1;fontFamily=Tahoma;fontSize=12;" parent="1" vertex="1">
          <mxGeometry x="4051.5" y="1265.75" width="130" height="60" as="geometry" />
        </mxCell>
        <mxCell id="qrLLP5ViFst0h06Zl4Ro-325" style="edgeStyle=orthogonalEdgeStyle;rounded=0;orthogonalLoop=1;jettySize=auto;html=1;exitX=0.5;exitY=1;exitDx=0;exitDy=0;entryX=0.5;entryY=0;entryDx=0;entryDy=0;strokeWidth=2;" parent="1" source="qrLLP5ViFst0h06Zl4Ro-327" target="qrLLP5ViFst0h06Zl4Ro-331" edge="1">
          <mxGeometry relative="1" as="geometry" />
        </mxCell>
        <mxCell id="qrLLP5ViFst0h06Zl4Ro-326" style="edgeStyle=orthogonalEdgeStyle;rounded=0;orthogonalLoop=1;jettySize=auto;html=1;exitX=0.5;exitY=1;exitDx=0;exitDy=0;entryX=0.5;entryY=0;entryDx=0;entryDy=0;strokeWidth=2;" parent="1" source="qrLLP5ViFst0h06Zl4Ro-327" target="qrLLP5ViFst0h06Zl4Ro-341" edge="1">
          <mxGeometry relative="1" as="geometry" />
        </mxCell>
        <mxCell id="qrLLP5ViFst0h06Zl4Ro-327" value="إدارة&#xa; الشّؤون القانونيّة" style="rounded=1;fillColor=#23445D;gradientColor=none;strokeColor=none;fontColor=#FFFFFF;fontStyle=1;fontFamily=Tahoma;fontSize=12;" parent="1" vertex="1">
          <mxGeometry x="2690.5" y="900.25" width="130" height="60" as="geometry" />
        </mxCell>
        <mxCell id="qrLLP5ViFst0h06Zl4Ro-328" style="edgeStyle=orthogonalEdgeStyle;rounded=0;orthogonalLoop=1;jettySize=auto;html=1;exitX=1;exitY=0.5;exitDx=0;exitDy=0;entryX=1;entryY=0.5;entryDx=0;entryDy=0;strokeWidth=2;" parent="1" source="qrLLP5ViFst0h06Zl4Ro-331" target="qrLLP5ViFst0h06Zl4Ro-335" edge="1">
          <mxGeometry relative="1" as="geometry" />
        </mxCell>
        <mxCell id="qrLLP5ViFst0h06Zl4Ro-329" style="edgeStyle=orthogonalEdgeStyle;rounded=0;orthogonalLoop=1;jettySize=auto;html=1;exitX=1;exitY=0.5;exitDx=0;exitDy=0;entryX=1;entryY=0.5;entryDx=0;entryDy=0;strokeWidth=2;" parent="1" source="qrLLP5ViFst0h06Zl4Ro-331" target="qrLLP5ViFst0h06Zl4Ro-336" edge="1">
          <mxGeometry relative="1" as="geometry" />
        </mxCell>
        <mxCell id="qrLLP5ViFst0h06Zl4Ro-330" style="edgeStyle=orthogonalEdgeStyle;rounded=0;orthogonalLoop=1;jettySize=auto;html=1;exitX=1;exitY=0.5;exitDx=0;exitDy=0;entryX=1;entryY=0.5;entryDx=0;entryDy=0;strokeWidth=2;" parent="1" source="qrLLP5ViFst0h06Zl4Ro-331" target="qrLLP5ViFst0h06Zl4Ro-337" edge="1">
          <mxGeometry relative="1" as="geometry" />
        </mxCell>
        <mxCell id="qrLLP5ViFst0h06Zl4Ro-331" value="الإدارة &#xa;الفرعيّة للشؤون&#xa; العقاريّة وعقود التأمين" style="rounded=1;fillColor=#23445D;gradientColor=none;strokeColor=none;fontColor=#FFFFFF;fontStyle=1;fontFamily=Tahoma;fontSize=12;" parent="1" vertex="1">
          <mxGeometry x="2588.5" y="1000.25" width="130" height="60" as="geometry" />
        </mxCell>
        <mxCell id="qrLLP5ViFst0h06Zl4Ro-333" value="مصلحة&#xa; النزاعات الإداريّة" style="rounded=1;fillColor=#23445D;gradientColor=none;strokeColor=none;fontColor=#FFFFFF;fontStyle=1;fontFamily=Tahoma;fontSize=12;" parent="1" vertex="1">
          <mxGeometry x="2791.5" y="1094.25" width="130" height="60" as="geometry" />
        </mxCell>
        <mxCell id="qrLLP5ViFst0h06Zl4Ro-334" value="مصلحة النزاعات&#xa; العدليّة والتجاريّة" style="rounded=1;fillColor=#23445D;gradientColor=none;strokeColor=none;fontColor=#FFFFFF;fontStyle=1;fontFamily=Tahoma;fontSize=12;" parent="1" vertex="1">
          <mxGeometry x="2791.5" y="1184.25" width="130" height="60" as="geometry" />
        </mxCell>
        <mxCell id="qrLLP5ViFst0h06Zl4Ro-335" value="مصلحة&#xa; ابرام العقود" style="rounded=1;fillColor=#23445D;gradientColor=none;strokeColor=none;fontColor=#FFFFFF;fontStyle=1;fontFamily=Tahoma;fontSize=12;" parent="1" vertex="1">
          <mxGeometry x="2588.5" y="1094.75" width="130" height="60" as="geometry" />
        </mxCell>
        <mxCell id="qrLLP5ViFst0h06Zl4Ro-336" value="مصلحة&#xa;  الملفّات العقاريّة" style="rounded=1;fillColor=#23445D;gradientColor=none;strokeColor=none;fontColor=#FFFFFF;fontStyle=1;fontFamily=Tahoma;fontSize=12;" parent="1" vertex="1">
          <mxGeometry x="2588.5" y="1186.75" width="130" height="60" as="geometry" />
        </mxCell>
        <mxCell id="qrLLP5ViFst0h06Zl4Ro-337" value="مصلحة&#xa; عقود التأمين" style="rounded=1;fillColor=#23445D;gradientColor=none;strokeColor=none;fontColor=#FFFFFF;fontStyle=1;fontFamily=Tahoma;fontSize=12;" parent="1" vertex="1">
          <mxGeometry x="2588.5" y="1266.75" width="130" height="60" as="geometry" />
        </mxCell>
        <mxCell id="qrLLP5ViFst0h06Zl4Ro-338" value="" style="edgeStyle=elbowEdgeStyle;elbow=horizontal;strokeWidth=2;rounded=0;exitX=0;exitY=0.5;exitDx=0;exitDy=0;" parent="1" source="qrLLP5ViFst0h06Zl4Ro-341" target="qrLLP5ViFst0h06Zl4Ro-334" edge="1">
          <mxGeometry x="-23" y="135.5" width="100" height="100" as="geometry">
            <mxPoint x="2791.5" y="1177.75" as="sourcePoint" />
            <mxPoint x="1301.5" y="827.25" as="targetPoint" />
            <Array as="points">
              <mxPoint x="2771.5" y="1267.25" />
            </Array>
          </mxGeometry>
        </mxCell>
        <mxCell id="qrLLP5ViFst0h06Zl4Ro-339" style="edgeStyle=orthogonalEdgeStyle;rounded=0;orthogonalLoop=1;jettySize=auto;html=1;exitX=0;exitY=0.5;exitDx=0;exitDy=0;entryX=0;entryY=0.5;entryDx=0;entryDy=0;strokeWidth=2;" parent="1" source="qrLLP5ViFst0h06Zl4Ro-341" target="qrLLP5ViFst0h06Zl4Ro-342" edge="1">
          <mxGeometry relative="1" as="geometry" />
        </mxCell>
        <mxCell id="qrLLP5ViFst0h06Zl4Ro-340" style="edgeStyle=orthogonalEdgeStyle;rounded=0;orthogonalLoop=1;jettySize=auto;html=1;exitX=0;exitY=0.5;exitDx=0;exitDy=0;entryX=0;entryY=0.5;entryDx=0;entryDy=0;strokeWidth=2;" parent="1" source="qrLLP5ViFst0h06Zl4Ro-341" target="qrLLP5ViFst0h06Zl4Ro-333" edge="1">
          <mxGeometry relative="1" as="geometry" />
        </mxCell>
        <mxCell id="qrLLP5ViFst0h06Zl4Ro-341" value="الإدارة&#xa; الفرعيّة للنزاعات" style="rounded=1;fillColor=#23445D;gradientColor=none;strokeColor=none;fontColor=#FFFFFF;fontStyle=1;fontFamily=Tahoma;fontSize=12;" parent="1" vertex="1">
          <mxGeometry x="2791.5" y="1000.25" width="130" height="60" as="geometry" />
        </mxCell>
        <mxCell id="qrLLP5ViFst0h06Zl4Ro-342" value="مصلحة البحوث&#xa; والدّراسات القضائيّة" style="rounded=1;fillColor=#23445D;gradientColor=none;strokeColor=none;fontColor=#FFFFFF;fontStyle=1;fontFamily=Tahoma;fontSize=12;" parent="1" vertex="1">
          <mxGeometry x="2791.5" y="1265.25" width="130" height="60" as="geometry" />
        </mxCell>
        <mxCell id="qrLLP5ViFst0h06Zl4Ro-345" style="edgeStyle=orthogonalEdgeStyle;rounded=0;orthogonalLoop=1;jettySize=auto;html=1;exitX=0.5;exitY=1;exitDx=0;exitDy=0;entryX=0.5;entryY=0;entryDx=0;entryDy=0;strokeWidth=2;" parent="1" source="qrLLP5ViFst0h06Zl4Ro-347" target="qrLLP5ViFst0h06Zl4Ro-351" edge="1">
          <mxGeometry relative="1" as="geometry" />
        </mxCell>
        <mxCell id="qrLLP5ViFst0h06Zl4Ro-346" style="edgeStyle=orthogonalEdgeStyle;rounded=0;orthogonalLoop=1;jettySize=auto;html=1;exitX=0.5;exitY=1;exitDx=0;exitDy=0;entryX=0.5;entryY=0;entryDx=0;entryDy=0;strokeWidth=2;" parent="1" source="qrLLP5ViFst0h06Zl4Ro-347" target="qrLLP5ViFst0h06Zl4Ro-360" edge="1">
          <mxGeometry relative="1" as="geometry" />
        </mxCell>
        <mxCell id="qrLLP5ViFst0h06Zl4Ro-347" value="إدارة &#xa;مراقبة التّصرف" style="rounded=1;fillColor=#23445D;gradientColor=none;strokeColor=none;fontColor=#FFFFFF;fontStyle=1;fontFamily=Tahoma;fontSize=12;" parent="1" vertex="1">
          <mxGeometry x="3572.5" y="900.25" width="130" height="60" as="geometry" />
        </mxCell>
        <mxCell id="qrLLP5ViFst0h06Zl4Ro-348" style="edgeStyle=orthogonalEdgeStyle;rounded=0;orthogonalLoop=1;jettySize=auto;html=1;exitX=1;exitY=0.5;exitDx=0;exitDy=0;entryX=1;entryY=0.5;entryDx=0;entryDy=0;strokeWidth=2;" parent="1" source="qrLLP5ViFst0h06Zl4Ro-351" target="qrLLP5ViFst0h06Zl4Ro-354" edge="1">
          <mxGeometry relative="1" as="geometry" />
        </mxCell>
        <mxCell id="qrLLP5ViFst0h06Zl4Ro-349" style="edgeStyle=orthogonalEdgeStyle;rounded=0;orthogonalLoop=1;jettySize=auto;html=1;exitX=1;exitY=0.5;exitDx=0;exitDy=0;entryX=1;entryY=0.5;entryDx=0;entryDy=0;strokeWidth=2;" parent="1" source="qrLLP5ViFst0h06Zl4Ro-351" target="qrLLP5ViFst0h06Zl4Ro-355" edge="1">
          <mxGeometry relative="1" as="geometry" />
        </mxCell>
        <mxCell id="qrLLP5ViFst0h06Zl4Ro-350" style="edgeStyle=orthogonalEdgeStyle;rounded=0;orthogonalLoop=1;jettySize=auto;html=1;exitX=1;exitY=0.5;exitDx=0;exitDy=0;entryX=1;entryY=0.5;entryDx=0;entryDy=0;strokeWidth=2;" parent="1" source="qrLLP5ViFst0h06Zl4Ro-351" target="qrLLP5ViFst0h06Zl4Ro-356" edge="1">
          <mxGeometry relative="1" as="geometry" />
        </mxCell>
        <mxCell id="qrLLP5ViFst0h06Zl4Ro-814" style="edgeStyle=orthogonalEdgeStyle;rounded=0;orthogonalLoop=1;jettySize=auto;html=1;exitX=1;exitY=0.5;exitDx=0;exitDy=0;entryX=1;entryY=0.5;entryDx=0;entryDy=0;strokeWidth=2;" parent="1" source="qrLLP5ViFst0h06Zl4Ro-351" target="qrLLP5ViFst0h06Zl4Ro-813" edge="1">
          <mxGeometry relative="1" as="geometry" />
        </mxCell>
        <mxCell id="qrLLP5ViFst0h06Zl4Ro-351" value="الإدارة الفرعيّة &#xa;للمراقبة المسبقة" style="rounded=1;fillColor=#23445D;gradientColor=none;strokeColor=none;fontColor=#FFFFFF;fontStyle=1;fontFamily=Tahoma;fontSize=12;" parent="1" vertex="1">
          <mxGeometry x="3460.5" y="1000.25" width="130" height="60" as="geometry" />
        </mxCell>
        <mxCell id="qrLLP5ViFst0h06Zl4Ro-352" value="مصلحة &#xa;ميزانيّة التّصرف" style="rounded=1;fillColor=#23445D;gradientColor=none;strokeColor=none;fontColor=#FFFFFF;fontStyle=1;fontFamily=Tahoma;fontSize=12;" parent="1" vertex="1">
          <mxGeometry x="3680.5" y="1094.75" width="130" height="60" as="geometry" />
        </mxCell>
        <mxCell id="qrLLP5ViFst0h06Zl4Ro-353" value="مصلحة&#xa; ميزانيّة الاستثمار" style="rounded=1;fillColor=#23445D;gradientColor=none;strokeColor=none;fontColor=#FFFFFF;fontStyle=1;fontFamily=Tahoma;fontSize=12;" parent="1" vertex="1">
          <mxGeometry x="3680.5" y="1184.75" width="130" height="60" as="geometry" />
        </mxCell>
        <mxCell id="qrLLP5ViFst0h06Zl4Ro-354" value="مصلحة &#xa;التّأشير على كرّاسات &#xa;الشروط والصّفقات" style="rounded=1;fillColor=#23445D;gradientColor=none;strokeColor=none;fontColor=#FFFFFF;fontStyle=1;fontFamily=Tahoma;fontSize=12;" parent="1" vertex="1">
          <mxGeometry x="3460.5" y="1095.25" width="130" height="60" as="geometry" />
        </mxCell>
        <mxCell id="qrLLP5ViFst0h06Zl4Ro-355" value="مصلحة&#xa; التأشير على &#xa;الاستشارات والاذون&#xa; بالطلبيّة" style="rounded=1;fillColor=#23445D;gradientColor=none;strokeColor=none;fontColor=#FFFFFF;fontStyle=1;fontFamily=Tahoma;fontSize=12;" parent="1" vertex="1">
          <mxGeometry x="3460.5" y="1185.25" width="130" height="60" as="geometry" />
        </mxCell>
        <mxCell id="qrLLP5ViFst0h06Zl4Ro-356" value="مصلحة&#xa; التأشير على الاذون&#xa; بالصرف" style="rounded=1;fillColor=#23445D;gradientColor=none;strokeColor=none;fontColor=#FFFFFF;fontStyle=1;fontFamily=Tahoma;fontSize=12;" parent="1" vertex="1">
          <mxGeometry x="3460.5" y="1269.25" width="130" height="60" as="geometry" />
        </mxCell>
        <mxCell id="qrLLP5ViFst0h06Zl4Ro-357" value="" style="edgeStyle=elbowEdgeStyle;elbow=horizontal;strokeWidth=2;rounded=0;exitX=0;exitY=0.5;exitDx=0;exitDy=0;" parent="1" source="qrLLP5ViFst0h06Zl4Ro-360" target="qrLLP5ViFst0h06Zl4Ro-353" edge="1">
          <mxGeometry x="-23" y="135.5" width="100" height="100" as="geometry">
            <mxPoint x="3680.5" y="1178.25" as="sourcePoint" />
            <mxPoint x="2190.5" y="827.75" as="targetPoint" />
            <Array as="points">
              <mxPoint x="3660.5" y="1267.75" />
            </Array>
          </mxGeometry>
        </mxCell>
        <mxCell id="qrLLP5ViFst0h06Zl4Ro-358" style="edgeStyle=orthogonalEdgeStyle;rounded=0;orthogonalLoop=1;jettySize=auto;html=1;exitX=0;exitY=0.5;exitDx=0;exitDy=0;entryX=0;entryY=0.5;entryDx=0;entryDy=0;strokeWidth=2;" parent="1" source="qrLLP5ViFst0h06Zl4Ro-360" target="qrLLP5ViFst0h06Zl4Ro-361" edge="1">
          <mxGeometry relative="1" as="geometry" />
        </mxCell>
        <mxCell id="qrLLP5ViFst0h06Zl4Ro-359" style="edgeStyle=orthogonalEdgeStyle;rounded=0;orthogonalLoop=1;jettySize=auto;html=1;exitX=0;exitY=0.5;exitDx=0;exitDy=0;entryX=0;entryY=0.5;entryDx=0;entryDy=0;strokeWidth=2;" parent="1" source="qrLLP5ViFst0h06Zl4Ro-360" target="qrLLP5ViFst0h06Zl4Ro-352" edge="1">
          <mxGeometry relative="1" as="geometry" />
        </mxCell>
        <mxCell id="qrLLP5ViFst0h06Zl4Ro-363" style="edgeStyle=orthogonalEdgeStyle;rounded=0;orthogonalLoop=1;jettySize=auto;html=1;exitX=0;exitY=0.5;exitDx=0;exitDy=0;entryX=0;entryY=0.5;entryDx=0;entryDy=0;strokeWidth=2;" parent="1" source="qrLLP5ViFst0h06Zl4Ro-360" target="qrLLP5ViFst0h06Zl4Ro-362" edge="1">
          <mxGeometry relative="1" as="geometry" />
        </mxCell>
        <mxCell id="qrLLP5ViFst0h06Zl4Ro-360" value="الإدارة الفرعيّة&#xa; لاعداد الميزانيّة &#xa;ومتابعة تنفيذها" style="rounded=1;fillColor=#23445D;gradientColor=none;strokeColor=none;fontColor=#FFFFFF;fontStyle=1;fontFamily=Tahoma;fontSize=12;" parent="1" vertex="1">
          <mxGeometry x="3680.5" y="1000.25" width="130" height="60" as="geometry" />
        </mxCell>
        <mxCell id="qrLLP5ViFst0h06Zl4Ro-361" value="مصلحة &#xa;ميزانيّة السيولة" style="rounded=1;fillColor=#23445D;gradientColor=none;strokeColor=none;fontColor=#FFFFFF;fontStyle=1;fontFamily=Tahoma;fontSize=12;" parent="1" vertex="1">
          <mxGeometry x="3680.5" y="1265.75" width="130" height="60" as="geometry" />
        </mxCell>
        <mxCell id="qrLLP5ViFst0h06Zl4Ro-362" value="مصلحة &#xa;تقارير النشاط &#xa;ولوحة القيادة" style="rounded=1;fillColor=#23445D;gradientColor=none;strokeColor=none;fontColor=#FFFFFF;fontStyle=1;fontFamily=Tahoma;fontSize=12;" parent="1" vertex="1">
          <mxGeometry x="3680.5" y="1345.25" width="130" height="60" as="geometry" />
        </mxCell>
        <mxCell id="qrLLP5ViFst0h06Zl4Ro-368" style="edgeStyle=orthogonalEdgeStyle;rounded=0;orthogonalLoop=1;jettySize=auto;html=1;exitX=0.5;exitY=1;exitDx=0;exitDy=0;entryX=0.5;entryY=0;entryDx=0;entryDy=0;strokeWidth=2;" parent="1" source="qrLLP5ViFst0h06Zl4Ro-370" target="qrLLP5ViFst0h06Zl4Ro-374" edge="1">
          <mxGeometry relative="1" as="geometry" />
        </mxCell>
        <mxCell id="qrLLP5ViFst0h06Zl4Ro-369" style="edgeStyle=orthogonalEdgeStyle;rounded=0;orthogonalLoop=1;jettySize=auto;html=1;exitX=0.5;exitY=1;exitDx=0;exitDy=0;entryX=0.5;entryY=0;entryDx=0;entryDy=0;strokeWidth=2;" parent="1" source="qrLLP5ViFst0h06Zl4Ro-370" target="qrLLP5ViFst0h06Zl4Ro-384" edge="1">
          <mxGeometry relative="1" as="geometry" />
        </mxCell>
        <mxCell id="qrLLP5ViFst0h06Zl4Ro-811" style="edgeStyle=orthogonalEdgeStyle;rounded=0;orthogonalLoop=1;jettySize=auto;html=1;exitX=0.5;exitY=1;exitDx=0;exitDy=0;entryX=0.5;entryY=0;entryDx=0;entryDy=0;strokeWidth=2;" parent="1" source="qrLLP5ViFst0h06Zl4Ro-370" target="qrLLP5ViFst0h06Zl4Ro-388" edge="1">
          <mxGeometry relative="1" as="geometry" />
        </mxCell>
        <mxCell id="qrLLP5ViFst0h06Zl4Ro-812" style="edgeStyle=orthogonalEdgeStyle;rounded=0;orthogonalLoop=1;jettySize=auto;html=1;exitX=0.5;exitY=1;exitDx=0;exitDy=0;entryX=0.5;entryY=0;entryDx=0;entryDy=0;strokeWidth=2;" parent="1" source="qrLLP5ViFst0h06Zl4Ro-370" target="qrLLP5ViFst0h06Zl4Ro-389" edge="1">
          <mxGeometry relative="1" as="geometry" />
        </mxCell>
        <mxCell id="qrLLP5ViFst0h06Zl4Ro-370" value="إدارة &#xa;مراقبة الجودة" style="rounded=1;fillColor=#23445D;gradientColor=none;strokeColor=none;fontColor=#FFFFFF;fontStyle=1;fontFamily=Tahoma;fontSize=12;" parent="1" vertex="1">
          <mxGeometry x="3122.5" y="900.25" width="130" height="60" as="geometry" />
        </mxCell>
        <mxCell id="qrLLP5ViFst0h06Zl4Ro-371" style="edgeStyle=orthogonalEdgeStyle;rounded=0;orthogonalLoop=1;jettySize=auto;html=1;exitX=1;exitY=0.5;exitDx=0;exitDy=0;entryX=1;entryY=0.5;entryDx=0;entryDy=0;strokeWidth=2;" parent="1" source="qrLLP5ViFst0h06Zl4Ro-374" target="qrLLP5ViFst0h06Zl4Ro-377" edge="1">
          <mxGeometry relative="1" as="geometry" />
        </mxCell>
        <mxCell id="qrLLP5ViFst0h06Zl4Ro-372" style="edgeStyle=orthogonalEdgeStyle;rounded=0;orthogonalLoop=1;jettySize=auto;html=1;exitX=1;exitY=0.5;exitDx=0;exitDy=0;entryX=1;entryY=0.5;entryDx=0;entryDy=0;strokeWidth=2;" parent="1" source="qrLLP5ViFst0h06Zl4Ro-374" target="qrLLP5ViFst0h06Zl4Ro-378" edge="1">
          <mxGeometry relative="1" as="geometry" />
        </mxCell>
        <mxCell id="qrLLP5ViFst0h06Zl4Ro-374" value="الإدارة الفرعيّة&#xa; لمخابر الكيمياء" style="rounded=1;fillColor=#23445D;gradientColor=none;strokeColor=none;fontColor=#FFFFFF;fontStyle=1;fontFamily=Tahoma;fontSize=12;" parent="1" vertex="1">
          <mxGeometry x="2940.5" y="1000.25" width="130" height="60" as="geometry" />
        </mxCell>
        <mxCell id="qrLLP5ViFst0h06Zl4Ro-375" value="مصلحة&#xa; المراقبة الفيزيائية&#xa; لمواد الصنع" style="rounded=1;fillColor=#23445D;gradientColor=none;strokeColor=none;fontColor=#FFFFFF;fontStyle=1;fontFamily=Tahoma;fontSize=12;" parent="1" vertex="1">
          <mxGeometry x="3310.5" y="1094.75" width="130" height="60" as="geometry" />
        </mxCell>
        <mxCell id="qrLLP5ViFst0h06Zl4Ro-376" value="مصلحة&#xa; المراقبة الفيزيائية&#xa; للمنتوجات المصنعة" style="rounded=1;fillColor=#23445D;gradientColor=none;strokeColor=none;fontColor=#FFFFFF;fontStyle=1;fontFamily=Tahoma;fontSize=12;" parent="1" vertex="1">
          <mxGeometry x="3310.5" y="1184.75" width="130" height="60" as="geometry" />
        </mxCell>
        <mxCell id="qrLLP5ViFst0h06Zl4Ro-377" value="مصلحة&#xa; المراقبة الكيميائية &#xa;للمواد الاولية &#xa;والمستحضرات" style="rounded=1;fillColor=#23445D;gradientColor=none;strokeColor=none;fontColor=#FFFFFF;fontStyle=1;fontFamily=Tahoma;fontSize=12;" parent="1" vertex="1">
          <mxGeometry x="2940.5" y="1105.25" width="130" height="60" as="geometry" />
        </mxCell>
        <mxCell id="qrLLP5ViFst0h06Zl4Ro-378" value="مصلحة &#xa;المراقبة الكيميائية&#xa; للمنتوجات المصنعة" style="rounded=1;fillColor=#23445D;gradientColor=none;strokeColor=none;fontColor=#FFFFFF;fontStyle=1;fontFamily=Tahoma;fontSize=12;" parent="1" vertex="1">
          <mxGeometry x="2940.5" y="1195.25" width="130" height="60" as="geometry" />
        </mxCell>
        <mxCell id="qrLLP5ViFst0h06Zl4Ro-380" value="" style="edgeStyle=elbowEdgeStyle;elbow=horizontal;strokeWidth=2;rounded=0;exitX=0;exitY=0.5;exitDx=0;exitDy=0;" parent="1" source="qrLLP5ViFst0h06Zl4Ro-384" target="qrLLP5ViFst0h06Zl4Ro-376" edge="1">
          <mxGeometry x="-23" y="135.5" width="100" height="100" as="geometry">
            <mxPoint x="3310.5" y="1178.25" as="sourcePoint" />
            <mxPoint x="1820.5" y="827.75" as="targetPoint" />
            <Array as="points">
              <mxPoint x="3290.5" y="1267.75" />
            </Array>
          </mxGeometry>
        </mxCell>
        <mxCell id="qrLLP5ViFst0h06Zl4Ro-382" style="edgeStyle=orthogonalEdgeStyle;rounded=0;orthogonalLoop=1;jettySize=auto;html=1;exitX=0;exitY=0.5;exitDx=0;exitDy=0;entryX=0;entryY=0.5;entryDx=0;entryDy=0;strokeWidth=2;" parent="1" source="qrLLP5ViFst0h06Zl4Ro-384" target="qrLLP5ViFst0h06Zl4Ro-375" edge="1">
          <mxGeometry relative="1" as="geometry" />
        </mxCell>
        <mxCell id="qrLLP5ViFst0h06Zl4Ro-384" value="الإدارة الفرعيّة &#xa;لمخابر الفيزياء" style="rounded=1;fillColor=#23445D;gradientColor=none;strokeColor=none;fontColor=#FFFFFF;fontStyle=1;fontFamily=Tahoma;fontSize=12;" parent="1" vertex="1">
          <mxGeometry x="3310.5" y="1000.25" width="130" height="60" as="geometry" />
        </mxCell>
        <mxCell id="qrLLP5ViFst0h06Zl4Ro-388" value="مصلحة &#xa;صيانة الات المخابر" style="rounded=1;fillColor=#23445D;gradientColor=none;strokeColor=none;fontColor=#FFFFFF;fontStyle=1;fontFamily=Tahoma;fontSize=12;" parent="1" vertex="1">
          <mxGeometry x="3200" y="1277.5" width="130" height="60" as="geometry" />
        </mxCell>
        <mxCell id="qrLLP5ViFst0h06Zl4Ro-389" value="مصلحة&#xa; اعداد ومتابعة&#xa; تقارير مراقبة الجودة" style="rounded=1;fillColor=#23445D;gradientColor=none;strokeColor=none;fontColor=#FFFFFF;fontStyle=1;fontFamily=Tahoma;fontSize=12;" parent="1" vertex="1">
          <mxGeometry x="3048.5" y="1277.5" width="130" height="60" as="geometry" />
        </mxCell>
        <mxCell id="qrLLP5ViFst0h06Zl4Ro-714" style="edgeStyle=orthogonalEdgeStyle;rounded=0;orthogonalLoop=1;jettySize=auto;html=1;exitX=0.5;exitY=1;exitDx=0;exitDy=0;entryX=0.5;entryY=0;entryDx=0;entryDy=0;strokeWidth=2;" parent="1" source="qrLLP5ViFst0h06Zl4Ro-405" target="qrLLP5ViFst0h06Zl4Ro-418" edge="1">
          <mxGeometry relative="1" as="geometry" />
        </mxCell>
        <mxCell id="qrLLP5ViFst0h06Zl4Ro-715" style="edgeStyle=orthogonalEdgeStyle;rounded=0;orthogonalLoop=1;jettySize=auto;html=1;exitX=0.5;exitY=1;exitDx=0;exitDy=0;entryX=0.5;entryY=0;entryDx=0;entryDy=0;strokeWidth=2;" parent="1" source="qrLLP5ViFst0h06Zl4Ro-405" target="qrLLP5ViFst0h06Zl4Ro-566" edge="1">
          <mxGeometry relative="1" as="geometry" />
        </mxCell>
        <mxCell id="qrLLP5ViFst0h06Zl4Ro-716" style="edgeStyle=orthogonalEdgeStyle;rounded=0;orthogonalLoop=1;jettySize=auto;html=1;exitX=0.5;exitY=1;exitDx=0;exitDy=0;entryX=0.5;entryY=0;entryDx=0;entryDy=0;strokeWidth=2;" parent="1" source="qrLLP5ViFst0h06Zl4Ro-405" target="qrLLP5ViFst0h06Zl4Ro-409" edge="1">
          <mxGeometry relative="1" as="geometry" />
        </mxCell>
        <mxCell id="qrLLP5ViFst0h06Zl4Ro-405" value="إدارة&#xa; الورشات الملحقة" style="rounded=1;fillColor=#23445D;gradientColor=none;strokeColor=none;fontColor=#FFFFFF;fontStyle=1;fontFamily=Tahoma;fontSize=12;" parent="1" vertex="1">
          <mxGeometry x="2221" y="897.5" width="130" height="60" as="geometry" />
        </mxCell>
        <mxCell id="qrLLP5ViFst0h06Zl4Ro-406" style="edgeStyle=orthogonalEdgeStyle;rounded=0;orthogonalLoop=1;jettySize=auto;html=1;exitX=1;exitY=0.5;exitDx=0;exitDy=0;entryX=1;entryY=0.5;entryDx=0;entryDy=0;strokeWidth=2;" parent="1" source="qrLLP5ViFst0h06Zl4Ro-409" target="qrLLP5ViFst0h06Zl4Ro-412" edge="1">
          <mxGeometry relative="1" as="geometry" />
        </mxCell>
        <mxCell id="qrLLP5ViFst0h06Zl4Ro-407" style="edgeStyle=orthogonalEdgeStyle;rounded=0;orthogonalLoop=1;jettySize=auto;html=1;exitX=1;exitY=0.5;exitDx=0;exitDy=0;entryX=1;entryY=0.5;entryDx=0;entryDy=0;strokeWidth=2;" parent="1" source="qrLLP5ViFst0h06Zl4Ro-409" target="qrLLP5ViFst0h06Zl4Ro-413" edge="1">
          <mxGeometry relative="1" as="geometry" />
        </mxCell>
        <mxCell id="qrLLP5ViFst0h06Zl4Ro-408" style="edgeStyle=orthogonalEdgeStyle;rounded=0;orthogonalLoop=1;jettySize=auto;html=1;exitX=1;exitY=0.5;exitDx=0;exitDy=0;entryX=1;entryY=0.5;entryDx=0;entryDy=0;strokeWidth=2;" parent="1" source="qrLLP5ViFst0h06Zl4Ro-409" target="qrLLP5ViFst0h06Zl4Ro-414" edge="1">
          <mxGeometry relative="1" as="geometry" />
        </mxCell>
        <mxCell id="qrLLP5ViFst0h06Zl4Ro-570" style="edgeStyle=orthogonalEdgeStyle;rounded=0;orthogonalLoop=1;jettySize=auto;html=1;exitX=1;exitY=0.5;exitDx=0;exitDy=0;entryX=1;entryY=0.5;entryDx=0;entryDy=0;strokeWidth=2;" parent="1" source="qrLLP5ViFst0h06Zl4Ro-409" target="qrLLP5ViFst0h06Zl4Ro-569" edge="1">
          <mxGeometry relative="1" as="geometry" />
        </mxCell>
        <mxCell id="qrLLP5ViFst0h06Zl4Ro-409" value="الإدارة الفرعيّة &#xa;للتّجهيزات &#xa;والشّبكات الكهربائيّة" style="rounded=1;fillColor=#23445D;gradientColor=none;strokeColor=none;fontColor=#FFFFFF;fontStyle=1;fontFamily=Tahoma;fontSize=12;" parent="1" vertex="1">
          <mxGeometry x="2011" y="997.5" width="130" height="60" as="geometry" />
        </mxCell>
        <mxCell id="qrLLP5ViFst0h06Zl4Ro-410" value="مصلحة&#xa; صيانة البناءات" style="rounded=1;fillColor=#23445D;gradientColor=none;strokeColor=none;fontColor=#FFFFFF;fontStyle=1;fontFamily=Tahoma;fontSize=12;" parent="1" vertex="1">
          <mxGeometry x="2221" y="1087" width="130" height="60" as="geometry" />
        </mxCell>
        <mxCell id="qrLLP5ViFst0h06Zl4Ro-411" value="مصلحة&#xa;ورشة النّجارة" style="rounded=1;fillColor=#23445D;gradientColor=none;strokeColor=none;fontColor=#FFFFFF;fontStyle=1;fontFamily=Tahoma;fontSize=12;" parent="1" vertex="1">
          <mxGeometry x="2221" y="1176" width="130" height="60" as="geometry" />
        </mxCell>
        <mxCell id="qrLLP5ViFst0h06Zl4Ro-412" value="مصلحة&#xa; المراجل والبخار" style="rounded=1;fillColor=#23445D;gradientColor=none;strokeColor=none;fontColor=#FFFFFF;fontStyle=1;fontFamily=Tahoma;fontSize=12;" parent="1" vertex="1">
          <mxGeometry x="2011" y="1087" width="130" height="60" as="geometry" />
        </mxCell>
        <mxCell id="qrLLP5ViFst0h06Zl4Ro-413" value="مصلحة &#xa;الكهرباء  الصناعيّة" style="rounded=1;fillColor=#23445D;gradientColor=none;strokeColor=none;fontColor=#FFFFFF;fontStyle=1;fontFamily=Tahoma;fontSize=12;" parent="1" vertex="1">
          <mxGeometry x="2011" y="1176" width="130" height="60" as="geometry" />
        </mxCell>
        <mxCell id="qrLLP5ViFst0h06Zl4Ro-414" value="مصلحة&#xa; التّكييف" style="rounded=1;fillColor=#23445D;gradientColor=none;strokeColor=none;fontColor=#FFFFFF;fontStyle=1;fontFamily=Tahoma;fontSize=12;" parent="1" vertex="1">
          <mxGeometry x="2011" y="1258" width="130" height="60" as="geometry" />
        </mxCell>
        <mxCell id="qrLLP5ViFst0h06Zl4Ro-558" style="edgeStyle=orthogonalEdgeStyle;rounded=0;orthogonalLoop=1;jettySize=auto;html=1;exitX=0;exitY=0.5;exitDx=0;exitDy=0;entryX=0;entryY=0.5;entryDx=0;entryDy=0;strokeWidth=2;" parent="1" source="qrLLP5ViFst0h06Zl4Ro-418" target="qrLLP5ViFst0h06Zl4Ro-410" edge="1">
          <mxGeometry relative="1" as="geometry" />
        </mxCell>
        <mxCell id="qrLLP5ViFst0h06Zl4Ro-559" style="edgeStyle=orthogonalEdgeStyle;rounded=0;orthogonalLoop=1;jettySize=auto;html=1;exitX=0;exitY=0.5;exitDx=0;exitDy=0;entryX=0;entryY=0.5;entryDx=0;entryDy=0;strokeWidth=2;" parent="1" source="qrLLP5ViFst0h06Zl4Ro-418" target="qrLLP5ViFst0h06Zl4Ro-411" edge="1">
          <mxGeometry relative="1" as="geometry" />
        </mxCell>
        <mxCell id="qrLLP5ViFst0h06Zl4Ro-560" style="edgeStyle=orthogonalEdgeStyle;rounded=0;orthogonalLoop=1;jettySize=auto;html=1;exitX=0;exitY=0.5;exitDx=0;exitDy=0;entryX=0;entryY=0.5;entryDx=0;entryDy=0;strokeWidth=2;" parent="1" source="qrLLP5ViFst0h06Zl4Ro-418" target="qrLLP5ViFst0h06Zl4Ro-419" edge="1">
          <mxGeometry relative="1" as="geometry" />
        </mxCell>
        <mxCell id="qrLLP5ViFst0h06Zl4Ro-572" style="edgeStyle=orthogonalEdgeStyle;rounded=0;orthogonalLoop=1;jettySize=auto;html=1;exitX=0;exitY=0.5;exitDx=0;exitDy=0;entryX=0;entryY=0.5;entryDx=0;entryDy=0;strokeWidth=2;" parent="1" source="qrLLP5ViFst0h06Zl4Ro-418" target="qrLLP5ViFst0h06Zl4Ro-571" edge="1">
          <mxGeometry relative="1" as="geometry" />
        </mxCell>
        <mxCell id="qrLLP5ViFst0h06Zl4Ro-418" value="الإدارة الفرعيّة&#xa; للهندسة المدنيّة" style="rounded=1;fillColor=#23445D;gradientColor=none;strokeColor=none;fontColor=#FFFFFF;fontStyle=1;fontFamily=Tahoma;fontSize=12;" parent="1" vertex="1">
          <mxGeometry x="2221" y="997.5" width="130" height="60" as="geometry" />
        </mxCell>
        <mxCell id="qrLLP5ViFst0h06Zl4Ro-419" value="مصلحة&#xa; الكهرباء  العامّة" style="rounded=1;fillColor=#23445D;gradientColor=none;strokeColor=none;fontColor=#FFFFFF;fontStyle=1;fontFamily=Tahoma;fontSize=12;" parent="1" vertex="1">
          <mxGeometry x="2221" y="1258" width="130" height="60" as="geometry" />
        </mxCell>
        <mxCell id="qrLLP5ViFst0h06Zl4Ro-717" style="edgeStyle=orthogonalEdgeStyle;rounded=0;orthogonalLoop=1;jettySize=auto;html=1;exitX=0.5;exitY=1;exitDx=0;exitDy=0;entryX=0.5;entryY=0;entryDx=0;entryDy=0;strokeWidth=2;" parent="1" source="qrLLP5ViFst0h06Zl4Ro-422" target="qrLLP5ViFst0h06Zl4Ro-590" edge="1">
          <mxGeometry relative="1" as="geometry" />
        </mxCell>
        <mxCell id="qrLLP5ViFst0h06Zl4Ro-718" style="edgeStyle=orthogonalEdgeStyle;rounded=0;orthogonalLoop=1;jettySize=auto;html=1;exitX=0.5;exitY=1;exitDx=0;exitDy=0;entryX=0.5;entryY=0;entryDx=0;entryDy=0;strokeWidth=2;" parent="1" source="qrLLP5ViFst0h06Zl4Ro-422" target="qrLLP5ViFst0h06Zl4Ro-598" edge="1">
          <mxGeometry relative="1" as="geometry" />
        </mxCell>
        <mxCell id="qrLLP5ViFst0h06Zl4Ro-719" style="edgeStyle=orthogonalEdgeStyle;rounded=0;orthogonalLoop=1;jettySize=auto;html=1;exitX=0.5;exitY=1;exitDx=0;exitDy=0;entryX=0.5;entryY=0;entryDx=0;entryDy=0;strokeWidth=2;" parent="1" source="qrLLP5ViFst0h06Zl4Ro-422" target="qrLLP5ViFst0h06Zl4Ro-580" edge="1">
          <mxGeometry relative="1" as="geometry" />
        </mxCell>
        <mxCell id="qrLLP5ViFst0h06Zl4Ro-422" value="إدارة &#xa;الإنتاج بالمصنع &quot;أ&quot;" style="rounded=1;fillColor=#23445D;gradientColor=none;strokeColor=none;fontColor=#FFFFFF;fontStyle=1;fontFamily=Tahoma;fontSize=12;" parent="1" vertex="1">
          <mxGeometry x="1672" y="897.5" width="130" height="60" as="geometry" />
        </mxCell>
        <mxCell id="qrLLP5ViFst0h06Zl4Ro-721" style="edgeStyle=orthogonalEdgeStyle;rounded=0;orthogonalLoop=1;jettySize=auto;html=1;exitX=0.5;exitY=1;exitDx=0;exitDy=0;entryX=0.5;entryY=0;entryDx=0;entryDy=0;strokeWidth=2;" parent="1" source="qrLLP5ViFst0h06Zl4Ro-439" target="qrLLP5ViFst0h06Zl4Ro-621" edge="1">
          <mxGeometry relative="1" as="geometry" />
        </mxCell>
        <mxCell id="qrLLP5ViFst0h06Zl4Ro-722" style="edgeStyle=orthogonalEdgeStyle;rounded=0;orthogonalLoop=1;jettySize=auto;html=1;exitX=0.5;exitY=1;exitDx=0;exitDy=0;entryX=0.5;entryY=0;entryDx=0;entryDy=0;strokeWidth=2;" parent="1" source="qrLLP5ViFst0h06Zl4Ro-439" target="qrLLP5ViFst0h06Zl4Ro-629" edge="1">
          <mxGeometry relative="1" as="geometry" />
        </mxCell>
        <mxCell id="qrLLP5ViFst0h06Zl4Ro-723" style="edgeStyle=orthogonalEdgeStyle;rounded=0;orthogonalLoop=1;jettySize=auto;html=1;exitX=0.5;exitY=1;exitDx=0;exitDy=0;entryX=0.5;entryY=0;entryDx=0;entryDy=0;strokeWidth=2;" parent="1" source="qrLLP5ViFst0h06Zl4Ro-439" target="qrLLP5ViFst0h06Zl4Ro-611" edge="1">
          <mxGeometry relative="1" as="geometry" />
        </mxCell>
        <mxCell id="qrLLP5ViFst0h06Zl4Ro-439" value="إدارة&#xa; الانتاج بالمصنع &quot;ب&quot;" style="rounded=1;fillColor=#23445D;gradientColor=none;strokeColor=none;fontColor=#FFFFFF;fontStyle=1;fontFamily=Tahoma;fontSize=12;" parent="1" vertex="1">
          <mxGeometry x="1131" y="897.5" width="130" height="60" as="geometry" />
        </mxCell>
        <mxCell id="qrLLP5ViFst0h06Zl4Ro-724" style="edgeStyle=orthogonalEdgeStyle;rounded=0;orthogonalLoop=1;jettySize=auto;html=1;exitX=0.5;exitY=1;exitDx=0;exitDy=0;entryX=0.5;entryY=0;entryDx=0;entryDy=0;strokeWidth=2;" parent="1" source="qrLLP5ViFst0h06Zl4Ro-461" target="qrLLP5ViFst0h06Zl4Ro-652" edge="1">
          <mxGeometry relative="1" as="geometry" />
        </mxCell>
        <mxCell id="qrLLP5ViFst0h06Zl4Ro-725" style="edgeStyle=orthogonalEdgeStyle;rounded=0;orthogonalLoop=1;jettySize=auto;html=1;exitX=0.5;exitY=1;exitDx=0;exitDy=0;entryX=0.5;entryY=0;entryDx=0;entryDy=0;strokeWidth=2;" parent="1" source="qrLLP5ViFst0h06Zl4Ro-461" target="qrLLP5ViFst0h06Zl4Ro-660" edge="1">
          <mxGeometry relative="1" as="geometry" />
        </mxCell>
        <mxCell id="qrLLP5ViFst0h06Zl4Ro-726" style="edgeStyle=orthogonalEdgeStyle;rounded=0;orthogonalLoop=1;jettySize=auto;html=1;exitX=0.5;exitY=1;exitDx=0;exitDy=0;entryX=0.5;entryY=0;entryDx=0;entryDy=0;strokeWidth=2;" parent="1" source="qrLLP5ViFst0h06Zl4Ro-461" target="qrLLP5ViFst0h06Zl4Ro-642" edge="1">
          <mxGeometry relative="1" as="geometry" />
        </mxCell>
        <mxCell id="qrLLP5ViFst0h06Zl4Ro-461" value="إدارة&#xa; الاعلامية" style="rounded=1;fillColor=#23445D;gradientColor=none;strokeColor=none;fontColor=#FFFFFF;fontStyle=1;fontFamily=Tahoma;fontSize=12;" parent="1" vertex="1">
          <mxGeometry x="622" y="897.5" width="130" height="60" as="geometry" />
        </mxCell>
        <mxCell id="qrLLP5ViFst0h06Zl4Ro-871" style="edgeStyle=orthogonalEdgeStyle;rounded=0;orthogonalLoop=1;jettySize=auto;html=1;exitX=0.5;exitY=1;exitDx=0;exitDy=0;entryX=0.5;entryY=0;entryDx=0;entryDy=0;strokeWidth=2;" parent="1" source="qrLLP5ViFst0h06Zl4Ro-485" target="qrLLP5ViFst0h06Zl4Ro-765" edge="1">
          <mxGeometry relative="1" as="geometry" />
        </mxCell>
        <mxCell id="qrLLP5ViFst0h06Zl4Ro-872" style="edgeStyle=orthogonalEdgeStyle;rounded=0;orthogonalLoop=1;jettySize=auto;html=1;exitX=0.5;exitY=1;exitDx=0;exitDy=0;entryX=0.5;entryY=0;entryDx=0;entryDy=0;strokeWidth=2;" parent="1" source="qrLLP5ViFst0h06Zl4Ro-485" target="qrLLP5ViFst0h06Zl4Ro-770" edge="1">
          <mxGeometry relative="1" as="geometry" />
        </mxCell>
        <mxCell id="qrLLP5ViFst0h06Zl4Ro-873" style="edgeStyle=orthogonalEdgeStyle;rounded=0;orthogonalLoop=1;jettySize=auto;html=1;exitX=0.5;exitY=1;exitDx=0;exitDy=0;entryX=0.5;entryY=0;entryDx=0;entryDy=0;strokeWidth=2;" parent="1" source="qrLLP5ViFst0h06Zl4Ro-485" target="qrLLP5ViFst0h06Zl4Ro-758" edge="1">
          <mxGeometry relative="1" as="geometry" />
        </mxCell>
        <mxCell id="qrLLP5ViFst0h06Zl4Ro-485" value="إدارة&#xa; المحاسبة والماليّة" style="rounded=1;fillColor=#23445D;gradientColor=none;strokeColor=none;fontColor=#FFFFFF;fontStyle=1;fontFamily=Tahoma;fontSize=12;" parent="1" vertex="1">
          <mxGeometry x="3556.5" y="1590.25" width="130" height="58" as="geometry" />
        </mxCell>
        <mxCell id="qrLLP5ViFst0h06Zl4Ro-864" style="edgeStyle=orthogonalEdgeStyle;rounded=0;orthogonalLoop=1;jettySize=auto;html=1;exitX=0.5;exitY=1;exitDx=0;exitDy=0;entryX=0.5;entryY=0;entryDx=0;entryDy=0;strokeWidth=2;" parent="1" source="qrLLP5ViFst0h06Zl4Ro-502" target="qrLLP5ViFst0h06Zl4Ro-854" edge="1">
          <mxGeometry relative="1" as="geometry" />
        </mxCell>
        <mxCell id="qrLLP5ViFst0h06Zl4Ro-865" style="edgeStyle=orthogonalEdgeStyle;rounded=0;orthogonalLoop=1;jettySize=auto;html=1;exitX=0.5;exitY=1;exitDx=0;exitDy=0;entryX=0.5;entryY=0;entryDx=0;entryDy=0;strokeWidth=2;" parent="1" source="qrLLP5ViFst0h06Zl4Ro-502" target="qrLLP5ViFst0h06Zl4Ro-860" edge="1">
          <mxGeometry relative="1" as="geometry" />
        </mxCell>
        <mxCell id="qrLLP5ViFst0h06Zl4Ro-866" style="edgeStyle=orthogonalEdgeStyle;rounded=0;orthogonalLoop=1;jettySize=auto;html=1;exitX=0.5;exitY=1;exitDx=0;exitDy=0;entryX=0.5;entryY=0;entryDx=0;entryDy=0;strokeWidth=2;" parent="1" source="qrLLP5ViFst0h06Zl4Ro-502" target="qrLLP5ViFst0h06Zl4Ro-846" edge="1">
          <mxGeometry relative="1" as="geometry" />
        </mxCell>
        <mxCell id="qrLLP5ViFst0h06Zl4Ro-502" value="إدارة &#xa;التّصرف في &#xa;الموارد البشريّة" style="rounded=1;fillColor=#23445D;gradientColor=none;strokeColor=none;fontColor=#FFFFFF;fontStyle=1;fontFamily=Tahoma;fontSize=12;" parent="1" vertex="1">
          <mxGeometry x="3022.5" y="1590.25" width="130" height="58" as="geometry" />
        </mxCell>
        <mxCell id="qrLLP5ViFst0h06Zl4Ro-839" style="edgeStyle=orthogonalEdgeStyle;rounded=0;orthogonalLoop=1;jettySize=auto;html=1;exitX=0.5;exitY=1;exitDx=0;exitDy=0;entryX=0.5;entryY=0;entryDx=0;entryDy=0;strokeWidth=2;" parent="1" source="qrLLP5ViFst0h06Zl4Ro-519" target="qrLLP5ViFst0h06Zl4Ro-827" edge="1">
          <mxGeometry relative="1" as="geometry" />
        </mxCell>
        <mxCell id="qrLLP5ViFst0h06Zl4Ro-840" style="edgeStyle=orthogonalEdgeStyle;rounded=0;orthogonalLoop=1;jettySize=auto;html=1;exitX=0.5;exitY=1;exitDx=0;exitDy=0;strokeWidth=2;" parent="1" source="qrLLP5ViFst0h06Zl4Ro-519" target="qrLLP5ViFst0h06Zl4Ro-832" edge="1">
          <mxGeometry relative="1" as="geometry" />
        </mxCell>
        <mxCell id="qrLLP5ViFst0h06Zl4Ro-841" style="edgeStyle=orthogonalEdgeStyle;rounded=0;orthogonalLoop=1;jettySize=auto;html=1;exitX=0.5;exitY=1;exitDx=0;exitDy=0;entryX=0.5;entryY=0;entryDx=0;entryDy=0;strokeWidth=2;" parent="1" source="qrLLP5ViFst0h06Zl4Ro-519" target="qrLLP5ViFst0h06Zl4Ro-820" edge="1">
          <mxGeometry relative="1" as="geometry" />
        </mxCell>
        <mxCell id="qrLLP5ViFst0h06Zl4Ro-519" value="إدارة&#xa; التزوّد" style="rounded=1;fillColor=#23445D;gradientColor=none;strokeColor=none;fontColor=#FFFFFF;fontStyle=1;fontFamily=Tahoma;fontSize=12;" parent="1" vertex="1">
          <mxGeometry x="2496.5" y="1590.25" width="130" height="58" as="geometry" />
        </mxCell>
        <mxCell id="qrLLP5ViFst0h06Zl4Ro-898" style="edgeStyle=orthogonalEdgeStyle;rounded=0;orthogonalLoop=1;jettySize=auto;html=1;exitX=0.5;exitY=1;exitDx=0;exitDy=0;entryX=0.5;entryY=0;entryDx=0;entryDy=0;strokeWidth=2;" parent="1" source="qrLLP5ViFst0h06Zl4Ro-541" target="qrLLP5ViFst0h06Zl4Ro-888" edge="1">
          <mxGeometry relative="1" as="geometry" />
        </mxCell>
        <mxCell id="qrLLP5ViFst0h06Zl4Ro-899" style="edgeStyle=orthogonalEdgeStyle;rounded=0;orthogonalLoop=1;jettySize=auto;html=1;exitX=0.5;exitY=1;exitDx=0;exitDy=0;entryX=0.5;entryY=0;entryDx=0;entryDy=0;strokeWidth=2;" parent="1" source="qrLLP5ViFst0h06Zl4Ro-541" target="qrLLP5ViFst0h06Zl4Ro-894" edge="1">
          <mxGeometry relative="1" as="geometry" />
        </mxCell>
        <mxCell id="qrLLP5ViFst0h06Zl4Ro-900" style="edgeStyle=orthogonalEdgeStyle;rounded=0;orthogonalLoop=1;jettySize=auto;html=1;exitX=0.5;exitY=1;exitDx=0;exitDy=0;entryX=0.5;entryY=0;entryDx=0;entryDy=0;strokeWidth=2;" parent="1" source="qrLLP5ViFst0h06Zl4Ro-541" target="qrLLP5ViFst0h06Zl4Ro-880" edge="1">
          <mxGeometry relative="1" as="geometry" />
        </mxCell>
        <mxCell id="qrLLP5ViFst0h06Zl4Ro-541" value="إدارة &#xa;البيوعات" style="rounded=1;fillColor=#23445D;gradientColor=none;strokeColor=none;fontColor=#FFFFFF;fontStyle=1;fontFamily=Tahoma;fontSize=12;" parent="1" vertex="1">
          <mxGeometry x="1966.5" y="1590.25" width="130" height="58" as="geometry" />
        </mxCell>
        <mxCell id="qrLLP5ViFst0h06Zl4Ro-561" value="مصلحة &#xa;مآرب السّيارات" style="rounded=1;fillColor=#23445D;gradientColor=none;strokeColor=none;fontColor=#FFFFFF;fontStyle=1;fontFamily=Tahoma;fontSize=12;" parent="1" vertex="1">
          <mxGeometry x="2391" y="1087" width="130" height="60" as="geometry" />
        </mxCell>
        <mxCell id="qrLLP5ViFst0h06Zl4Ro-562" value="مصلحة &#xa;وسائل الشّحن&#xa; والتّرصيف" style="rounded=1;fillColor=#23445D;gradientColor=none;strokeColor=none;fontColor=#FFFFFF;fontStyle=1;fontFamily=Tahoma;fontSize=12;" parent="1" vertex="1">
          <mxGeometry x="2391" y="1176" width="130" height="60" as="geometry" />
        </mxCell>
        <mxCell id="qrLLP5ViFst0h06Zl4Ro-563" style="edgeStyle=orthogonalEdgeStyle;rounded=0;orthogonalLoop=1;jettySize=auto;html=1;exitX=0;exitY=0.5;exitDx=0;exitDy=0;entryX=0;entryY=0.5;entryDx=0;entryDy=0;strokeWidth=2;" parent="1" source="qrLLP5ViFst0h06Zl4Ro-566" target="qrLLP5ViFst0h06Zl4Ro-561" edge="1">
          <mxGeometry relative="1" as="geometry" />
        </mxCell>
        <mxCell id="qrLLP5ViFst0h06Zl4Ro-564" style="edgeStyle=orthogonalEdgeStyle;rounded=0;orthogonalLoop=1;jettySize=auto;html=1;exitX=0;exitY=0.5;exitDx=0;exitDy=0;entryX=0;entryY=0.5;entryDx=0;entryDy=0;strokeWidth=2;" parent="1" source="qrLLP5ViFst0h06Zl4Ro-566" target="qrLLP5ViFst0h06Zl4Ro-562" edge="1">
          <mxGeometry relative="1" as="geometry" />
        </mxCell>
        <mxCell id="qrLLP5ViFst0h06Zl4Ro-565" style="edgeStyle=orthogonalEdgeStyle;rounded=0;orthogonalLoop=1;jettySize=auto;html=1;exitX=0;exitY=0.5;exitDx=0;exitDy=0;entryX=0;entryY=0.5;entryDx=0;entryDy=0;strokeWidth=2;" parent="1" source="qrLLP5ViFst0h06Zl4Ro-566" target="qrLLP5ViFst0h06Zl4Ro-567" edge="1">
          <mxGeometry relative="1" as="geometry" />
        </mxCell>
        <mxCell id="E77z-SEpHuwMJ6D2Hbxo-123" style="edgeStyle=orthogonalEdgeStyle;rounded=0;orthogonalLoop=1;jettySize=auto;html=1;exitX=0;exitY=0.5;exitDx=0;exitDy=0;entryX=0;entryY=0.5;entryDx=0;entryDy=0;" edge="1" parent="1" source="qrLLP5ViFst0h06Zl4Ro-566" target="qrLLP5ViFst0h06Zl4Ro-573">
          <mxGeometry relative="1" as="geometry" />
        </mxCell>
        <mxCell id="qrLLP5ViFst0h06Zl4Ro-566" value="الإدارة الفرعيّة &#xa;للّوجيستيك" style="rounded=1;fillColor=#23445D;gradientColor=none;strokeColor=none;fontColor=#FFFFFF;fontStyle=1;fontFamily=Tahoma;fontSize=12;" parent="1" vertex="1">
          <mxGeometry x="2391" y="997.5" width="130" height="60" as="geometry" />
        </mxCell>
        <mxCell id="qrLLP5ViFst0h06Zl4Ro-567" value="مصلحة&#xa; صيانة الفضاءات &#xa;الخارجيّة" style="rounded=1;fillColor=#23445D;gradientColor=none;strokeColor=none;fontColor=#FFFFFF;fontStyle=1;fontFamily=Tahoma;fontSize=12;" parent="1" vertex="1">
          <mxGeometry x="2391" y="1258" width="130" height="60" as="geometry" />
        </mxCell>
        <mxCell id="qrLLP5ViFst0h06Zl4Ro-569" value="مصلحة&#xa; التّحكم في الطّاقة " style="rounded=1;fillColor=#23445D;gradientColor=none;strokeColor=none;fontColor=#FFFFFF;fontStyle=1;fontFamily=Tahoma;fontSize=12;" parent="1" vertex="1">
          <mxGeometry x="2011" y="1337.5" width="130" height="60" as="geometry" />
        </mxCell>
        <mxCell id="qrLLP5ViFst0h06Zl4Ro-571" value="مصلحة &#xa;شبكات الماء&#xa; والصّرف الصّحي" style="rounded=1;fillColor=#23445D;gradientColor=none;strokeColor=none;fontColor=#FFFFFF;fontStyle=1;fontFamily=Tahoma;fontSize=12;" parent="1" vertex="1">
          <mxGeometry x="2221" y="1337.5" width="130" height="60" as="geometry" />
        </mxCell>
        <mxCell id="qrLLP5ViFst0h06Zl4Ro-573" value="مصلحة&#xa; نقل الإنتاج&#xa; داخل الوكالة" style="rounded=1;fillColor=#23445D;gradientColor=none;strokeColor=none;fontColor=#FFFFFF;fontStyle=1;fontFamily=Tahoma;fontSize=12;" parent="1" vertex="1">
          <mxGeometry x="2391" y="1337.5" width="130" height="60" as="geometry" />
        </mxCell>
        <mxCell id="qrLLP5ViFst0h06Zl4Ro-576" style="edgeStyle=orthogonalEdgeStyle;rounded=0;orthogonalLoop=1;jettySize=auto;html=1;exitX=1;exitY=0.5;exitDx=0;exitDy=0;entryX=1;entryY=0.5;entryDx=0;entryDy=0;strokeWidth=2;" parent="1" source="qrLLP5ViFst0h06Zl4Ro-580" target="qrLLP5ViFst0h06Zl4Ro-583" edge="1">
          <mxGeometry relative="1" as="geometry" />
        </mxCell>
        <mxCell id="qrLLP5ViFst0h06Zl4Ro-577" style="edgeStyle=orthogonalEdgeStyle;rounded=0;orthogonalLoop=1;jettySize=auto;html=1;exitX=1;exitY=0.5;exitDx=0;exitDy=0;entryX=1;entryY=0.5;entryDx=0;entryDy=0;strokeWidth=2;" parent="1" source="qrLLP5ViFst0h06Zl4Ro-580" target="qrLLP5ViFst0h06Zl4Ro-584" edge="1">
          <mxGeometry relative="1" as="geometry" />
        </mxCell>
        <mxCell id="qrLLP5ViFst0h06Zl4Ro-578" style="edgeStyle=orthogonalEdgeStyle;rounded=0;orthogonalLoop=1;jettySize=auto;html=1;exitX=1;exitY=0.5;exitDx=0;exitDy=0;entryX=1;entryY=0.5;entryDx=0;entryDy=0;strokeWidth=2;" parent="1" source="qrLLP5ViFst0h06Zl4Ro-580" target="qrLLP5ViFst0h06Zl4Ro-585" edge="1">
          <mxGeometry relative="1" as="geometry" />
        </mxCell>
        <mxCell id="qrLLP5ViFst0h06Zl4Ro-579" style="edgeStyle=orthogonalEdgeStyle;rounded=0;orthogonalLoop=1;jettySize=auto;html=1;exitX=1;exitY=0.5;exitDx=0;exitDy=0;entryX=1;entryY=0.5;entryDx=0;entryDy=0;strokeWidth=2;" parent="1" source="qrLLP5ViFst0h06Zl4Ro-580" target="qrLLP5ViFst0h06Zl4Ro-600" edge="1">
          <mxGeometry relative="1" as="geometry" />
        </mxCell>
        <mxCell id="qrLLP5ViFst0h06Zl4Ro-580" value="الإدارة الفرعيّة&#xa; لإنتاج الفيلتر&#xa; والنفّة والسّيقار" style="rounded=1;fillColor=#23445D;gradientColor=none;strokeColor=none;fontColor=#FFFFFF;fontStyle=1;fontFamily=Tahoma;fontSize=12;" parent="1" vertex="1">
          <mxGeometry x="1501" y="997.5" width="130" height="60" as="geometry" />
        </mxCell>
        <mxCell id="qrLLP5ViFst0h06Zl4Ro-581" value="مصلحة&#xa; صيانة آلات صنع&#xa; السّجائر&quot;أ&quot; والفيلتر" style="rounded=1;fillColor=#23445D;gradientColor=none;strokeColor=none;fontColor=#FFFFFF;fontStyle=1;fontFamily=Tahoma;fontSize=12;" parent="1" vertex="1">
          <mxGeometry x="1671" y="1087" width="130" height="60" as="geometry" />
        </mxCell>
        <mxCell id="qrLLP5ViFst0h06Zl4Ro-582" value="مصلحة&#xa; صيانة آلات تعليب&#xa; السّجائر&quot;أ&quot; والنّفة " style="rounded=1;fillColor=#23445D;gradientColor=none;strokeColor=none;fontColor=#FFFFFF;fontStyle=1;fontFamily=Tahoma;fontSize=12;" parent="1" vertex="1">
          <mxGeometry x="1671" y="1176" width="130" height="60" as="geometry" />
        </mxCell>
        <mxCell id="qrLLP5ViFst0h06Zl4Ro-583" value="مصلحة&#xa; ورشة الفيلتر" style="rounded=1;fillColor=#23445D;gradientColor=none;strokeColor=none;fontColor=#FFFFFF;fontStyle=1;fontFamily=Tahoma;fontSize=12;" parent="1" vertex="1">
          <mxGeometry x="1501" y="1087" width="130" height="60" as="geometry" />
        </mxCell>
        <mxCell id="qrLLP5ViFst0h06Zl4Ro-584" value="مصلحة&#xa; ورشة النّفة" style="rounded=1;fillColor=#23445D;gradientColor=none;strokeColor=none;fontColor=#FFFFFF;fontStyle=1;fontFamily=Tahoma;fontSize=12;" parent="1" vertex="1">
          <mxGeometry x="1501" y="1176" width="130" height="60" as="geometry" />
        </mxCell>
        <mxCell id="qrLLP5ViFst0h06Zl4Ro-585" value="مصلحة&#xa; ورشة السّيقار" style="rounded=1;fillColor=#23445D;gradientColor=none;strokeColor=none;fontColor=#FFFFFF;fontStyle=1;fontFamily=Tahoma;fontSize=12;" parent="1" vertex="1">
          <mxGeometry x="1501" y="1258" width="130" height="60" as="geometry" />
        </mxCell>
        <mxCell id="qrLLP5ViFst0h06Zl4Ro-586" style="edgeStyle=orthogonalEdgeStyle;rounded=0;orthogonalLoop=1;jettySize=auto;html=1;exitX=1;exitY=0.5;exitDx=0;exitDy=0;entryX=1;entryY=0.5;entryDx=0;entryDy=0;strokeWidth=2;" parent="1" source="qrLLP5ViFst0h06Zl4Ro-590" target="qrLLP5ViFst0h06Zl4Ro-581" edge="1">
          <mxGeometry relative="1" as="geometry" />
        </mxCell>
        <mxCell id="qrLLP5ViFst0h06Zl4Ro-587" style="edgeStyle=orthogonalEdgeStyle;rounded=0;orthogonalLoop=1;jettySize=auto;html=1;exitX=1;exitY=0.5;exitDx=0;exitDy=0;entryX=1;entryY=0.5;entryDx=0;entryDy=0;strokeWidth=2;" parent="1" source="qrLLP5ViFst0h06Zl4Ro-590" target="qrLLP5ViFst0h06Zl4Ro-582" edge="1">
          <mxGeometry relative="1" as="geometry" />
        </mxCell>
        <mxCell id="qrLLP5ViFst0h06Zl4Ro-588" style="edgeStyle=orthogonalEdgeStyle;rounded=0;orthogonalLoop=1;jettySize=auto;html=1;exitX=1;exitY=0.5;exitDx=0;exitDy=0;entryX=1;entryY=0.5;entryDx=0;entryDy=0;strokeWidth=2;" parent="1" source="qrLLP5ViFst0h06Zl4Ro-590" target="qrLLP5ViFst0h06Zl4Ro-591" edge="1">
          <mxGeometry relative="1" as="geometry" />
        </mxCell>
        <mxCell id="qrLLP5ViFst0h06Zl4Ro-589" style="edgeStyle=orthogonalEdgeStyle;rounded=0;orthogonalLoop=1;jettySize=auto;html=1;exitX=1;exitY=0.5;exitDx=0;exitDy=0;entryX=1;entryY=0.5;entryDx=0;entryDy=0;strokeWidth=2;" parent="1" source="qrLLP5ViFst0h06Zl4Ro-590" target="qrLLP5ViFst0h06Zl4Ro-601" edge="1">
          <mxGeometry relative="1" as="geometry" />
        </mxCell>
        <mxCell id="qrLLP5ViFst0h06Zl4Ro-590" value="الإدارة الفرعيّة &#xa;للصّيانة&#xa; بالمصنع &quot;أ&quot;" style="rounded=1;fillColor=#23445D;gradientColor=none;strokeColor=none;fontColor=#FFFFFF;fontStyle=1;fontFamily=Tahoma;fontSize=12;" parent="1" vertex="1">
          <mxGeometry x="1671" y="997.5" width="130" height="60" as="geometry" />
        </mxCell>
        <mxCell id="qrLLP5ViFst0h06Zl4Ro-591" value="مصلحة&#xa; برمجة ومراقبة &#xa;عمليات الصّيانة &quot;أ&quot;" style="rounded=1;fillColor=#23445D;gradientColor=none;strokeColor=none;fontColor=#FFFFFF;fontStyle=1;fontFamily=Tahoma;fontSize=12;" parent="1" vertex="1">
          <mxGeometry x="1671" y="1258" width="130" height="60" as="geometry" />
        </mxCell>
        <mxCell id="qrLLP5ViFst0h06Zl4Ro-592" value="مصلحة &#xa;ورشة فرحات حشّاد" style="rounded=1;fillColor=#23445D;gradientColor=none;strokeColor=none;fontColor=#FFFFFF;fontStyle=1;fontFamily=Tahoma;fontSize=12;" parent="1" vertex="1">
          <mxGeometry x="1841" y="1087" width="130" height="60" as="geometry" />
        </mxCell>
        <mxCell id="qrLLP5ViFst0h06Zl4Ro-593" value="مصلحة&#xa; الورشة النموذجيّة 1 " style="rounded=1;fillColor=#23445D;gradientColor=none;strokeColor=none;fontColor=#FFFFFF;fontStyle=1;fontFamily=Tahoma;fontSize=12;" parent="1" vertex="1">
          <mxGeometry x="1841" y="1176" width="130" height="60" as="geometry" />
        </mxCell>
        <mxCell id="qrLLP5ViFst0h06Zl4Ro-594" style="edgeStyle=orthogonalEdgeStyle;rounded=0;orthogonalLoop=1;jettySize=auto;html=1;exitX=1;exitY=0.5;exitDx=0;exitDy=0;entryX=1;entryY=0.5;entryDx=0;entryDy=0;strokeWidth=2;" parent="1" source="qrLLP5ViFst0h06Zl4Ro-598" target="qrLLP5ViFst0h06Zl4Ro-592" edge="1">
          <mxGeometry relative="1" as="geometry" />
        </mxCell>
        <mxCell id="qrLLP5ViFst0h06Zl4Ro-595" style="edgeStyle=orthogonalEdgeStyle;rounded=0;orthogonalLoop=1;jettySize=auto;html=1;exitX=1;exitY=0.5;exitDx=0;exitDy=0;entryX=1;entryY=0.5;entryDx=0;entryDy=0;strokeWidth=2;" parent="1" source="qrLLP5ViFst0h06Zl4Ro-598" target="qrLLP5ViFst0h06Zl4Ro-593" edge="1">
          <mxGeometry relative="1" as="geometry" />
        </mxCell>
        <mxCell id="qrLLP5ViFst0h06Zl4Ro-596" style="edgeStyle=orthogonalEdgeStyle;rounded=0;orthogonalLoop=1;jettySize=auto;html=1;exitX=1;exitY=0.5;exitDx=0;exitDy=0;entryX=1;entryY=0.5;entryDx=0;entryDy=0;strokeWidth=2;" parent="1" source="qrLLP5ViFst0h06Zl4Ro-598" target="qrLLP5ViFst0h06Zl4Ro-599" edge="1">
          <mxGeometry relative="1" as="geometry" />
        </mxCell>
        <mxCell id="qrLLP5ViFst0h06Zl4Ro-597" style="edgeStyle=orthogonalEdgeStyle;rounded=0;orthogonalLoop=1;jettySize=auto;html=1;exitX=1;exitY=0.5;exitDx=0;exitDy=0;entryX=1;entryY=0.5;entryDx=0;entryDy=0;strokeWidth=2;" parent="1" source="qrLLP5ViFst0h06Zl4Ro-598" target="qrLLP5ViFst0h06Zl4Ro-602" edge="1">
          <mxGeometry relative="1" as="geometry" />
        </mxCell>
        <mxCell id="qrLLP5ViFst0h06Zl4Ro-598" value="الإدارة الفرعيّة &#xa;لإنتاج السّجائر &#xa;بالمصنع &quot;أ&quot;" style="rounded=1;fillColor=#23445D;gradientColor=none;strokeColor=none;fontColor=#FFFFFF;fontStyle=1;fontFamily=Tahoma;fontSize=12;" parent="1" vertex="1">
          <mxGeometry x="1841" y="997.5" width="130" height="60" as="geometry" />
        </mxCell>
        <mxCell id="qrLLP5ViFst0h06Zl4Ro-599" value="مصلحة &#xa;الورشة النموذجية 2 " style="rounded=1;fillColor=#23445D;gradientColor=none;strokeColor=none;fontColor=#FFFFFF;fontStyle=1;fontFamily=Tahoma;fontSize=12;" parent="1" vertex="1">
          <mxGeometry x="1841" y="1258" width="130" height="60" as="geometry" />
        </mxCell>
        <mxCell id="qrLLP5ViFst0h06Zl4Ro-600" value="مصلحة&#xa; التّحكم في النّفايات" style="rounded=1;fillColor=#23445D;gradientColor=none;strokeColor=none;fontColor=#FFFFFF;fontStyle=1;fontFamily=Tahoma;fontSize=12;" parent="1" vertex="1">
          <mxGeometry x="1501" y="1337.5" width="130" height="60" as="geometry" />
        </mxCell>
        <mxCell id="qrLLP5ViFst0h06Zl4Ro-601" value="مصلحة&#xa; ورشة اللآليّة العامّة" style="rounded=1;fillColor=#23445D;gradientColor=none;strokeColor=none;fontColor=#FFFFFF;fontStyle=1;fontFamily=Tahoma;fontSize=12;" parent="1" vertex="1">
          <mxGeometry x="1671" y="1337.5" width="130" height="60" as="geometry" />
        </mxCell>
        <mxCell id="qrLLP5ViFst0h06Zl4Ro-602" value="مصلحة&#xa; البرمجة والتّنسيق بين &#xa;ورشات إنتاج السّجائر &quot;أ&quot;" style="rounded=1;fillColor=#23445D;gradientColor=none;strokeColor=none;fontColor=#FFFFFF;fontStyle=1;fontFamily=Tahoma;fontSize=11;" parent="1" vertex="1">
          <mxGeometry x="1841" y="1337.5" width="130" height="60" as="geometry" />
        </mxCell>
        <mxCell id="qrLLP5ViFst0h06Zl4Ro-607" style="edgeStyle=orthogonalEdgeStyle;rounded=0;orthogonalLoop=1;jettySize=auto;html=1;exitX=1;exitY=0.5;exitDx=0;exitDy=0;entryX=1;entryY=0.5;entryDx=0;entryDy=0;strokeWidth=2;" parent="1" source="qrLLP5ViFst0h06Zl4Ro-611" target="qrLLP5ViFst0h06Zl4Ro-614" edge="1">
          <mxGeometry relative="1" as="geometry" />
        </mxCell>
        <mxCell id="qrLLP5ViFst0h06Zl4Ro-608" style="edgeStyle=orthogonalEdgeStyle;rounded=0;orthogonalLoop=1;jettySize=auto;html=1;exitX=1;exitY=0.5;exitDx=0;exitDy=0;entryX=1;entryY=0.5;entryDx=0;entryDy=0;strokeWidth=2;" parent="1" source="qrLLP5ViFst0h06Zl4Ro-611" target="qrLLP5ViFst0h06Zl4Ro-615" edge="1">
          <mxGeometry relative="1" as="geometry" />
        </mxCell>
        <mxCell id="qrLLP5ViFst0h06Zl4Ro-609" style="edgeStyle=orthogonalEdgeStyle;rounded=0;orthogonalLoop=1;jettySize=auto;html=1;exitX=1;exitY=0.5;exitDx=0;exitDy=0;entryX=1;entryY=0.5;entryDx=0;entryDy=0;strokeWidth=2;" parent="1" source="qrLLP5ViFst0h06Zl4Ro-611" target="qrLLP5ViFst0h06Zl4Ro-616" edge="1">
          <mxGeometry relative="1" as="geometry" />
        </mxCell>
        <mxCell id="qrLLP5ViFst0h06Zl4Ro-610" style="edgeStyle=orthogonalEdgeStyle;rounded=0;orthogonalLoop=1;jettySize=auto;html=1;exitX=1;exitY=0.5;exitDx=0;exitDy=0;entryX=1;entryY=0.5;entryDx=0;entryDy=0;strokeWidth=2;" parent="1" source="qrLLP5ViFst0h06Zl4Ro-611" target="qrLLP5ViFst0h06Zl4Ro-631" edge="1">
          <mxGeometry relative="1" as="geometry" />
        </mxCell>
        <mxCell id="qrLLP5ViFst0h06Zl4Ro-611" value="الإدارة الفرعيّة &#xa;لانتاج الشّعرة" style="rounded=1;fillColor=#23445D;gradientColor=none;strokeColor=none;fontColor=#FFFFFF;fontStyle=1;fontFamily=Tahoma;fontSize=12;" parent="1" vertex="1">
          <mxGeometry x="991" y="997.5" width="130" height="60" as="geometry" />
        </mxCell>
        <mxCell id="qrLLP5ViFst0h06Zl4Ro-612" value="مصلحة &#xa;صيانة آلات&#xa; صنع السّجائر &quot;ب&quot;" style="rounded=1;fillColor=#23445D;gradientColor=none;strokeColor=none;fontColor=#FFFFFF;fontStyle=1;fontFamily=Tahoma;fontSize=12;" parent="1" vertex="1">
          <mxGeometry x="1161" y="1087" width="130" height="60" as="geometry" />
        </mxCell>
        <mxCell id="qrLLP5ViFst0h06Zl4Ro-613" value="مصلحة &#xa;صيانة آلات&#xa; تعليب السّجائر &quot;ب&quot;" style="rounded=1;fillColor=#23445D;gradientColor=none;strokeColor=none;fontColor=#FFFFFF;fontStyle=1;fontFamily=Tahoma;fontSize=12;" parent="1" vertex="1">
          <mxGeometry x="1161" y="1176" width="130" height="60" as="geometry" />
        </mxCell>
        <mxCell id="qrLLP5ViFst0h06Zl4Ro-614" value="مصلحة&#xa; التّحضيرات العامة" style="rounded=1;fillColor=#23445D;gradientColor=none;strokeColor=none;fontColor=#FFFFFF;fontStyle=1;fontFamily=Tahoma;fontSize=12;" parent="1" vertex="1">
          <mxGeometry x="991" y="1087" width="130" height="60" as="geometry" />
        </mxCell>
        <mxCell id="qrLLP5ViFst0h06Zl4Ro-615" value="مصلحة&#xa; تخزين الشّعرة" style="rounded=1;fillColor=#23445D;gradientColor=none;strokeColor=none;fontColor=#FFFFFF;fontStyle=1;fontFamily=Tahoma;fontSize=12;" parent="1" vertex="1">
          <mxGeometry x="991" y="1176" width="130" height="60" as="geometry" />
        </mxCell>
        <mxCell id="qrLLP5ViFst0h06Zl4Ro-616" value="مصلحة &#xa;تعطير الشّعرة" style="rounded=1;fillColor=#23445D;gradientColor=none;strokeColor=none;fontColor=#FFFFFF;fontStyle=1;fontFamily=Tahoma;fontSize=12;" parent="1" vertex="1">
          <mxGeometry x="991" y="1258" width="130" height="60" as="geometry" />
        </mxCell>
        <mxCell id="qrLLP5ViFst0h06Zl4Ro-617" style="edgeStyle=orthogonalEdgeStyle;rounded=0;orthogonalLoop=1;jettySize=auto;html=1;exitX=1;exitY=0.5;exitDx=0;exitDy=0;entryX=1;entryY=0.5;entryDx=0;entryDy=0;strokeWidth=2;" parent="1" source="qrLLP5ViFst0h06Zl4Ro-621" target="qrLLP5ViFst0h06Zl4Ro-612" edge="1">
          <mxGeometry relative="1" as="geometry" />
        </mxCell>
        <mxCell id="qrLLP5ViFst0h06Zl4Ro-618" style="edgeStyle=orthogonalEdgeStyle;rounded=0;orthogonalLoop=1;jettySize=auto;html=1;exitX=1;exitY=0.5;exitDx=0;exitDy=0;entryX=1;entryY=0.5;entryDx=0;entryDy=0;strokeWidth=2;" parent="1" source="qrLLP5ViFst0h06Zl4Ro-621" target="qrLLP5ViFst0h06Zl4Ro-613" edge="1">
          <mxGeometry relative="1" as="geometry" />
        </mxCell>
        <mxCell id="qrLLP5ViFst0h06Zl4Ro-619" style="edgeStyle=orthogonalEdgeStyle;rounded=0;orthogonalLoop=1;jettySize=auto;html=1;exitX=1;exitY=0.5;exitDx=0;exitDy=0;entryX=1;entryY=0.5;entryDx=0;entryDy=0;strokeWidth=2;" parent="1" source="qrLLP5ViFst0h06Zl4Ro-621" target="qrLLP5ViFst0h06Zl4Ro-622" edge="1">
          <mxGeometry relative="1" as="geometry" />
        </mxCell>
        <mxCell id="qrLLP5ViFst0h06Zl4Ro-620" style="edgeStyle=orthogonalEdgeStyle;rounded=0;orthogonalLoop=1;jettySize=auto;html=1;exitX=1;exitY=0.5;exitDx=0;exitDy=0;entryX=1;entryY=0.5;entryDx=0;entryDy=0;strokeWidth=2;" parent="1" source="qrLLP5ViFst0h06Zl4Ro-621" target="qrLLP5ViFst0h06Zl4Ro-632" edge="1">
          <mxGeometry relative="1" as="geometry" />
        </mxCell>
        <mxCell id="qrLLP5ViFst0h06Zl4Ro-621" value="الإدارة الفرعيّة&#xa; للصّيانة &#xa;&quot;بالمصنع &quot;ب" style="rounded=1;fillColor=#23445D;gradientColor=none;strokeColor=none;fontColor=#FFFFFF;fontStyle=1;fontFamily=Tahoma;fontSize=12;" parent="1" vertex="1">
          <mxGeometry x="1161" y="997.5" width="130" height="60" as="geometry" />
        </mxCell>
        <mxCell id="qrLLP5ViFst0h06Zl4Ro-622" value="مصلحة&#xa; صيانة معدّات &#xa;التّحضيرات العامّة &#xa;وتخزين الشّعرة" style="rounded=1;fillColor=#23445D;gradientColor=none;strokeColor=none;fontColor=#FFFFFF;fontStyle=1;fontFamily=Tahoma;fontSize=12;" parent="1" vertex="1">
          <mxGeometry x="1161" y="1258" width="130" height="60" as="geometry" />
        </mxCell>
        <mxCell id="qrLLP5ViFst0h06Zl4Ro-623" value="مصلحة&#xa; صنع وتعليب السّجائر&#xa; ذات الورق اللّين " style="rounded=1;fillColor=#23445D;gradientColor=none;strokeColor=none;fontColor=#FFFFFF;fontStyle=1;fontFamily=Tahoma;fontSize=12;" parent="1" vertex="1">
          <mxGeometry x="1331" y="1087" width="130" height="60" as="geometry" />
        </mxCell>
        <mxCell id="qrLLP5ViFst0h06Zl4Ro-624" value="مصلحة &#xa;صنع وتعليب السّجائر&#xa; ذات الورق المقوّى " style="rounded=1;fillColor=#23445D;gradientColor=none;strokeColor=none;fontColor=#FFFFFF;fontStyle=1;fontFamily=Tahoma;fontSize=12;" parent="1" vertex="1">
          <mxGeometry x="1331" y="1176" width="130" height="60" as="geometry" />
        </mxCell>
        <mxCell id="qrLLP5ViFst0h06Zl4Ro-625" style="edgeStyle=orthogonalEdgeStyle;rounded=0;orthogonalLoop=1;jettySize=auto;html=1;exitX=1;exitY=0.5;exitDx=0;exitDy=0;entryX=1;entryY=0.5;entryDx=0;entryDy=0;strokeWidth=2;" parent="1" source="qrLLP5ViFst0h06Zl4Ro-629" target="qrLLP5ViFst0h06Zl4Ro-623" edge="1">
          <mxGeometry relative="1" as="geometry" />
        </mxCell>
        <mxCell id="qrLLP5ViFst0h06Zl4Ro-626" style="edgeStyle=orthogonalEdgeStyle;rounded=0;orthogonalLoop=1;jettySize=auto;html=1;exitX=1;exitY=0.5;exitDx=0;exitDy=0;entryX=1;entryY=0.5;entryDx=0;entryDy=0;strokeWidth=2;" parent="1" source="qrLLP5ViFst0h06Zl4Ro-629" target="qrLLP5ViFst0h06Zl4Ro-624" edge="1">
          <mxGeometry relative="1" as="geometry" />
        </mxCell>
        <mxCell id="qrLLP5ViFst0h06Zl4Ro-627" style="edgeStyle=orthogonalEdgeStyle;rounded=0;orthogonalLoop=1;jettySize=auto;html=1;exitX=1;exitY=0.5;exitDx=0;exitDy=0;entryX=1;entryY=0.5;entryDx=0;entryDy=0;strokeWidth=2;" parent="1" source="qrLLP5ViFst0h06Zl4Ro-629" target="qrLLP5ViFst0h06Zl4Ro-630" edge="1">
          <mxGeometry relative="1" as="geometry" />
        </mxCell>
        <mxCell id="qrLLP5ViFst0h06Zl4Ro-628" style="edgeStyle=orthogonalEdgeStyle;rounded=0;orthogonalLoop=1;jettySize=auto;html=1;exitX=1;exitY=0.5;exitDx=0;exitDy=0;entryX=1;entryY=0.5;entryDx=0;entryDy=0;strokeWidth=2;" parent="1" source="qrLLP5ViFst0h06Zl4Ro-629" target="qrLLP5ViFst0h06Zl4Ro-633" edge="1">
          <mxGeometry relative="1" as="geometry" />
        </mxCell>
        <mxCell id="qrLLP5ViFst0h06Zl4Ro-629" value="الإدارة الفرعيّة&#xa; لإنتاج السّجائر&#xa; بالمصنع &quot;ب&quot;" style="rounded=1;fillColor=#23445D;gradientColor=none;strokeColor=none;fontColor=#FFFFFF;fontStyle=1;fontFamily=Tahoma;fontSize=12;" parent="1" vertex="1">
          <mxGeometry x="1331" y="997.5" width="130" height="60" as="geometry" />
        </mxCell>
        <mxCell id="qrLLP5ViFst0h06Zl4Ro-630" value="مصلحة&#xa; البرمجة ومتابعة&#xa; إنتاج السّجائر  &quot;ب&quot;" style="rounded=1;fillColor=#23445D;gradientColor=none;strokeColor=none;fontColor=#FFFFFF;fontStyle=1;fontFamily=Tahoma;fontSize=12;" parent="1" vertex="1">
          <mxGeometry x="1331" y="1258" width="130" height="60" as="geometry" />
        </mxCell>
        <mxCell id="qrLLP5ViFst0h06Zl4Ro-631" value="مصلحة &#xa;رسكلة الفواضل" style="rounded=1;fillColor=#23445D;gradientColor=none;strokeColor=none;fontColor=#FFFFFF;fontStyle=1;fontFamily=Tahoma;fontSize=12;" parent="1" vertex="1">
          <mxGeometry x="991" y="1337.5" width="130" height="60" as="geometry" />
        </mxCell>
        <mxCell id="qrLLP5ViFst0h06Zl4Ro-632" value="مصلحة&#xa; برمجة ومراقبة&#xa; عمليّات الصّيانة &quot;ب&quot;" style="rounded=1;fillColor=#23445D;gradientColor=none;strokeColor=none;fontColor=#FFFFFF;fontStyle=1;fontFamily=Tahoma;fontSize=12;" parent="1" vertex="1">
          <mxGeometry x="1161" y="1337.5" width="130" height="60" as="geometry" />
        </mxCell>
        <mxCell id="qrLLP5ViFst0h06Zl4Ro-633" value="مصلحة &#xa;التّحكم في النّفايات&#xa;  &quot;ب&quot;" style="rounded=1;fillColor=#23445D;gradientColor=none;strokeColor=none;fontColor=#FFFFFF;fontStyle=1;fontFamily=Tahoma;fontSize=12;" parent="1" vertex="1">
          <mxGeometry x="1331" y="1337.5" width="130" height="60" as="geometry" />
        </mxCell>
        <mxCell id="qrLLP5ViFst0h06Zl4Ro-638" style="edgeStyle=orthogonalEdgeStyle;rounded=0;orthogonalLoop=1;jettySize=auto;html=1;exitX=1;exitY=0.5;exitDx=0;exitDy=0;entryX=1;entryY=0.5;entryDx=0;entryDy=0;strokeWidth=2;" parent="1" source="qrLLP5ViFst0h06Zl4Ro-642" target="qrLLP5ViFst0h06Zl4Ro-645" edge="1">
          <mxGeometry relative="1" as="geometry" />
        </mxCell>
        <mxCell id="qrLLP5ViFst0h06Zl4Ro-639" style="edgeStyle=orthogonalEdgeStyle;rounded=0;orthogonalLoop=1;jettySize=auto;html=1;exitX=1;exitY=0.5;exitDx=0;exitDy=0;entryX=1;entryY=0.5;entryDx=0;entryDy=0;strokeWidth=2;" parent="1" source="qrLLP5ViFst0h06Zl4Ro-642" target="qrLLP5ViFst0h06Zl4Ro-646" edge="1">
          <mxGeometry relative="1" as="geometry" />
        </mxCell>
        <mxCell id="qrLLP5ViFst0h06Zl4Ro-640" style="edgeStyle=orthogonalEdgeStyle;rounded=0;orthogonalLoop=1;jettySize=auto;html=1;exitX=1;exitY=0.5;exitDx=0;exitDy=0;entryX=1;entryY=0.5;entryDx=0;entryDy=0;strokeWidth=2;" parent="1" source="qrLLP5ViFst0h06Zl4Ro-642" target="qrLLP5ViFst0h06Zl4Ro-647" edge="1">
          <mxGeometry relative="1" as="geometry" />
        </mxCell>
        <mxCell id="qrLLP5ViFst0h06Zl4Ro-642" value="الإدارة الفرعيّة&#xa; للسّلامة المعلوماتيّة" style="rounded=1;fillColor=#23445D;gradientColor=none;strokeColor=none;fontColor=#FFFFFF;fontStyle=1;fontFamily=Tahoma;fontSize=12;" parent="1" vertex="1">
          <mxGeometry x="481" y="997.5" width="130" height="60" as="geometry" />
        </mxCell>
        <mxCell id="qrLLP5ViFst0h06Zl4Ro-643" value="مصلحة &#xa;صيانة الشبكات " style="rounded=1;fillColor=#23445D;gradientColor=none;strokeColor=none;fontColor=#FFFFFF;fontStyle=1;fontFamily=Tahoma;fontSize=12;" parent="1" vertex="1">
          <mxGeometry x="651" y="1087" width="130" height="60" as="geometry" />
        </mxCell>
        <mxCell id="qrLLP5ViFst0h06Zl4Ro-644" value="مصلحة &#xa;صيانة المعدات&#xa; الإعلامية" style="rounded=1;fillColor=#23445D;gradientColor=none;strokeColor=none;fontColor=#FFFFFF;fontStyle=1;fontFamily=Tahoma;fontSize=12;" parent="1" vertex="1">
          <mxGeometry x="651" y="1176" width="130" height="60" as="geometry" />
        </mxCell>
        <mxCell id="qrLLP5ViFst0h06Zl4Ro-645" value="مصلحة&#xa; سلامة الشبكات&#xa; الإعلامية" style="rounded=1;fillColor=#23445D;gradientColor=none;strokeColor=none;fontColor=#FFFFFF;fontStyle=1;fontFamily=Tahoma;fontSize=12;" parent="1" vertex="1">
          <mxGeometry x="481" y="1087" width="130" height="60" as="geometry" />
        </mxCell>
        <mxCell id="qrLLP5ViFst0h06Zl4Ro-646" value="مصلحة &#xa;التصديق ومراقبة&#xa; الاستعمالات" style="rounded=1;fillColor=#23445D;gradientColor=none;strokeColor=none;fontColor=#FFFFFF;fontStyle=1;fontFamily=Tahoma;fontSize=12;" parent="1" vertex="1">
          <mxGeometry x="481" y="1176" width="130" height="60" as="geometry" />
        </mxCell>
        <mxCell id="qrLLP5ViFst0h06Zl4Ro-647" value="مصلحة&#xa; التوقي واليقضة&#xa; الرقمية" style="rounded=1;fillColor=#23445D;gradientColor=none;strokeColor=none;fontColor=#FFFFFF;fontStyle=1;fontFamily=Tahoma;fontSize=12;" parent="1" vertex="1">
          <mxGeometry x="481" y="1258" width="130" height="60" as="geometry" />
        </mxCell>
        <mxCell id="qrLLP5ViFst0h06Zl4Ro-648" style="edgeStyle=orthogonalEdgeStyle;rounded=0;orthogonalLoop=1;jettySize=auto;html=1;exitX=1;exitY=0.5;exitDx=0;exitDy=0;entryX=1;entryY=0.5;entryDx=0;entryDy=0;strokeWidth=2;" parent="1" source="qrLLP5ViFst0h06Zl4Ro-652" target="qrLLP5ViFst0h06Zl4Ro-643" edge="1">
          <mxGeometry relative="1" as="geometry" />
        </mxCell>
        <mxCell id="qrLLP5ViFst0h06Zl4Ro-649" style="edgeStyle=orthogonalEdgeStyle;rounded=0;orthogonalLoop=1;jettySize=auto;html=1;exitX=1;exitY=0.5;exitDx=0;exitDy=0;entryX=1;entryY=0.5;entryDx=0;entryDy=0;strokeWidth=2;" parent="1" source="qrLLP5ViFst0h06Zl4Ro-652" target="qrLLP5ViFst0h06Zl4Ro-644" edge="1">
          <mxGeometry relative="1" as="geometry" />
        </mxCell>
        <mxCell id="qrLLP5ViFst0h06Zl4Ro-650" style="edgeStyle=orthogonalEdgeStyle;rounded=0;orthogonalLoop=1;jettySize=auto;html=1;exitX=1;exitY=0.5;exitDx=0;exitDy=0;entryX=1;entryY=0.5;entryDx=0;entryDy=0;strokeWidth=2;" parent="1" source="qrLLP5ViFst0h06Zl4Ro-652" target="qrLLP5ViFst0h06Zl4Ro-653" edge="1">
          <mxGeometry relative="1" as="geometry" />
        </mxCell>
        <mxCell id="qrLLP5ViFst0h06Zl4Ro-652" value="الإدارة الفرعيّة &#xa;للبنية التحتيّة الرقميّة" style="rounded=1;fillColor=#23445D;gradientColor=none;strokeColor=none;fontColor=#FFFFFF;fontStyle=1;fontFamily=Tahoma;fontSize=12;" parent="1" vertex="1">
          <mxGeometry x="651" y="997.5" width="130" height="60" as="geometry" />
        </mxCell>
        <mxCell id="qrLLP5ViFst0h06Zl4Ro-653" value="مصلحة&#xa; صبانة منظومة &#xa;المراقبة بالفيديو" style="rounded=1;fillColor=#23445D;gradientColor=none;strokeColor=none;fontColor=#FFFFFF;fontStyle=1;fontFamily=Tahoma;fontSize=12;" parent="1" vertex="1">
          <mxGeometry x="651" y="1258" width="130" height="60" as="geometry" />
        </mxCell>
        <mxCell id="qrLLP5ViFst0h06Zl4Ro-654" value="مصلحة&#xa; المنظومة التجارية&#xa; والتصرف في المخزونات" style="rounded=1;fillColor=#23445D;gradientColor=none;strokeColor=none;fontColor=#FFFFFF;fontStyle=1;fontFamily=Tahoma;fontSize=11;" parent="1" vertex="1">
          <mxGeometry x="821" y="1087" width="130" height="60" as="geometry" />
        </mxCell>
        <mxCell id="qrLLP5ViFst0h06Zl4Ro-655" value="مصلحة&#xa; منظومة التصرف&#xa; في الموارد البشرية&#xa; ومنظومة المحاسبة" style="rounded=1;fillColor=#23445D;gradientColor=none;strokeColor=none;fontColor=#FFFFFF;fontStyle=1;fontFamily=Tahoma;fontSize=11;" parent="1" vertex="1">
          <mxGeometry x="821" y="1176" width="130" height="60" as="geometry" />
        </mxCell>
        <mxCell id="qrLLP5ViFst0h06Zl4Ro-656" style="edgeStyle=orthogonalEdgeStyle;rounded=0;orthogonalLoop=1;jettySize=auto;html=1;exitX=1;exitY=0.5;exitDx=0;exitDy=0;entryX=1;entryY=0.5;entryDx=0;entryDy=0;strokeWidth=2;" parent="1" source="qrLLP5ViFst0h06Zl4Ro-660" target="qrLLP5ViFst0h06Zl4Ro-654" edge="1">
          <mxGeometry relative="1" as="geometry" />
        </mxCell>
        <mxCell id="qrLLP5ViFst0h06Zl4Ro-657" style="edgeStyle=orthogonalEdgeStyle;rounded=0;orthogonalLoop=1;jettySize=auto;html=1;exitX=1;exitY=0.5;exitDx=0;exitDy=0;entryX=1;entryY=0.5;entryDx=0;entryDy=0;strokeWidth=2;" parent="1" source="qrLLP5ViFst0h06Zl4Ro-660" target="qrLLP5ViFst0h06Zl4Ro-655" edge="1">
          <mxGeometry relative="1" as="geometry" />
        </mxCell>
        <mxCell id="qrLLP5ViFst0h06Zl4Ro-658" style="edgeStyle=orthogonalEdgeStyle;rounded=0;orthogonalLoop=1;jettySize=auto;html=1;exitX=1;exitY=0.5;exitDx=0;exitDy=0;entryX=1;entryY=0.5;entryDx=0;entryDy=0;strokeWidth=2;" parent="1" source="qrLLP5ViFst0h06Zl4Ro-660" target="qrLLP5ViFst0h06Zl4Ro-661" edge="1">
          <mxGeometry relative="1" as="geometry" />
        </mxCell>
        <mxCell id="qrLLP5ViFst0h06Zl4Ro-660" value="الإدارة الفرعيّة &#xa;للتّطبيقات والبرمجيّات" style="rounded=1;fillColor=#23445D;gradientColor=none;strokeColor=none;fontColor=#FFFFFF;fontStyle=1;fontFamily=Tahoma;fontSize=12;" parent="1" vertex="1">
          <mxGeometry x="821" y="997.5" width="130" height="60" as="geometry" />
        </mxCell>
        <mxCell id="qrLLP5ViFst0h06Zl4Ro-661" value="مصلحة&#xa; المنظومات الأخرى&#xa; والادماج الرقمي" style="rounded=1;fillColor=#23445D;gradientColor=none;strokeColor=none;fontColor=#FFFFFF;fontStyle=1;fontFamily=Tahoma;fontSize=12;" parent="1" vertex="1">
          <mxGeometry x="821" y="1258" width="130" height="60" as="geometry" />
        </mxCell>
        <mxCell id="qrLLP5ViFst0h06Zl4Ro-680" style="edgeStyle=orthogonalEdgeStyle;rounded=0;orthogonalLoop=1;jettySize=auto;html=1;exitX=1;exitY=0.5;exitDx=0;exitDy=0;entryX=1;entryY=0.5;entryDx=0;entryDy=0;strokeWidth=2;" parent="1" source="qrLLP5ViFst0h06Zl4Ro-684" target="qrLLP5ViFst0h06Zl4Ro-687" edge="1">
          <mxGeometry relative="1" as="geometry" />
        </mxCell>
        <mxCell id="qrLLP5ViFst0h06Zl4Ro-681" style="edgeStyle=orthogonalEdgeStyle;rounded=0;orthogonalLoop=1;jettySize=auto;html=1;exitX=1;exitY=0.5;exitDx=0;exitDy=0;entryX=1;entryY=0.5;entryDx=0;entryDy=0;strokeWidth=2;" parent="1" source="qrLLP5ViFst0h06Zl4Ro-684" target="qrLLP5ViFst0h06Zl4Ro-688" edge="1">
          <mxGeometry relative="1" as="geometry" />
        </mxCell>
        <mxCell id="qrLLP5ViFst0h06Zl4Ro-684" value="الإدارة الفرعيّة&#xa; لمغازات المواد &#xa;المصنوعة" style="rounded=1;fillColor=#23445D;gradientColor=none;strokeColor=none;fontColor=#FFFFFF;fontStyle=1;fontFamily=Tahoma;fontSize=12;" parent="1" vertex="1">
          <mxGeometry x="1268.5" y="1690.25" width="130" height="58" as="geometry" />
        </mxCell>
        <mxCell id="qrLLP5ViFst0h06Zl4Ro-685" value="مصلحة&#xa; مغازات مواد الصنع&#xa; ومواد الاستهلاك" style="rounded=1;fillColor=#23445D;gradientColor=none;strokeColor=none;fontColor=#FFFFFF;fontStyle=1;fontFamily=Tahoma;fontSize=12;" parent="1" vertex="1">
          <mxGeometry x="1436.5" y="1790.75" width="130" height="58" as="geometry" />
        </mxCell>
        <mxCell id="qrLLP5ViFst0h06Zl4Ro-686" value="مصلحة&#xa; مغازات قطع الغيار " style="rounded=1;fillColor=#23445D;gradientColor=none;strokeColor=none;fontColor=#FFFFFF;fontStyle=1;fontFamily=Tahoma;fontSize=12;" parent="1" vertex="1">
          <mxGeometry x="1436.5" y="1879.75" width="130" height="58" as="geometry" />
        </mxCell>
        <mxCell id="qrLLP5ViFst0h06Zl4Ro-687" value="مصلحة&#xa; المنتوجات النهائيّة" style="rounded=1;fillColor=#23445D;gradientColor=none;strokeColor=none;fontColor=#FFFFFF;fontStyle=1;fontFamily=Tahoma;fontSize=12;" parent="1" vertex="1">
          <mxGeometry x="1268.5" y="1790.75" width="130" height="58" as="geometry" />
        </mxCell>
        <mxCell id="qrLLP5ViFst0h06Zl4Ro-688" value="مصلحة&#xa; مغازة المحجوزات &#xa;والبضاعة الراجعة" style="rounded=1;fillColor=#23445D;gradientColor=none;strokeColor=none;fontColor=#FFFFFF;fontStyle=1;fontFamily=Tahoma;fontSize=12;" parent="1" vertex="1">
          <mxGeometry x="1268.5" y="1879.75" width="130" height="58" as="geometry" />
        </mxCell>
        <mxCell id="qrLLP5ViFst0h06Zl4Ro-690" style="edgeStyle=orthogonalEdgeStyle;rounded=0;orthogonalLoop=1;jettySize=auto;html=1;exitX=1;exitY=0.5;exitDx=0;exitDy=0;entryX=1;entryY=0.5;entryDx=0;entryDy=0;strokeWidth=2;" parent="1" source="qrLLP5ViFst0h06Zl4Ro-694" target="qrLLP5ViFst0h06Zl4Ro-685" edge="1">
          <mxGeometry relative="1" as="geometry" />
        </mxCell>
        <mxCell id="qrLLP5ViFst0h06Zl4Ro-691" style="edgeStyle=orthogonalEdgeStyle;rounded=0;orthogonalLoop=1;jettySize=auto;html=1;exitX=1;exitY=0.5;exitDx=0;exitDy=0;entryX=1;entryY=0.5;entryDx=0;entryDy=0;strokeWidth=2;" parent="1" source="qrLLP5ViFst0h06Zl4Ro-694" target="qrLLP5ViFst0h06Zl4Ro-686" edge="1">
          <mxGeometry relative="1" as="geometry" />
        </mxCell>
        <mxCell id="qrLLP5ViFst0h06Zl4Ro-694" value="الإدارة الفرعيّة&#xa; لمغازات مواد الصنع&#xa; وقطع الغيار" style="rounded=1;fillColor=#23445D;gradientColor=none;strokeColor=none;fontColor=#FFFFFF;fontStyle=1;fontFamily=Tahoma;fontSize=12;" parent="1" vertex="1">
          <mxGeometry x="1436.5" y="1690.25" width="130" height="58" as="geometry" />
        </mxCell>
        <mxCell id="qrLLP5ViFst0h06Zl4Ro-696" value="مصلحة&#xa; مغازات المواد الأوليّة&#xa; بالمقر الإجتماعي" style="rounded=1;fillColor=#23445D;gradientColor=none;strokeColor=none;fontColor=#FFFFFF;fontStyle=1;fontFamily=Tahoma;fontSize=12;" parent="1" vertex="1">
          <mxGeometry x="1606.5" y="1790.75" width="130" height="58" as="geometry" />
        </mxCell>
        <mxCell id="qrLLP5ViFst0h06Zl4Ro-697" value="مصلحة&#xa; مغازات المواد الأوليّة &#xa;بمراكز زراعة التّبغ &#xa;والفضاءات الأخرى" style="rounded=1;fillColor=#23445D;gradientColor=none;strokeColor=none;fontColor=#FFFFFF;fontStyle=1;fontFamily=Tahoma;fontSize=12;" parent="1" vertex="1">
          <mxGeometry x="1606.5" y="1879.75" width="130" height="58" as="geometry" />
        </mxCell>
        <mxCell id="qrLLP5ViFst0h06Zl4Ro-698" style="edgeStyle=orthogonalEdgeStyle;rounded=0;orthogonalLoop=1;jettySize=auto;html=1;exitX=1;exitY=0.5;exitDx=0;exitDy=0;entryX=1;entryY=0.5;entryDx=0;entryDy=0;strokeWidth=2;" parent="1" source="qrLLP5ViFst0h06Zl4Ro-702" target="qrLLP5ViFst0h06Zl4Ro-696" edge="1">
          <mxGeometry relative="1" as="geometry" />
        </mxCell>
        <mxCell id="qrLLP5ViFst0h06Zl4Ro-699" style="edgeStyle=orthogonalEdgeStyle;rounded=0;orthogonalLoop=1;jettySize=auto;html=1;exitX=1;exitY=0.5;exitDx=0;exitDy=0;entryX=1;entryY=0.5;entryDx=0;entryDy=0;strokeWidth=2;" parent="1" source="qrLLP5ViFst0h06Zl4Ro-702" target="qrLLP5ViFst0h06Zl4Ro-697" edge="1">
          <mxGeometry relative="1" as="geometry" />
        </mxCell>
        <mxCell id="qrLLP5ViFst0h06Zl4Ro-702" value="الإدارة الفرعيّة&#xa; لمغازات المواد الاوليّة" style="rounded=1;fillColor=#23445D;gradientColor=none;strokeColor=none;fontColor=#FFFFFF;fontStyle=1;fontFamily=Tahoma;fontSize=12;" parent="1" vertex="1">
          <mxGeometry x="1606.5" y="1690.25" width="130" height="58" as="geometry" />
        </mxCell>
        <mxCell id="qrLLP5ViFst0h06Zl4Ro-708" style="edgeStyle=orthogonalEdgeStyle;rounded=0;orthogonalLoop=1;jettySize=auto;html=1;exitX=0.5;exitY=1;exitDx=0;exitDy=0;entryX=0.5;entryY=0;entryDx=0;entryDy=0;strokeWidth=2;" parent="1" source="qrLLP5ViFst0h06Zl4Ro-707" target="qrLLP5ViFst0h06Zl4Ro-702" edge="1">
          <mxGeometry relative="1" as="geometry" />
        </mxCell>
        <mxCell id="qrLLP5ViFst0h06Zl4Ro-709" style="edgeStyle=orthogonalEdgeStyle;rounded=0;orthogonalLoop=1;jettySize=auto;html=1;exitX=0.5;exitY=1;exitDx=0;exitDy=0;entryX=0.5;entryY=0;entryDx=0;entryDy=0;strokeWidth=2;" parent="1" source="qrLLP5ViFst0h06Zl4Ro-707" target="qrLLP5ViFst0h06Zl4Ro-694" edge="1">
          <mxGeometry relative="1" as="geometry" />
        </mxCell>
        <mxCell id="qrLLP5ViFst0h06Zl4Ro-710" style="edgeStyle=orthogonalEdgeStyle;rounded=0;orthogonalLoop=1;jettySize=auto;html=1;exitX=0.5;exitY=1;exitDx=0;exitDy=0;entryX=0.5;entryY=0;entryDx=0;entryDy=0;strokeWidth=2;" parent="1" source="qrLLP5ViFst0h06Zl4Ro-707" target="qrLLP5ViFst0h06Zl4Ro-684" edge="1">
          <mxGeometry relative="1" as="geometry" />
        </mxCell>
        <mxCell id="qrLLP5ViFst0h06Zl4Ro-707" value="إدارة&#xa; المغازات" style="rounded=1;fillColor=#23445D;gradientColor=none;strokeColor=none;fontColor=#FFFFFF;fontStyle=1;fontFamily=Tahoma;fontSize=12;" parent="1" vertex="1">
          <mxGeometry x="1436.5" y="1590.25" width="130" height="58" as="geometry" />
        </mxCell>
        <mxCell id="qrLLP5ViFst0h06Zl4Ro-729" style="edgeStyle=orthogonalEdgeStyle;rounded=0;orthogonalLoop=1;jettySize=auto;html=1;exitX=0.5;exitY=1;exitDx=0;exitDy=0;entryX=0.5;entryY=0;entryDx=0;entryDy=0;strokeWidth=2;" parent="1" source="qrLLP5ViFst0h06Zl4Ro-732" target="qrLLP5ViFst0h06Zl4Ro-746" edge="1">
          <mxGeometry relative="1" as="geometry" />
        </mxCell>
        <mxCell id="qrLLP5ViFst0h06Zl4Ro-730" style="edgeStyle=orthogonalEdgeStyle;rounded=0;orthogonalLoop=1;jettySize=auto;html=1;exitX=0.5;exitY=1;exitDx=0;exitDy=0;entryX=0.5;entryY=0;entryDx=0;entryDy=0;strokeWidth=2;" parent="1" source="qrLLP5ViFst0h06Zl4Ro-732" target="qrLLP5ViFst0h06Zl4Ro-753" edge="1">
          <mxGeometry relative="1" as="geometry" />
        </mxCell>
        <mxCell id="qrLLP5ViFst0h06Zl4Ro-731" style="edgeStyle=orthogonalEdgeStyle;rounded=0;orthogonalLoop=1;jettySize=auto;html=1;exitX=0.5;exitY=1;exitDx=0;exitDy=0;entryX=0.5;entryY=0;entryDx=0;entryDy=0;strokeWidth=2;" parent="1" source="qrLLP5ViFst0h06Zl4Ro-732" target="qrLLP5ViFst0h06Zl4Ro-737" edge="1">
          <mxGeometry relative="1" as="geometry" />
        </mxCell>
        <mxCell id="qrLLP5ViFst0h06Zl4Ro-732" value="إدارة&#xa; تنمية زراعة التّبغ" style="rounded=1;fillColor=#23445D;gradientColor=none;strokeColor=none;fontColor=#FFFFFF;fontStyle=1;fontFamily=Tahoma;fontSize=12;" parent="1" vertex="1">
          <mxGeometry x="122" y="897.5" width="130" height="60" as="geometry" />
        </mxCell>
        <mxCell id="qrLLP5ViFst0h06Zl4Ro-734" style="edgeStyle=orthogonalEdgeStyle;rounded=0;orthogonalLoop=1;jettySize=auto;html=1;exitX=1;exitY=0.5;exitDx=0;exitDy=0;entryX=1;entryY=0.5;entryDx=0;entryDy=0;strokeWidth=2;" parent="1" source="qrLLP5ViFst0h06Zl4Ro-737" target="qrLLP5ViFst0h06Zl4Ro-740" edge="1">
          <mxGeometry relative="1" as="geometry" />
        </mxCell>
        <mxCell id="qrLLP5ViFst0h06Zl4Ro-735" style="edgeStyle=orthogonalEdgeStyle;rounded=0;orthogonalLoop=1;jettySize=auto;html=1;exitX=1;exitY=0.5;exitDx=0;exitDy=0;entryX=1;entryY=0.5;entryDx=0;entryDy=0;strokeWidth=2;" parent="1" source="qrLLP5ViFst0h06Zl4Ro-737" target="qrLLP5ViFst0h06Zl4Ro-741" edge="1">
          <mxGeometry relative="1" as="geometry" />
        </mxCell>
        <mxCell id="qrLLP5ViFst0h06Zl4Ro-736" style="edgeStyle=orthogonalEdgeStyle;rounded=0;orthogonalLoop=1;jettySize=auto;html=1;exitX=1;exitY=0.5;exitDx=0;exitDy=0;entryX=1;entryY=0.5;entryDx=0;entryDy=0;strokeWidth=2;" parent="1" source="qrLLP5ViFst0h06Zl4Ro-737" target="qrLLP5ViFst0h06Zl4Ro-742" edge="1">
          <mxGeometry relative="1" as="geometry" />
        </mxCell>
        <mxCell id="qrLLP5ViFst0h06Zl4Ro-737" value="الإدارة الفرعيّة&#xa; للبرمجة والتّجديد &#xa;الزّراعي" style="rounded=1;fillColor=#23445D;gradientColor=none;strokeColor=none;fontColor=#FFFFFF;fontStyle=1;fontFamily=Tahoma;fontSize=12;" parent="1" vertex="1">
          <mxGeometry x="1" y="997.5" width="130" height="60" as="geometry" />
        </mxCell>
        <mxCell id="qrLLP5ViFst0h06Zl4Ro-738" value="مصلحة &#xa;الارشاد والاحاطة&#xa; بالمزارع" style="rounded=1;fillColor=#23445D;gradientColor=none;strokeColor=none;fontColor=#FFFFFF;fontStyle=1;fontFamily=Tahoma;fontSize=12;" parent="1" vertex="1">
          <mxGeometry x="161" y="1087" width="130" height="60" as="geometry" />
        </mxCell>
        <mxCell id="qrLLP5ViFst0h06Zl4Ro-739" value="مصلحة&#xa; اعداد ومتابعة &#xa;الموسم الزراعي" style="rounded=1;fillColor=#23445D;gradientColor=none;strokeColor=none;fontColor=#FFFFFF;fontStyle=1;fontFamily=Tahoma;fontSize=12;" parent="1" vertex="1">
          <mxGeometry x="161" y="1176" width="130" height="60" as="geometry" />
        </mxCell>
        <mxCell id="qrLLP5ViFst0h06Zl4Ro-740" value="مصلحة&#xa; البرمجة والتقييم" style="rounded=1;fillColor=#23445D;gradientColor=none;strokeColor=none;fontColor=#FFFFFF;fontStyle=1;fontFamily=Tahoma;fontSize=12;" parent="1" vertex="1">
          <mxGeometry x="1" y="1087" width="130" height="60" as="geometry" />
        </mxCell>
        <mxCell id="qrLLP5ViFst0h06Zl4Ro-741" value="مصلحة&#xa; البحث والتجديد" style="rounded=1;fillColor=#23445D;gradientColor=none;strokeColor=none;fontColor=#FFFFFF;fontStyle=1;fontFamily=Tahoma;fontSize=12;" parent="1" vertex="1">
          <mxGeometry x="1" y="1176" width="130" height="60" as="geometry" />
        </mxCell>
        <mxCell id="qrLLP5ViFst0h06Zl4Ro-742" value="مصلحة&#xa; التنسيق بين مراكز&#xa; زراعة التبغ" style="rounded=1;fillColor=#23445D;gradientColor=none;strokeColor=none;fontColor=#FFFFFF;fontStyle=1;fontFamily=Tahoma;fontSize=12;" parent="1" vertex="1">
          <mxGeometry x="1" y="1258" width="130" height="60" as="geometry" />
        </mxCell>
        <mxCell id="qrLLP5ViFst0h06Zl4Ro-743" style="edgeStyle=orthogonalEdgeStyle;rounded=0;orthogonalLoop=1;jettySize=auto;html=1;exitX=1;exitY=0.5;exitDx=0;exitDy=0;entryX=1;entryY=0.5;entryDx=0;entryDy=0;strokeWidth=2;" parent="1" source="qrLLP5ViFst0h06Zl4Ro-746" target="qrLLP5ViFst0h06Zl4Ro-738" edge="1">
          <mxGeometry relative="1" as="geometry" />
        </mxCell>
        <mxCell id="qrLLP5ViFst0h06Zl4Ro-744" style="edgeStyle=orthogonalEdgeStyle;rounded=0;orthogonalLoop=1;jettySize=auto;html=1;exitX=1;exitY=0.5;exitDx=0;exitDy=0;entryX=1;entryY=0.5;entryDx=0;entryDy=0;strokeWidth=2;" parent="1" source="qrLLP5ViFst0h06Zl4Ro-746" target="qrLLP5ViFst0h06Zl4Ro-739" edge="1">
          <mxGeometry relative="1" as="geometry" />
        </mxCell>
        <mxCell id="qrLLP5ViFst0h06Zl4Ro-745" style="edgeStyle=orthogonalEdgeStyle;rounded=0;orthogonalLoop=1;jettySize=auto;html=1;exitX=1;exitY=0.5;exitDx=0;exitDy=0;entryX=1;entryY=0.5;entryDx=0;entryDy=0;strokeWidth=2;" parent="1" source="qrLLP5ViFst0h06Zl4Ro-746" target="qrLLP5ViFst0h06Zl4Ro-747" edge="1">
          <mxGeometry relative="1" as="geometry" />
        </mxCell>
        <mxCell id="qrLLP5ViFst0h06Zl4Ro-746" value="الإدارة الفرعيّة&#xa; لزراعة التّبغ بالشّمال&#xa; والشّمال الغربي" style="rounded=1;fillColor=#23445D;gradientColor=none;strokeColor=none;fontColor=#FFFFFF;fontStyle=1;fontFamily=Tahoma;fontSize=12;" parent="1" vertex="1">
          <mxGeometry x="161" y="997.5" width="130" height="60" as="geometry" />
        </mxCell>
        <mxCell id="qrLLP5ViFst0h06Zl4Ro-747" value="مصلحة&#xa; التصرف في&#xa; المخزونات" style="rounded=1;fillColor=#23445D;gradientColor=none;strokeColor=none;fontColor=#FFFFFF;fontStyle=1;fontFamily=Tahoma;fontSize=12;" parent="1" vertex="1">
          <mxGeometry x="161" y="1258" width="130" height="60" as="geometry" />
        </mxCell>
        <mxCell id="qrLLP5ViFst0h06Zl4Ro-748" value="مصلحة&#xa; الارشاد والاحاطة&#xa; بالمزارعين" style="rounded=1;fillColor=#23445D;gradientColor=none;strokeColor=none;fontColor=#FFFFFF;fontStyle=1;fontFamily=Tahoma;fontSize=11;" parent="1" vertex="1">
          <mxGeometry x="321" y="1087" width="130" height="60" as="geometry" />
        </mxCell>
        <mxCell id="qrLLP5ViFst0h06Zl4Ro-749" value="مصلحة&#xa; اعداد ومتابعة&#xa; الموسم الزراعي" style="rounded=1;fillColor=#23445D;gradientColor=none;strokeColor=none;fontColor=#FFFFFF;fontStyle=1;fontFamily=Tahoma;fontSize=11;" parent="1" vertex="1">
          <mxGeometry x="321" y="1176" width="130" height="60" as="geometry" />
        </mxCell>
        <mxCell id="qrLLP5ViFst0h06Zl4Ro-750" style="edgeStyle=orthogonalEdgeStyle;rounded=0;orthogonalLoop=1;jettySize=auto;html=1;exitX=1;exitY=0.5;exitDx=0;exitDy=0;entryX=1;entryY=0.5;entryDx=0;entryDy=0;strokeWidth=2;" parent="1" source="qrLLP5ViFst0h06Zl4Ro-753" target="qrLLP5ViFst0h06Zl4Ro-748" edge="1">
          <mxGeometry relative="1" as="geometry" />
        </mxCell>
        <mxCell id="qrLLP5ViFst0h06Zl4Ro-751" style="edgeStyle=orthogonalEdgeStyle;rounded=0;orthogonalLoop=1;jettySize=auto;html=1;exitX=1;exitY=0.5;exitDx=0;exitDy=0;entryX=1;entryY=0.5;entryDx=0;entryDy=0;strokeWidth=2;" parent="1" source="qrLLP5ViFst0h06Zl4Ro-753" target="qrLLP5ViFst0h06Zl4Ro-749" edge="1">
          <mxGeometry relative="1" as="geometry" />
        </mxCell>
        <mxCell id="qrLLP5ViFst0h06Zl4Ro-752" style="edgeStyle=orthogonalEdgeStyle;rounded=0;orthogonalLoop=1;jettySize=auto;html=1;exitX=1;exitY=0.5;exitDx=0;exitDy=0;entryX=1;entryY=0.5;entryDx=0;entryDy=0;strokeWidth=2;" parent="1" source="qrLLP5ViFst0h06Zl4Ro-753" target="qrLLP5ViFst0h06Zl4Ro-754" edge="1">
          <mxGeometry relative="1" as="geometry" />
        </mxCell>
        <mxCell id="qrLLP5ViFst0h06Zl4Ro-753" value="الإدارة الفرعيّة&#xa; لزراعة التّبغ&#xa; بالوطن القبلي &#xa;والوسط والجنوب" style="rounded=1;fillColor=#23445D;gradientColor=none;strokeColor=none;fontColor=#FFFFFF;fontStyle=1;fontFamily=Tahoma;fontSize=12;" parent="1" vertex="1">
          <mxGeometry x="321" y="997.5" width="130" height="60" as="geometry" />
        </mxCell>
        <mxCell id="qrLLP5ViFst0h06Zl4Ro-754" value="مصلحة&#xa; التصرف في &#xa;المخزونات" style="rounded=1;fillColor=#23445D;gradientColor=none;strokeColor=none;fontColor=#FFFFFF;fontStyle=1;fontFamily=Tahoma;fontSize=12;" parent="1" vertex="1">
          <mxGeometry x="321" y="1258" width="130" height="60" as="geometry" />
        </mxCell>
        <mxCell id="qrLLP5ViFst0h06Zl4Ro-756" style="edgeStyle=orthogonalEdgeStyle;rounded=0;orthogonalLoop=1;jettySize=auto;html=1;exitX=1;exitY=0.5;exitDx=0;exitDy=0;entryX=1;entryY=0.5;entryDx=0;entryDy=0;strokeWidth=2;" parent="1" source="qrLLP5ViFst0h06Zl4Ro-758" target="qrLLP5ViFst0h06Zl4Ro-761" edge="1">
          <mxGeometry relative="1" as="geometry" />
        </mxCell>
        <mxCell id="qrLLP5ViFst0h06Zl4Ro-757" style="edgeStyle=orthogonalEdgeStyle;rounded=0;orthogonalLoop=1;jettySize=auto;html=1;exitX=1;exitY=0.5;exitDx=0;exitDy=0;entryX=1;entryY=0.5;entryDx=0;entryDy=0;strokeWidth=2;" parent="1" source="qrLLP5ViFst0h06Zl4Ro-758" target="qrLLP5ViFst0h06Zl4Ro-762" edge="1">
          <mxGeometry relative="1" as="geometry" />
        </mxCell>
        <mxCell id="qrLLP5ViFst0h06Zl4Ro-775" style="edgeStyle=orthogonalEdgeStyle;rounded=0;orthogonalLoop=1;jettySize=auto;html=1;exitX=1;exitY=0.5;exitDx=0;exitDy=0;entryX=1;entryY=0.5;entryDx=0;entryDy=0;strokeWidth=2;" parent="1" source="qrLLP5ViFst0h06Zl4Ro-758" target="qrLLP5ViFst0h06Zl4Ro-774" edge="1">
          <mxGeometry relative="1" as="geometry" />
        </mxCell>
        <mxCell id="qrLLP5ViFst0h06Zl4Ro-758" value="الإدارة الفرعيّة&#xa; للماليّة" style="rounded=1;fillColor=#23445D;gradientColor=none;strokeColor=none;fontColor=#FFFFFF;fontStyle=1;fontFamily=Tahoma;fontSize=12;" parent="1" vertex="1">
          <mxGeometry x="3388.5" y="1690.25" width="130" height="58" as="geometry" />
        </mxCell>
        <mxCell id="qrLLP5ViFst0h06Zl4Ro-759" value="مصلحة &#xa;الجرد" style="rounded=1;fillColor=#23445D;gradientColor=none;strokeColor=none;fontColor=#FFFFFF;fontStyle=1;fontFamily=Tahoma;fontSize=12;" parent="1" vertex="1">
          <mxGeometry x="3556.5" y="1790.75" width="130" height="58" as="geometry" />
        </mxCell>
        <mxCell id="qrLLP5ViFst0h06Zl4Ro-760" value="مصلحة&#xa; سعر التّكلفة " style="rounded=1;fillColor=#23445D;gradientColor=none;strokeColor=none;fontColor=#FFFFFF;fontStyle=1;fontFamily=Tahoma;fontSize=12;" parent="1" vertex="1">
          <mxGeometry x="3556.5" y="1879.75" width="130" height="58" as="geometry" />
        </mxCell>
        <mxCell id="qrLLP5ViFst0h06Zl4Ro-761" value="مصلحة &#xa;مراقبة المصاريف" style="rounded=1;fillColor=#23445D;gradientColor=none;strokeColor=none;fontColor=#FFFFFF;fontStyle=1;fontFamily=Tahoma;fontSize=12;" parent="1" vertex="1">
          <mxGeometry x="3388.5" y="1790.75" width="130" height="58" as="geometry" />
        </mxCell>
        <mxCell id="qrLLP5ViFst0h06Zl4Ro-762" value="مصلحة &#xa;الجباية" style="rounded=1;fillColor=#23445D;gradientColor=none;strokeColor=none;fontColor=#FFFFFF;fontStyle=1;fontFamily=Tahoma;fontSize=12;" parent="1" vertex="1">
          <mxGeometry x="3388.5" y="1879.75" width="130" height="58" as="geometry" />
        </mxCell>
        <mxCell id="qrLLP5ViFst0h06Zl4Ro-763" style="edgeStyle=orthogonalEdgeStyle;rounded=0;orthogonalLoop=1;jettySize=auto;html=1;exitX=1;exitY=0.5;exitDx=0;exitDy=0;entryX=1;entryY=0.5;entryDx=0;entryDy=0;strokeWidth=2;" parent="1" source="qrLLP5ViFst0h06Zl4Ro-765" target="qrLLP5ViFst0h06Zl4Ro-759" edge="1">
          <mxGeometry relative="1" as="geometry">
            <Array as="points">
              <mxPoint x="3710" y="1719" />
              <mxPoint x="3710" y="1820" />
            </Array>
          </mxGeometry>
        </mxCell>
        <mxCell id="qrLLP5ViFst0h06Zl4Ro-764" style="edgeStyle=orthogonalEdgeStyle;rounded=0;orthogonalLoop=1;jettySize=auto;html=1;exitX=0;exitY=0.5;exitDx=0;exitDy=0;entryX=1;entryY=0.5;entryDx=0;entryDy=0;strokeWidth=2;" parent="1" source="qrLLP5ViFst0h06Zl4Ro-765" target="qrLLP5ViFst0h06Zl4Ro-760" edge="1">
          <mxGeometry relative="1" as="geometry">
            <Array as="points">
              <mxPoint x="3710" y="1719" />
              <mxPoint x="3710" y="1909" />
            </Array>
          </mxGeometry>
        </mxCell>
        <mxCell id="qrLLP5ViFst0h06Zl4Ro-777" style="edgeStyle=orthogonalEdgeStyle;rounded=0;orthogonalLoop=1;jettySize=auto;html=1;exitX=0;exitY=0.5;exitDx=0;exitDy=0;entryX=1;entryY=0.5;entryDx=0;entryDy=0;strokeWidth=2;" parent="1" source="qrLLP5ViFst0h06Zl4Ro-765" target="qrLLP5ViFst0h06Zl4Ro-776" edge="1">
          <mxGeometry relative="1" as="geometry">
            <Array as="points">
              <mxPoint x="3710" y="1719" />
              <mxPoint x="3710" y="1999" />
            </Array>
          </mxGeometry>
        </mxCell>
        <mxCell id="qrLLP5ViFst0h06Zl4Ro-765" value="الإدارة الفرعيّة &#xa;للمحاسبة التحليليّة" style="rounded=1;fillColor=#23445D;gradientColor=none;strokeColor=none;fontColor=#FFFFFF;fontStyle=1;fontFamily=Tahoma;fontSize=12;" parent="1" vertex="1">
          <mxGeometry x="3556.5" y="1690.25" width="130" height="58" as="geometry" />
        </mxCell>
        <mxCell id="qrLLP5ViFst0h06Zl4Ro-766" value="مصلحة &#xa;القيد المحاسبي &#xa;وإعداد القوائم الماليّة" style="rounded=1;fillColor=#23445D;gradientColor=none;strokeColor=none;fontColor=#FFFFFF;fontStyle=1;fontFamily=Tahoma;fontSize=12;" parent="1" vertex="1">
          <mxGeometry x="3736.5" y="1790.75" width="130" height="58" as="geometry" />
        </mxCell>
        <mxCell id="qrLLP5ViFst0h06Zl4Ro-767" value="مصلحة&#xa; مقاربة وتحليل &#xa;القوائم الماليّة" style="rounded=1;fillColor=#23445D;gradientColor=none;strokeColor=none;fontColor=#FFFFFF;fontStyle=1;fontFamily=Tahoma;fontSize=12;" parent="1" vertex="1">
          <mxGeometry x="3736.5" y="1879.75" width="130" height="58" as="geometry" />
        </mxCell>
        <mxCell id="qrLLP5ViFst0h06Zl4Ro-768" style="edgeStyle=orthogonalEdgeStyle;rounded=0;orthogonalLoop=1;jettySize=auto;html=1;exitX=0;exitY=0.5;exitDx=0;exitDy=0;entryX=1;entryY=0.5;entryDx=0;entryDy=0;strokeWidth=2;" parent="1" source="qrLLP5ViFst0h06Zl4Ro-770" target="qrLLP5ViFst0h06Zl4Ro-766" edge="1">
          <mxGeometry relative="1" as="geometry">
            <Array as="points">
              <mxPoint x="3890" y="1719" />
              <mxPoint x="3890" y="1820" />
            </Array>
          </mxGeometry>
        </mxCell>
        <mxCell id="qrLLP5ViFst0h06Zl4Ro-769" style="edgeStyle=orthogonalEdgeStyle;rounded=0;orthogonalLoop=1;jettySize=auto;html=1;exitX=0;exitY=0.5;exitDx=0;exitDy=0;entryX=1;entryY=0.5;entryDx=0;entryDy=0;strokeWidth=2;" parent="1" source="qrLLP5ViFst0h06Zl4Ro-770" target="qrLLP5ViFst0h06Zl4Ro-767" edge="1">
          <mxGeometry relative="1" as="geometry">
            <Array as="points">
              <mxPoint x="3890" y="1719" />
              <mxPoint x="3890" y="1909" />
            </Array>
          </mxGeometry>
        </mxCell>
        <mxCell id="qrLLP5ViFst0h06Zl4Ro-779" style="edgeStyle=orthogonalEdgeStyle;rounded=0;orthogonalLoop=1;jettySize=auto;html=1;exitX=0;exitY=0.5;exitDx=0;exitDy=0;entryX=1;entryY=0.5;entryDx=0;entryDy=0;" parent="1" source="qrLLP5ViFst0h06Zl4Ro-770" target="qrLLP5ViFst0h06Zl4Ro-778" edge="1">
          <mxGeometry relative="1" as="geometry">
            <Array as="points">
              <mxPoint x="3890" y="1719" />
              <mxPoint x="3890" y="1999" />
            </Array>
          </mxGeometry>
        </mxCell>
        <mxCell id="qrLLP5ViFst0h06Zl4Ro-770" value="الإدارة الفرعيّة&#xa; للمحاسبة العامّة" style="rounded=1;fillColor=#23445D;gradientColor=none;strokeColor=none;fontColor=#FFFFFF;fontStyle=1;fontFamily=Tahoma;fontSize=12;" parent="1" vertex="1">
          <mxGeometry x="3736.5" y="1690.25" width="130" height="58" as="geometry" />
        </mxCell>
        <mxCell id="qrLLP5ViFst0h06Zl4Ro-774" value="مصلحة &#xa;العمليات الماليّة" style="rounded=1;fillColor=#23445D;gradientColor=none;strokeColor=none;fontColor=#FFFFFF;fontStyle=1;fontFamily=Tahoma;fontSize=12;" parent="1" vertex="1">
          <mxGeometry x="3388.5" y="1969.75" width="130" height="58" as="geometry" />
        </mxCell>
        <mxCell id="qrLLP5ViFst0h06Zl4Ro-776" value="مصلحة &#xa;تحديد المخاطر" style="rounded=1;fillColor=#23445D;gradientColor=none;strokeColor=none;fontColor=#FFFFFF;fontStyle=1;fontFamily=Tahoma;fontSize=12;" parent="1" vertex="1">
          <mxGeometry x="3556.5" y="1969.75" width="130" height="58" as="geometry" />
        </mxCell>
        <mxCell id="qrLLP5ViFst0h06Zl4Ro-778" value="مصلحة&#xa; المعايير المحاسبيّة" style="rounded=1;fillColor=#23445D;gradientColor=none;strokeColor=none;fontColor=#FFFFFF;fontStyle=1;fontFamily=Tahoma;fontSize=12;" parent="1" vertex="1">
          <mxGeometry x="3736.5" y="1969.75" width="130" height="58" as="geometry" />
        </mxCell>
        <mxCell id="qrLLP5ViFst0h06Zl4Ro-788" style="edgeStyle=orthogonalEdgeStyle;rounded=0;orthogonalLoop=1;jettySize=auto;html=1;exitX=0.75;exitY=1;exitDx=0;exitDy=0;entryX=0.684;entryY=0.837;entryDx=0;entryDy=0;entryPerimeter=0;" parent="1" source="qrLLP5ViFst0h06Zl4Ro-202" target="qrLLP5ViFst0h06Zl4Ro-202" edge="1">
          <mxGeometry relative="1" as="geometry" />
        </mxCell>
        <mxCell id="qrLLP5ViFst0h06Zl4Ro-813" value="مصلحة&#xa; مراقبة العمليات&#xa; الماليّة" style="rounded=1;fillColor=#23445D;gradientColor=none;strokeColor=none;fontColor=#FFFFFF;fontStyle=1;fontFamily=Tahoma;fontSize=12;" parent="1" vertex="1">
          <mxGeometry x="3460.5" y="1347.25" width="130" height="60" as="geometry" />
        </mxCell>
        <mxCell id="qrLLP5ViFst0h06Zl4Ro-818" style="edgeStyle=orthogonalEdgeStyle;rounded=0;orthogonalLoop=1;jettySize=auto;html=1;exitX=1;exitY=0.5;exitDx=0;exitDy=0;entryX=1;entryY=0.5;entryDx=0;entryDy=0;strokeWidth=2;" parent="1" source="qrLLP5ViFst0h06Zl4Ro-820" target="qrLLP5ViFst0h06Zl4Ro-823" edge="1">
          <mxGeometry relative="1" as="geometry" />
        </mxCell>
        <mxCell id="qrLLP5ViFst0h06Zl4Ro-819" style="edgeStyle=orthogonalEdgeStyle;rounded=0;orthogonalLoop=1;jettySize=auto;html=1;exitX=1;exitY=0.5;exitDx=0;exitDy=0;entryX=1;entryY=0.5;entryDx=0;entryDy=0;strokeWidth=2;" parent="1" source="qrLLP5ViFst0h06Zl4Ro-820" target="qrLLP5ViFst0h06Zl4Ro-824" edge="1">
          <mxGeometry relative="1" as="geometry" />
        </mxCell>
        <mxCell id="qrLLP5ViFst0h06Zl4Ro-838" style="edgeStyle=orthogonalEdgeStyle;rounded=0;orthogonalLoop=1;jettySize=auto;html=1;exitX=1;exitY=0.5;exitDx=0;exitDy=0;entryX=1;entryY=0.5;entryDx=0;entryDy=0;strokeWidth=2;" parent="1" source="qrLLP5ViFst0h06Zl4Ro-820" target="qrLLP5ViFst0h06Zl4Ro-837" edge="1">
          <mxGeometry relative="1" as="geometry" />
        </mxCell>
        <mxCell id="qrLLP5ViFst0h06Zl4Ro-820" value="الإدارة الفرعيّة &#xa;للشّراءات الداخليّة" style="rounded=1;fillColor=#23445D;gradientColor=none;strokeColor=none;fontColor=#FFFFFF;fontStyle=1;fontFamily=Tahoma;fontSize=12;" parent="1" vertex="1">
          <mxGeometry x="2319" y="1690.75" width="130" height="58" as="geometry" />
        </mxCell>
        <mxCell id="qrLLP5ViFst0h06Zl4Ro-821" value="مصلحة&#xa; الختم النهائي&#xa;  مع الهيئة العليا &#xa;للطلب العمومي" style="rounded=1;fillColor=#23445D;gradientColor=none;strokeColor=none;fontColor=#FFFFFF;fontStyle=1;fontFamily=Tahoma;fontSize=12;" parent="1" vertex="1">
          <mxGeometry x="2497" y="1791.25" width="130" height="58" as="geometry" />
        </mxCell>
        <mxCell id="qrLLP5ViFst0h06Zl4Ro-822" value="مصلحة&#xa; الختم النهائي &#xa; مع اللجنة الداخلية &#xa;للصفقات" style="rounded=1;fillColor=#23445D;gradientColor=none;strokeColor=none;fontColor=#FFFFFF;fontStyle=1;fontFamily=Tahoma;fontSize=12;" parent="1" vertex="1">
          <mxGeometry x="2497" y="1880.25" width="130" height="58" as="geometry" />
        </mxCell>
        <mxCell id="qrLLP5ViFst0h06Zl4Ro-823" value="مصلحة&#xa; شراء مواد الصنع" style="rounded=1;fillColor=#23445D;gradientColor=none;strokeColor=none;fontColor=#FFFFFF;fontStyle=1;fontFamily=Tahoma;fontSize=12;" parent="1" vertex="1">
          <mxGeometry x="2319" y="1791.25" width="130" height="58" as="geometry" />
        </mxCell>
        <mxCell id="qrLLP5ViFst0h06Zl4Ro-824" value="مصلحة&#xa; شراء المعدات ومواد&#xa; الاستهلاك وقطع الغيار" style="rounded=1;fillColor=#23445D;gradientColor=none;strokeColor=none;fontColor=#FFFFFF;fontStyle=1;fontFamily=Tahoma;fontSize=12;" parent="1" vertex="1">
          <mxGeometry x="2319" y="1880.25" width="130" height="58" as="geometry" />
        </mxCell>
        <mxCell id="qrLLP5ViFst0h06Zl4Ro-825" style="edgeStyle=orthogonalEdgeStyle;rounded=0;orthogonalLoop=1;jettySize=auto;html=1;exitX=1;exitY=0.5;exitDx=0;exitDy=0;entryX=1;entryY=0.5;entryDx=0;entryDy=0;strokeWidth=2;" parent="1" source="qrLLP5ViFst0h06Zl4Ro-827" target="qrLLP5ViFst0h06Zl4Ro-821" edge="1">
          <mxGeometry relative="1" as="geometry" />
        </mxCell>
        <mxCell id="qrLLP5ViFst0h06Zl4Ro-826" style="edgeStyle=orthogonalEdgeStyle;rounded=0;orthogonalLoop=1;jettySize=auto;html=1;exitX=1;exitY=0.5;exitDx=0;exitDy=0;entryX=1;entryY=0.5;entryDx=0;entryDy=0;strokeWidth=2;" parent="1" source="qrLLP5ViFst0h06Zl4Ro-827" target="qrLLP5ViFst0h06Zl4Ro-822" edge="1">
          <mxGeometry relative="1" as="geometry" />
        </mxCell>
        <mxCell id="qrLLP5ViFst0h06Zl4Ro-836" style="edgeStyle=orthogonalEdgeStyle;rounded=0;orthogonalLoop=1;jettySize=auto;html=1;exitX=1;exitY=0.5;exitDx=0;exitDy=0;entryX=1;entryY=0.5;entryDx=0;entryDy=0;strokeWidth=2;" parent="1" source="qrLLP5ViFst0h06Zl4Ro-827" target="qrLLP5ViFst0h06Zl4Ro-835" edge="1">
          <mxGeometry relative="1" as="geometry" />
        </mxCell>
        <mxCell id="qrLLP5ViFst0h06Zl4Ro-827" value="الإدارة الفرعيّة &#xa;لمتابعة تنفيذ&#xa; عقود الصّفقات" style="rounded=1;fillColor=#23445D;gradientColor=none;strokeColor=none;fontColor=#FFFFFF;fontStyle=1;fontFamily=Tahoma;fontSize=12;" parent="1" vertex="1">
          <mxGeometry x="2497" y="1690.75" width="130" height="58" as="geometry" />
        </mxCell>
        <mxCell id="qrLLP5ViFst0h06Zl4Ro-828" value="مصلحة&#xa; شراءات التبغ &#xa;والمواد المصنوعة" style="rounded=1;fillColor=#23445D;gradientColor=none;strokeColor=none;fontColor=#FFFFFF;fontStyle=1;fontFamily=Tahoma;fontSize=12;" parent="1" vertex="1">
          <mxGeometry x="2677" y="1791.25" width="130" height="58" as="geometry" />
        </mxCell>
        <mxCell id="qrLLP5ViFst0h06Zl4Ro-829" value="مصلحة&#xa; شراءات مواد الصنع&#xa; والمعدات وقطع الغيار" style="rounded=1;fillColor=#23445D;gradientColor=none;strokeColor=none;fontColor=#FFFFFF;fontStyle=1;fontFamily=Tahoma;fontSize=12;" parent="1" vertex="1">
          <mxGeometry x="2677" y="1880.25" width="130" height="58" as="geometry" />
        </mxCell>
        <mxCell id="qrLLP5ViFst0h06Zl4Ro-830" style="edgeStyle=orthogonalEdgeStyle;rounded=0;orthogonalLoop=1;jettySize=auto;html=1;exitX=1;exitY=0.5;exitDx=0;exitDy=0;entryX=1;entryY=0.5;entryDx=0;entryDy=0;strokeWidth=2;" parent="1" source="qrLLP5ViFst0h06Zl4Ro-832" target="qrLLP5ViFst0h06Zl4Ro-828" edge="1">
          <mxGeometry relative="1" as="geometry" />
        </mxCell>
        <mxCell id="qrLLP5ViFst0h06Zl4Ro-831" style="edgeStyle=orthogonalEdgeStyle;rounded=0;orthogonalLoop=1;jettySize=auto;html=1;exitX=1;exitY=0.5;exitDx=0;exitDy=0;entryX=1;entryY=0.5;entryDx=0;entryDy=0;strokeWidth=2;" parent="1" source="qrLLP5ViFst0h06Zl4Ro-832" target="qrLLP5ViFst0h06Zl4Ro-829" edge="1">
          <mxGeometry relative="1" as="geometry" />
        </mxCell>
        <mxCell id="qrLLP5ViFst0h06Zl4Ro-834" style="edgeStyle=orthogonalEdgeStyle;rounded=0;orthogonalLoop=1;jettySize=auto;html=1;exitX=1;exitY=0.5;exitDx=0;exitDy=0;entryX=1;entryY=0.5;entryDx=0;entryDy=0;strokeWidth=2;" parent="1" source="qrLLP5ViFst0h06Zl4Ro-832" target="qrLLP5ViFst0h06Zl4Ro-833" edge="1">
          <mxGeometry relative="1" as="geometry" />
        </mxCell>
        <mxCell id="qrLLP5ViFst0h06Zl4Ro-832" value="الإدارة الفرعيّة&#xa; للشّراءات الخارجيّة" style="rounded=1;fillColor=#23445D;gradientColor=none;strokeColor=none;fontColor=#FFFFFF;fontStyle=1;fontFamily=Tahoma;fontSize=12;" parent="1" vertex="1">
          <mxGeometry x="2677" y="1690.75" width="130" height="58" as="geometry" />
        </mxCell>
        <mxCell id="qrLLP5ViFst0h06Zl4Ro-833" value="مصلحة&#xa; الوساطة الجمركية" style="rounded=1;fillColor=#23445D;gradientColor=none;strokeColor=none;fontColor=#FFFFFF;fontStyle=1;fontFamily=Tahoma;fontSize=12;" parent="1" vertex="1">
          <mxGeometry x="2677" y="1960.25" width="130" height="58" as="geometry" />
        </mxCell>
        <mxCell id="qrLLP5ViFst0h06Zl4Ro-835" value="مصلحة&#xa; إعداد جداول&#xa; تنفيذ الصفقات" style="rounded=1;fillColor=#23445D;gradientColor=none;strokeColor=none;fontColor=#FFFFFF;fontStyle=1;fontFamily=Tahoma;fontSize=12;" parent="1" vertex="1">
          <mxGeometry x="2497" y="1960.25" width="130" height="58" as="geometry" />
        </mxCell>
        <mxCell id="qrLLP5ViFst0h06Zl4Ro-837" value="مصلحة&#xa; اتفاقيات اسداء &#xa;الخدمات" style="rounded=1;fillColor=#23445D;gradientColor=none;strokeColor=none;fontColor=#FFFFFF;fontStyle=1;fontFamily=Tahoma;fontSize=12;" parent="1" vertex="1">
          <mxGeometry x="2319" y="1960.25" width="130" height="58" as="geometry" />
        </mxCell>
        <mxCell id="qrLLP5ViFst0h06Zl4Ro-843" style="edgeStyle=orthogonalEdgeStyle;rounded=0;orthogonalLoop=1;jettySize=auto;html=1;exitX=1;exitY=0.5;exitDx=0;exitDy=0;entryX=1;entryY=0.5;entryDx=0;entryDy=0;strokeWidth=2;" parent="1" source="qrLLP5ViFst0h06Zl4Ro-846" target="qrLLP5ViFst0h06Zl4Ro-849" edge="1">
          <mxGeometry relative="1" as="geometry" />
        </mxCell>
        <mxCell id="qrLLP5ViFst0h06Zl4Ro-844" style="edgeStyle=orthogonalEdgeStyle;rounded=0;orthogonalLoop=1;jettySize=auto;html=1;exitX=1;exitY=0.5;exitDx=0;exitDy=0;entryX=1;entryY=0.5;entryDx=0;entryDy=0;strokeWidth=2;" parent="1" source="qrLLP5ViFst0h06Zl4Ro-846" target="qrLLP5ViFst0h06Zl4Ro-850" edge="1">
          <mxGeometry relative="1" as="geometry" />
        </mxCell>
        <mxCell id="qrLLP5ViFst0h06Zl4Ro-845" style="edgeStyle=orthogonalEdgeStyle;rounded=0;orthogonalLoop=1;jettySize=auto;html=1;exitX=1;exitY=0.5;exitDx=0;exitDy=0;entryX=1;entryY=0.5;entryDx=0;entryDy=0;strokeWidth=2;" parent="1" source="qrLLP5ViFst0h06Zl4Ro-846" target="qrLLP5ViFst0h06Zl4Ro-863" edge="1">
          <mxGeometry relative="1" as="geometry" />
        </mxCell>
        <mxCell id="qrLLP5ViFst0h06Zl4Ro-846" value="الإدارة الفرعيّة&#xa; للتّأجير" style="rounded=1;fillColor=#23445D;gradientColor=none;strokeColor=none;fontColor=#FFFFFF;fontStyle=1;fontFamily=Tahoma;fontSize=12;" parent="1" vertex="1">
          <mxGeometry x="2855" y="1690.75" width="130" height="58" as="geometry" />
        </mxCell>
        <mxCell id="qrLLP5ViFst0h06Zl4Ro-847" value="مصلحة&#xa; التّصرف في ملفّات&#xa; المسار المهني للأعوان" style="rounded=1;fillColor=#23445D;gradientColor=none;strokeColor=none;fontColor=#FFFFFF;fontStyle=1;fontFamily=Tahoma;fontSize=12;" parent="1" vertex="1">
          <mxGeometry x="3023" y="1791.25" width="130" height="58" as="geometry" />
        </mxCell>
        <mxCell id="qrLLP5ViFst0h06Zl4Ro-848" value="مصلحة&#xa; التّكوين وتنمية&#xa; القدرات" style="rounded=1;fillColor=#23445D;gradientColor=none;strokeColor=none;fontColor=#FFFFFF;fontStyle=1;fontFamily=Tahoma;fontSize=12;" parent="1" vertex="1">
          <mxGeometry x="3023" y="1880.25" width="130" height="58" as="geometry" />
        </mxCell>
        <mxCell id="qrLLP5ViFst0h06Zl4Ro-849" value="مصلحة &#xa;مراقبة الحضور &#xa;والمواضبة" style="rounded=1;fillColor=#23445D;gradientColor=none;strokeColor=none;fontColor=#FFFFFF;fontStyle=1;fontFamily=Tahoma;fontSize=12;" parent="1" vertex="1">
          <mxGeometry x="2855" y="1791.25" width="130" height="58" as="geometry" />
        </mxCell>
        <mxCell id="qrLLP5ViFst0h06Zl4Ro-850" value="مصلحة &#xa;إعداد قوائم التّأجير" style="rounded=1;fillColor=#23445D;gradientColor=none;strokeColor=none;fontColor=#FFFFFF;fontStyle=1;fontFamily=Tahoma;fontSize=12;" parent="1" vertex="1">
          <mxGeometry x="2855" y="1880.25" width="130" height="58" as="geometry" />
        </mxCell>
        <mxCell id="qrLLP5ViFst0h06Zl4Ro-851" style="edgeStyle=orthogonalEdgeStyle;rounded=0;orthogonalLoop=1;jettySize=auto;html=1;exitX=0;exitY=0.5;exitDx=0;exitDy=0;strokeWidth=2;" parent="1" source="qrLLP5ViFst0h06Zl4Ro-854" edge="1">
          <mxGeometry relative="1" as="geometry">
            <mxPoint x="3150" y="1820" as="targetPoint" />
            <Array as="points">
              <mxPoint x="3180" y="1720" />
              <mxPoint x="3180" y="1820" />
            </Array>
          </mxGeometry>
        </mxCell>
        <mxCell id="qrLLP5ViFst0h06Zl4Ro-852" style="edgeStyle=orthogonalEdgeStyle;rounded=0;orthogonalLoop=1;jettySize=auto;html=1;exitX=0;exitY=0.5;exitDx=0;exitDy=0;strokeWidth=2;entryX=1;entryY=0.5;entryDx=0;entryDy=0;" parent="1" source="qrLLP5ViFst0h06Zl4Ro-854" target="qrLLP5ViFst0h06Zl4Ro-848" edge="1">
          <mxGeometry relative="1" as="geometry">
            <Array as="points">
              <mxPoint x="3180" y="1720" />
              <mxPoint x="3180" y="1909" />
            </Array>
          </mxGeometry>
        </mxCell>
        <mxCell id="qrLLP5ViFst0h06Zl4Ro-853" style="edgeStyle=orthogonalEdgeStyle;rounded=0;orthogonalLoop=1;jettySize=auto;html=1;exitX=1;exitY=0.5;exitDx=0;exitDy=0;entryX=1;entryY=0.5;entryDx=0;entryDy=0;strokeWidth=2;" parent="1" source="qrLLP5ViFst0h06Zl4Ro-854" target="qrLLP5ViFst0h06Zl4Ro-862" edge="1">
          <mxGeometry relative="1" as="geometry">
            <Array as="points">
              <mxPoint x="3180" y="1720" />
              <mxPoint x="3180" y="1989" />
            </Array>
          </mxGeometry>
        </mxCell>
        <mxCell id="qrLLP5ViFst0h06Zl4Ro-854" value="الإدارة الفرعيّة&#xa; للمسار المهني&#xa; وتنمية القدرات" style="rounded=1;fillColor=#23445D;gradientColor=none;strokeColor=none;fontColor=#FFFFFF;fontStyle=1;fontFamily=Tahoma;fontSize=12;" parent="1" vertex="1">
          <mxGeometry x="3023" y="1690.75" width="130" height="58" as="geometry" />
        </mxCell>
        <mxCell id="qrLLP5ViFst0h06Zl4Ro-855" value="مصلحة&#xa; العمل الإجتماعي" style="rounded=1;fillColor=#23445D;gradientColor=none;strokeColor=none;fontColor=#FFFFFF;fontStyle=1;fontFamily=Tahoma;fontSize=12;" parent="1" vertex="1">
          <mxGeometry x="3203" y="1791.25" width="130" height="58" as="geometry" />
        </mxCell>
        <mxCell id="qrLLP5ViFst0h06Zl4Ro-856" value="مصلحة&#xa; الصّحة والسّلامة&#xa; المهنيّة" style="rounded=1;fillColor=#23445D;gradientColor=none;strokeColor=none;fontColor=#FFFFFF;fontStyle=1;fontFamily=Tahoma;fontSize=12;" parent="1" vertex="1">
          <mxGeometry x="3203" y="1880.25" width="130" height="58" as="geometry" />
        </mxCell>
        <mxCell id="qrLLP5ViFst0h06Zl4Ro-857" style="edgeStyle=orthogonalEdgeStyle;rounded=0;orthogonalLoop=1;jettySize=auto;html=1;exitX=0;exitY=0.5;exitDx=0;exitDy=0;strokeWidth=2;" parent="1" source="qrLLP5ViFst0h06Zl4Ro-860" edge="1">
          <mxGeometry relative="1" as="geometry">
            <mxPoint x="3330" y="1820" as="targetPoint" />
            <Array as="points">
              <mxPoint x="3370" y="1720" />
              <mxPoint x="3370" y="1820" />
            </Array>
          </mxGeometry>
        </mxCell>
        <mxCell id="qrLLP5ViFst0h06Zl4Ro-858" style="edgeStyle=orthogonalEdgeStyle;rounded=0;orthogonalLoop=1;jettySize=auto;html=1;exitX=0;exitY=0.5;exitDx=0;exitDy=0;entryX=1;entryY=0.5;entryDx=0;entryDy=0;strokeWidth=2;" parent="1" source="qrLLP5ViFst0h06Zl4Ro-860" target="qrLLP5ViFst0h06Zl4Ro-856" edge="1">
          <mxGeometry relative="1" as="geometry">
            <Array as="points">
              <mxPoint x="3370" y="1720" />
              <mxPoint x="3370" y="1909" />
            </Array>
          </mxGeometry>
        </mxCell>
        <mxCell id="qrLLP5ViFst0h06Zl4Ro-859" style="edgeStyle=orthogonalEdgeStyle;rounded=0;orthogonalLoop=1;jettySize=auto;html=1;exitX=1;exitY=0.5;exitDx=0;exitDy=0;entryX=1;entryY=0.5;entryDx=0;entryDy=0;strokeWidth=2;" parent="1" source="qrLLP5ViFst0h06Zl4Ro-860" target="qrLLP5ViFst0h06Zl4Ro-861" edge="1">
          <mxGeometry relative="1" as="geometry">
            <Array as="points">
              <mxPoint x="3370" y="1720" />
              <mxPoint x="3370" y="1989" />
            </Array>
          </mxGeometry>
        </mxCell>
        <mxCell id="qrLLP5ViFst0h06Zl4Ro-860" value="الإدارة الفرعيّة&#xa; الإجتماعيّة" style="rounded=1;fillColor=#23445D;gradientColor=none;strokeColor=none;fontColor=#FFFFFF;fontStyle=1;fontFamily=Tahoma;fontSize=12;" parent="1" vertex="1">
          <mxGeometry x="3203" y="1690.75" width="130" height="58" as="geometry" />
        </mxCell>
        <mxCell id="qrLLP5ViFst0h06Zl4Ro-861" value="مصلحة&#xa; التّنشيط الثّقافي&#xa; والرّياضي" style="rounded=1;fillColor=#23445D;gradientColor=none;strokeColor=none;fontColor=#FFFFFF;fontStyle=1;fontFamily=Tahoma;fontSize=12;" parent="1" vertex="1">
          <mxGeometry x="3203" y="1960.25" width="130" height="58" as="geometry" />
        </mxCell>
        <mxCell id="qrLLP5ViFst0h06Zl4Ro-862" value="مصلحة&#xa; البرمجة وتقييم الأداء" style="rounded=1;fillColor=#23445D;gradientColor=none;strokeColor=none;fontColor=#FFFFFF;fontStyle=1;fontFamily=Tahoma;fontSize=12;" parent="1" vertex="1">
          <mxGeometry x="3023" y="1960.25" width="130" height="58" as="geometry" />
        </mxCell>
        <mxCell id="qrLLP5ViFst0h06Zl4Ro-863" value="مصلحة&#xa; التّنسيق مع التعاونيّة &#xa;والصّناديق الاجتماعيّة" style="rounded=1;fillColor=#23445D;gradientColor=none;strokeColor=none;fontColor=#FFFFFF;fontStyle=1;fontFamily=Tahoma;fontSize=12;" parent="1" vertex="1">
          <mxGeometry x="2855" y="1960.25" width="130" height="58" as="geometry" />
        </mxCell>
        <mxCell id="qrLLP5ViFst0h06Zl4Ro-877" style="edgeStyle=orthogonalEdgeStyle;rounded=0;orthogonalLoop=1;jettySize=auto;html=1;exitX=1;exitY=0.5;exitDx=0;exitDy=0;entryX=1;entryY=0.5;entryDx=0;entryDy=0;strokeWidth=2;" parent="1" source="qrLLP5ViFst0h06Zl4Ro-880" target="qrLLP5ViFst0h06Zl4Ro-883" edge="1">
          <mxGeometry relative="1" as="geometry" />
        </mxCell>
        <mxCell id="qrLLP5ViFst0h06Zl4Ro-878" style="edgeStyle=orthogonalEdgeStyle;rounded=0;orthogonalLoop=1;jettySize=auto;html=1;exitX=1;exitY=0.5;exitDx=0;exitDy=0;entryX=1;entryY=0.5;entryDx=0;entryDy=0;strokeWidth=2;" parent="1" source="qrLLP5ViFst0h06Zl4Ro-880" target="qrLLP5ViFst0h06Zl4Ro-884" edge="1">
          <mxGeometry relative="1" as="geometry" />
        </mxCell>
        <mxCell id="qrLLP5ViFst0h06Zl4Ro-879" style="edgeStyle=orthogonalEdgeStyle;rounded=0;orthogonalLoop=1;jettySize=auto;html=1;exitX=1;exitY=0.5;exitDx=0;exitDy=0;entryX=1;entryY=0.5;entryDx=0;entryDy=0;strokeWidth=2;" parent="1" source="qrLLP5ViFst0h06Zl4Ro-880" target="qrLLP5ViFst0h06Zl4Ro-897" edge="1">
          <mxGeometry relative="1" as="geometry" />
        </mxCell>
        <mxCell id="qrLLP5ViFst0h06Zl4Ro-880" value="الإدارة الفرعيّة&#xa; للتسويق" style="rounded=1;fillColor=#23445D;gradientColor=none;strokeColor=none;fontColor=#FFFFFF;fontStyle=1;fontFamily=Tahoma;fontSize=12;" parent="1" vertex="1">
          <mxGeometry x="1789" y="1690.75" width="130" height="58" as="geometry" />
        </mxCell>
        <mxCell id="qrLLP5ViFst0h06Zl4Ro-881" value="مصلحة&#xa; البيوعات بمراكز التوزيع&#xa; بالوسط والجنوب" style="rounded=1;fillColor=#23445D;gradientColor=none;strokeColor=none;fontColor=#FFFFFF;fontStyle=1;fontFamily=Tahoma;fontSize=12;" parent="1" vertex="1">
          <mxGeometry x="1967" y="1791.25" width="130" height="58" as="geometry" />
        </mxCell>
        <mxCell id="qrLLP5ViFst0h06Zl4Ro-882" value="مصلحة&#xa; البيوعات بالقباضات&#xa; المالية" style="rounded=1;fillColor=#23445D;gradientColor=none;strokeColor=none;fontColor=#FFFFFF;fontStyle=1;fontFamily=Tahoma;fontSize=12;" parent="1" vertex="1">
          <mxGeometry x="1967" y="1880.25" width="130" height="58" as="geometry" />
        </mxCell>
        <mxCell id="qrLLP5ViFst0h06Zl4Ro-883" value="مصلحة &#xa;برمجة البيوعات" style="rounded=1;fillColor=#23445D;gradientColor=none;strokeColor=none;fontColor=#FFFFFF;fontStyle=1;fontFamily=Tahoma;fontSize=12;" parent="1" vertex="1">
          <mxGeometry x="1789" y="1791.25" width="130" height="58" as="geometry" />
        </mxCell>
        <mxCell id="qrLLP5ViFst0h06Zl4Ro-884" value="مصلحة&#xa; الفوترة وإحصائيات&#xa; البيوعات" style="rounded=1;fillColor=#23445D;gradientColor=none;strokeColor=none;fontColor=#FFFFFF;fontStyle=1;fontFamily=Tahoma;fontSize=12;" parent="1" vertex="1">
          <mxGeometry x="1789" y="1880.25" width="130" height="58" as="geometry" />
        </mxCell>
        <mxCell id="qrLLP5ViFst0h06Zl4Ro-885" style="edgeStyle=orthogonalEdgeStyle;rounded=0;orthogonalLoop=1;jettySize=auto;html=1;exitX=1;exitY=0.5;exitDx=0;exitDy=0;entryX=1;entryY=0.5;entryDx=0;entryDy=0;strokeWidth=2;" parent="1" source="qrLLP5ViFst0h06Zl4Ro-888" target="qrLLP5ViFst0h06Zl4Ro-881" edge="1">
          <mxGeometry relative="1" as="geometry" />
        </mxCell>
        <mxCell id="qrLLP5ViFst0h06Zl4Ro-886" style="edgeStyle=orthogonalEdgeStyle;rounded=0;orthogonalLoop=1;jettySize=auto;html=1;exitX=1;exitY=0.5;exitDx=0;exitDy=0;entryX=1;entryY=0.5;entryDx=0;entryDy=0;strokeWidth=2;" parent="1" source="qrLLP5ViFst0h06Zl4Ro-888" target="qrLLP5ViFst0h06Zl4Ro-882" edge="1">
          <mxGeometry relative="1" as="geometry" />
        </mxCell>
        <mxCell id="qrLLP5ViFst0h06Zl4Ro-887" style="edgeStyle=orthogonalEdgeStyle;rounded=0;orthogonalLoop=1;jettySize=auto;html=1;exitX=1;exitY=0.5;exitDx=0;exitDy=0;entryX=1;entryY=0.5;entryDx=0;entryDy=0;strokeWidth=2;" parent="1" source="qrLLP5ViFst0h06Zl4Ro-888" target="qrLLP5ViFst0h06Zl4Ro-896" edge="1">
          <mxGeometry relative="1" as="geometry" />
        </mxCell>
        <mxCell id="qrLLP5ViFst0h06Zl4Ro-888" value="الإدارة الفرعيّة&#xa; لمراكز التوزيع بالوسط &#xa;والجنوب والقباضات" style="rounded=1;fillColor=#23445D;gradientColor=none;strokeColor=none;fontColor=#FFFFFF;fontStyle=1;fontFamily=Tahoma;fontSize=12;" parent="1" vertex="1">
          <mxGeometry x="1967" y="1690.75" width="130" height="58" as="geometry" />
        </mxCell>
        <mxCell id="qrLLP5ViFst0h06Zl4Ro-889" value="مصلحة&#xa; البيوعات بمراكز التوزيع &#xa;بولايات تونس الكبرى " style="rounded=1;fillColor=#23445D;gradientColor=none;strokeColor=none;fontColor=#FFFFFF;fontStyle=1;fontFamily=Tahoma;fontSize=12;" parent="1" vertex="1">
          <mxGeometry x="2147" y="1791.25" width="130" height="58" as="geometry" />
        </mxCell>
        <mxCell id="qrLLP5ViFst0h06Zl4Ro-890" value="مصلحة &#xa; البيوعات بمراكز التوزيع &#xa;بولايات نابل&#xa; وزغوان وسليانة" style="rounded=1;fillColor=#23445D;gradientColor=none;strokeColor=none;fontColor=#FFFFFF;fontStyle=1;fontFamily=Tahoma;fontSize=12;" parent="1" vertex="1">
          <mxGeometry x="2147" y="1880.25" width="130" height="58" as="geometry" />
        </mxCell>
        <mxCell id="qrLLP5ViFst0h06Zl4Ro-891" style="edgeStyle=orthogonalEdgeStyle;rounded=0;orthogonalLoop=1;jettySize=auto;html=1;exitX=1;exitY=0.5;exitDx=0;exitDy=0;entryX=1;entryY=0.5;entryDx=0;entryDy=0;strokeWidth=2;" parent="1" source="qrLLP5ViFst0h06Zl4Ro-894" target="qrLLP5ViFst0h06Zl4Ro-889" edge="1">
          <mxGeometry relative="1" as="geometry" />
        </mxCell>
        <mxCell id="qrLLP5ViFst0h06Zl4Ro-892" style="edgeStyle=orthogonalEdgeStyle;rounded=0;orthogonalLoop=1;jettySize=auto;html=1;exitX=1;exitY=0.5;exitDx=0;exitDy=0;entryX=1;entryY=0.5;entryDx=0;entryDy=0;strokeWidth=2;" parent="1" source="qrLLP5ViFst0h06Zl4Ro-894" target="qrLLP5ViFst0h06Zl4Ro-890" edge="1">
          <mxGeometry relative="1" as="geometry" />
        </mxCell>
        <mxCell id="qrLLP5ViFst0h06Zl4Ro-893" style="edgeStyle=orthogonalEdgeStyle;rounded=0;orthogonalLoop=1;jettySize=auto;html=1;exitX=1;exitY=0.5;exitDx=0;exitDy=0;entryX=1;entryY=0.5;entryDx=0;entryDy=0;strokeWidth=2;" parent="1" source="qrLLP5ViFst0h06Zl4Ro-894" target="qrLLP5ViFst0h06Zl4Ro-895" edge="1">
          <mxGeometry relative="1" as="geometry" />
        </mxCell>
        <mxCell id="qrLLP5ViFst0h06Zl4Ro-894" value="الإدارة الفرعيّة&#xa; لمراكز التوزيع &#xa;بالشمال" style="rounded=1;fillColor=#23445D;gradientColor=none;strokeColor=none;fontColor=#FFFFFF;fontStyle=1;fontFamily=Tahoma;fontSize=12;" parent="1" vertex="1">
          <mxGeometry x="2147" y="1690.75" width="130" height="58" as="geometry" />
        </mxCell>
        <mxCell id="qrLLP5ViFst0h06Zl4Ro-895" value="مصلحة &#xa;البيوعات بمراكز التوزيع &#xa;ببنزرت وبولايات &#xa;الشمال الغربي" style="rounded=1;fillColor=#23445D;gradientColor=none;strokeColor=none;fontColor=#FFFFFF;fontStyle=1;fontFamily=Tahoma;fontSize=12;" parent="1" vertex="1">
          <mxGeometry x="2147" y="1960.25" width="130" height="58" as="geometry" />
        </mxCell>
        <mxCell id="qrLLP5ViFst0h06Zl4Ro-896" value="مصلحة&#xa; البيوعات المباشرة&#xa; الأخرى" style="rounded=1;fillColor=#23445D;gradientColor=none;strokeColor=none;fontColor=#FFFFFF;fontStyle=1;fontFamily=Tahoma;fontSize=12;" parent="1" vertex="1">
          <mxGeometry x="1967" y="1960.25" width="130" height="58" as="geometry" />
        </mxCell>
        <mxCell id="qrLLP5ViFst0h06Zl4Ro-897" value="مصلحة&#xa; متابعة مسالك &#xa;التوزيع" style="rounded=1;fillColor=#23445D;gradientColor=none;strokeColor=none;fontColor=#FFFFFF;fontStyle=1;fontFamily=Tahoma;fontSize=12;" parent="1" vertex="1">
          <mxGeometry x="1789" y="1960.25" width="130" height="58" as="geometry" />
        </mxCell>
      </root>
    </mxGraphModel>
  </diagram>
</mxfile>
